G04 #@! TF.GenerationSoftware,KiCad,Pcbnew,(5.0.1-3-g963ef8bb5)*
G04 #@! TF.CreationDate,2018-11-29T22:46:30+01:00*
G04 #@! TF.ProjectId,condensadores,636F6E64656E7361646F7265732E6B69,rev?*
G04 #@! TF.SameCoordinates,Original*
G04 #@! TF.FileFunction,Legend,Top*
G04 #@! TF.FilePolarity,Positive*
%FSLAX46Y46*%
G04 Gerber Fmt 4.6, Leading zero omitted, Abs format (unit mm)*
G04 Created by KiCad (PCBNEW (5.0.1-3-g963ef8bb5)) date jueves, 29 de noviembre de 2018, 22:46:30*
%MOMM*%
%LPD*%
G01*
G04 APERTURE LIST*
%ADD10C,0.100000*%
%ADD11C,0.300000*%
%ADD12C,0.120000*%
%ADD13C,0.150000*%
%ADD14C,6.102000*%
%ADD15C,1.802000*%
%ADD16O,1.802000X2.102000*%
%ADD17O,1.802000X1.802000*%
%ADD18R,1.802000X1.802000*%
%ADD19R,1.702000X1.702000*%
%ADD20O,1.702000X1.702000*%
%ADD21C,1.882000*%
%ADD22R,2.502000X2.502000*%
%ADD23C,2.502000*%
%ADD24C,1.702000*%
%ADD25R,1.102000X1.602000*%
G04 APERTURE END LIST*
D10*
X81342856Y-140935713D02*
X81342856Y-141292856D01*
X80985713Y-141149999D02*
X81342856Y-141292856D01*
X81699998Y-141149999D01*
X81128570Y-141578570D02*
X81342856Y-141292856D01*
X81557141Y-141578570D01*
X81342856Y-153649998D02*
X81342856Y-154007141D01*
X80985713Y-153864284D02*
X81342856Y-154007141D01*
X81699998Y-153864284D01*
X81128570Y-154292855D02*
X81342856Y-154007141D01*
X81557141Y-154292855D01*
X81342856Y-156192855D02*
X81342856Y-156549998D01*
X80985713Y-156407141D02*
X81342856Y-156549998D01*
X81699998Y-156407141D01*
X81128570Y-156835712D02*
X81342856Y-156549998D01*
X81557141Y-156835712D01*
X81342856Y-151107141D02*
X81342856Y-151464284D01*
X80985713Y-151321427D02*
X81342856Y-151464284D01*
X81699998Y-151321427D01*
X81128570Y-151749998D02*
X81342856Y-151464284D01*
X81557141Y-151749998D01*
X81342856Y-135849999D02*
X81342856Y-136207142D01*
X80985713Y-136064285D02*
X81342856Y-136207142D01*
X81699998Y-136064285D01*
X81128570Y-136492856D02*
X81342856Y-136207142D01*
X81557141Y-136492856D01*
X81342856Y-143478570D02*
X81342856Y-143835713D01*
X80985713Y-143692856D02*
X81342856Y-143835713D01*
X81699998Y-143692856D01*
X81128570Y-144121427D02*
X81342856Y-143835713D01*
X81557141Y-144121427D01*
D11*
X94578571Y-151442857D02*
X96078571Y-150942857D01*
X94578571Y-150442857D01*
X96078571Y-149942857D02*
X94578571Y-149942857D01*
X96078571Y-149228571D02*
X94578571Y-149228571D01*
X96078571Y-148371428D01*
X94578571Y-148371428D01*
X92050000Y-151342857D02*
X91978571Y-151485714D01*
X91978571Y-151700000D01*
X92050000Y-151914285D01*
X92192857Y-152057142D01*
X92335714Y-152128571D01*
X92621428Y-152200000D01*
X92835714Y-152200000D01*
X93121428Y-152128571D01*
X93264285Y-152057142D01*
X93407142Y-151914285D01*
X93478571Y-151700000D01*
X93478571Y-151557142D01*
X93407142Y-151342857D01*
X93335714Y-151271428D01*
X92835714Y-151271428D01*
X92835714Y-151557142D01*
X93478571Y-150628571D02*
X91978571Y-150628571D01*
X93478571Y-149771428D01*
X91978571Y-149771428D01*
X93478571Y-149057142D02*
X91978571Y-149057142D01*
X91978571Y-148700000D01*
X92050000Y-148485714D01*
X92192857Y-148342857D01*
X92335714Y-148271428D01*
X92621428Y-148200000D01*
X92835714Y-148200000D01*
X93121428Y-148271428D01*
X93264285Y-148342857D01*
X93407142Y-148485714D01*
X93478571Y-148700000D01*
X93478571Y-149057142D01*
X89278571Y-149785714D02*
X89278571Y-150500000D01*
X89992857Y-150571428D01*
X89921428Y-150500000D01*
X89850000Y-150357142D01*
X89850000Y-150000000D01*
X89921428Y-149857142D01*
X89992857Y-149785714D01*
X90135714Y-149714285D01*
X90492857Y-149714285D01*
X90635714Y-149785714D01*
X90707142Y-149857142D01*
X90778571Y-150000000D01*
X90778571Y-150357142D01*
X90707142Y-150500000D01*
X90635714Y-150571428D01*
X89278571Y-149285714D02*
X90778571Y-148785714D01*
X89278571Y-148285714D01*
X117242857Y-155778571D02*
X116742857Y-155064285D01*
X116385714Y-155778571D02*
X116385714Y-154278571D01*
X116957142Y-154278571D01*
X117100000Y-154350000D01*
X117171428Y-154421428D01*
X117242857Y-154564285D01*
X117242857Y-154778571D01*
X117171428Y-154921428D01*
X117100000Y-154992857D01*
X116957142Y-155064285D01*
X116385714Y-155064285D01*
X117885714Y-154992857D02*
X118385714Y-154992857D01*
X118600000Y-155778571D02*
X117885714Y-155778571D01*
X117885714Y-154278571D01*
X118600000Y-154278571D01*
X119742857Y-154992857D02*
X119242857Y-154992857D01*
X119242857Y-155778571D02*
X119242857Y-154278571D01*
X119957142Y-154278571D01*
X116314285Y-152800000D02*
X117028571Y-152800000D01*
X116171428Y-153228571D02*
X116671428Y-151728571D01*
X117171428Y-153228571D01*
X117957142Y-151728571D02*
X118100000Y-151728571D01*
X118242857Y-151800000D01*
X118314285Y-151871428D01*
X118385714Y-152014285D01*
X118457142Y-152300000D01*
X118457142Y-152657142D01*
X118385714Y-152942857D01*
X118314285Y-153085714D01*
X118242857Y-153157142D01*
X118100000Y-153228571D01*
X117957142Y-153228571D01*
X117814285Y-153157142D01*
X117742857Y-153085714D01*
X117671428Y-152942857D01*
X117600000Y-152657142D01*
X117600000Y-152300000D01*
X117671428Y-152014285D01*
X117742857Y-151871428D01*
X117814285Y-151800000D01*
X117957142Y-151728571D01*
X119385714Y-151728571D02*
X119528571Y-151728571D01*
X119671428Y-151800000D01*
X119742857Y-151871428D01*
X119814285Y-152014285D01*
X119885714Y-152300000D01*
X119885714Y-152657142D01*
X119814285Y-152942857D01*
X119742857Y-153085714D01*
X119671428Y-153157142D01*
X119528571Y-153228571D01*
X119385714Y-153228571D01*
X119242857Y-153157142D01*
X119171428Y-153085714D01*
X119100000Y-152942857D01*
X119028571Y-152657142D01*
X119028571Y-152300000D01*
X119100000Y-152014285D01*
X119171428Y-151871428D01*
X119242857Y-151800000D01*
X119385714Y-151728571D01*
X116314285Y-150250000D02*
X117028571Y-150250000D01*
X116171428Y-150678571D02*
X116671428Y-149178571D01*
X117171428Y-150678571D01*
X117957142Y-149178571D02*
X118100000Y-149178571D01*
X118242857Y-149250000D01*
X118314285Y-149321428D01*
X118385714Y-149464285D01*
X118457142Y-149750000D01*
X118457142Y-150107142D01*
X118385714Y-150392857D01*
X118314285Y-150535714D01*
X118242857Y-150607142D01*
X118100000Y-150678571D01*
X117957142Y-150678571D01*
X117814285Y-150607142D01*
X117742857Y-150535714D01*
X117671428Y-150392857D01*
X117600000Y-150107142D01*
X117600000Y-149750000D01*
X117671428Y-149464285D01*
X117742857Y-149321428D01*
X117814285Y-149250000D01*
X117957142Y-149178571D01*
X119885714Y-150678571D02*
X119028571Y-150678571D01*
X119457142Y-150678571D02*
X119457142Y-149178571D01*
X119314285Y-149392857D01*
X119171428Y-149535714D01*
X119028571Y-149607142D01*
X116314285Y-147700000D02*
X117028571Y-147700000D01*
X116171428Y-148128571D02*
X116671428Y-146628571D01*
X117171428Y-148128571D01*
X117957142Y-146628571D02*
X118100000Y-146628571D01*
X118242857Y-146700000D01*
X118314285Y-146771428D01*
X118385714Y-146914285D01*
X118457142Y-147200000D01*
X118457142Y-147557142D01*
X118385714Y-147842857D01*
X118314285Y-147985714D01*
X118242857Y-148057142D01*
X118100000Y-148128571D01*
X117957142Y-148128571D01*
X117814285Y-148057142D01*
X117742857Y-147985714D01*
X117671428Y-147842857D01*
X117600000Y-147557142D01*
X117600000Y-147200000D01*
X117671428Y-146914285D01*
X117742857Y-146771428D01*
X117814285Y-146700000D01*
X117957142Y-146628571D01*
X119028571Y-146771428D02*
X119100000Y-146700000D01*
X119242857Y-146628571D01*
X119600000Y-146628571D01*
X119742857Y-146700000D01*
X119814285Y-146771428D01*
X119885714Y-146914285D01*
X119885714Y-147057142D01*
X119814285Y-147271428D01*
X118957142Y-148128571D01*
X119885714Y-148128571D01*
X116314285Y-145150000D02*
X117028571Y-145150000D01*
X116171428Y-145578571D02*
X116671428Y-144078571D01*
X117171428Y-145578571D01*
X117957142Y-144078571D02*
X118100000Y-144078571D01*
X118242857Y-144150000D01*
X118314285Y-144221428D01*
X118385714Y-144364285D01*
X118457142Y-144650000D01*
X118457142Y-145007142D01*
X118385714Y-145292857D01*
X118314285Y-145435714D01*
X118242857Y-145507142D01*
X118100000Y-145578571D01*
X117957142Y-145578571D01*
X117814285Y-145507142D01*
X117742857Y-145435714D01*
X117671428Y-145292857D01*
X117600000Y-145007142D01*
X117600000Y-144650000D01*
X117671428Y-144364285D01*
X117742857Y-144221428D01*
X117814285Y-144150000D01*
X117957142Y-144078571D01*
X118957142Y-144078571D02*
X119885714Y-144078571D01*
X119385714Y-144650000D01*
X119600000Y-144650000D01*
X119742857Y-144721428D01*
X119814285Y-144792857D01*
X119885714Y-144935714D01*
X119885714Y-145292857D01*
X119814285Y-145435714D01*
X119742857Y-145507142D01*
X119600000Y-145578571D01*
X119171428Y-145578571D01*
X119028571Y-145507142D01*
X118957142Y-145435714D01*
X116314285Y-142600000D02*
X117028571Y-142600000D01*
X116171428Y-143028571D02*
X116671428Y-141528571D01*
X117171428Y-143028571D01*
X117957142Y-141528571D02*
X118100000Y-141528571D01*
X118242857Y-141600000D01*
X118314285Y-141671428D01*
X118385714Y-141814285D01*
X118457142Y-142100000D01*
X118457142Y-142457142D01*
X118385714Y-142742857D01*
X118314285Y-142885714D01*
X118242857Y-142957142D01*
X118100000Y-143028571D01*
X117957142Y-143028571D01*
X117814285Y-142957142D01*
X117742857Y-142885714D01*
X117671428Y-142742857D01*
X117600000Y-142457142D01*
X117600000Y-142100000D01*
X117671428Y-141814285D01*
X117742857Y-141671428D01*
X117814285Y-141600000D01*
X117957142Y-141528571D01*
X119742857Y-142028571D02*
X119742857Y-143028571D01*
X119385714Y-141457142D02*
X119028571Y-142528571D01*
X119957142Y-142528571D01*
X116314285Y-140050000D02*
X117028571Y-140050000D01*
X116171428Y-140478571D02*
X116671428Y-138978571D01*
X117171428Y-140478571D01*
X117957142Y-138978571D02*
X118100000Y-138978571D01*
X118242857Y-139050000D01*
X118314285Y-139121428D01*
X118385714Y-139264285D01*
X118457142Y-139550000D01*
X118457142Y-139907142D01*
X118385714Y-140192857D01*
X118314285Y-140335714D01*
X118242857Y-140407142D01*
X118100000Y-140478571D01*
X117957142Y-140478571D01*
X117814285Y-140407142D01*
X117742857Y-140335714D01*
X117671428Y-140192857D01*
X117600000Y-139907142D01*
X117600000Y-139550000D01*
X117671428Y-139264285D01*
X117742857Y-139121428D01*
X117814285Y-139050000D01*
X117957142Y-138978571D01*
X119814285Y-138978571D02*
X119100000Y-138978571D01*
X119028571Y-139692857D01*
X119100000Y-139621428D01*
X119242857Y-139550000D01*
X119600000Y-139550000D01*
X119742857Y-139621428D01*
X119814285Y-139692857D01*
X119885714Y-139835714D01*
X119885714Y-140192857D01*
X119814285Y-140335714D01*
X119742857Y-140407142D01*
X119600000Y-140478571D01*
X119242857Y-140478571D01*
X119100000Y-140407142D01*
X119028571Y-140335714D01*
X116314285Y-137500000D02*
X117028571Y-137500000D01*
X116171428Y-137928571D02*
X116671428Y-136428571D01*
X117171428Y-137928571D01*
X117957142Y-136428571D02*
X118100000Y-136428571D01*
X118242857Y-136500000D01*
X118314285Y-136571428D01*
X118385714Y-136714285D01*
X118457142Y-137000000D01*
X118457142Y-137357142D01*
X118385714Y-137642857D01*
X118314285Y-137785714D01*
X118242857Y-137857142D01*
X118100000Y-137928571D01*
X117957142Y-137928571D01*
X117814285Y-137857142D01*
X117742857Y-137785714D01*
X117671428Y-137642857D01*
X117600000Y-137357142D01*
X117600000Y-137000000D01*
X117671428Y-136714285D01*
X117742857Y-136571428D01*
X117814285Y-136500000D01*
X117957142Y-136428571D01*
X119742857Y-136428571D02*
X119457142Y-136428571D01*
X119314285Y-136500000D01*
X119242857Y-136571428D01*
X119100000Y-136785714D01*
X119028571Y-137071428D01*
X119028571Y-137642857D01*
X119100000Y-137785714D01*
X119171428Y-137857142D01*
X119314285Y-137928571D01*
X119600000Y-137928571D01*
X119742857Y-137857142D01*
X119814285Y-137785714D01*
X119885714Y-137642857D01*
X119885714Y-137285714D01*
X119814285Y-137142857D01*
X119742857Y-137071428D01*
X119600000Y-137000000D01*
X119314285Y-137000000D01*
X119171428Y-137071428D01*
X119100000Y-137142857D01*
X119028571Y-137285714D01*
X116314285Y-134950000D02*
X117028571Y-134950000D01*
X116171428Y-135378571D02*
X116671428Y-133878571D01*
X117171428Y-135378571D01*
X117957142Y-133878571D02*
X118100000Y-133878571D01*
X118242857Y-133950000D01*
X118314285Y-134021428D01*
X118385714Y-134164285D01*
X118457142Y-134450000D01*
X118457142Y-134807142D01*
X118385714Y-135092857D01*
X118314285Y-135235714D01*
X118242857Y-135307142D01*
X118100000Y-135378571D01*
X117957142Y-135378571D01*
X117814285Y-135307142D01*
X117742857Y-135235714D01*
X117671428Y-135092857D01*
X117600000Y-134807142D01*
X117600000Y-134450000D01*
X117671428Y-134164285D01*
X117742857Y-134021428D01*
X117814285Y-133950000D01*
X117957142Y-133878571D01*
X118957142Y-133878571D02*
X119957142Y-133878571D01*
X119314285Y-135378571D01*
X107750000Y-160042857D02*
X107678571Y-160185714D01*
X107678571Y-160400000D01*
X107750000Y-160614285D01*
X107892857Y-160757142D01*
X108035714Y-160828571D01*
X108321428Y-160900000D01*
X108535714Y-160900000D01*
X108821428Y-160828571D01*
X108964285Y-160757142D01*
X109107142Y-160614285D01*
X109178571Y-160400000D01*
X109178571Y-160257142D01*
X109107142Y-160042857D01*
X109035714Y-159971428D01*
X108535714Y-159971428D01*
X108535714Y-160257142D01*
X109178571Y-159328571D02*
X107678571Y-159328571D01*
X109178571Y-158471428D01*
X107678571Y-158471428D01*
X109178571Y-157757142D02*
X107678571Y-157757142D01*
X107678571Y-157400000D01*
X107750000Y-157185714D01*
X107892857Y-157042857D01*
X108035714Y-156971428D01*
X108321428Y-156900000D01*
X108535714Y-156900000D01*
X108821428Y-156971428D01*
X108964285Y-157042857D01*
X109107142Y-157185714D01*
X109178571Y-157400000D01*
X109178571Y-157757142D01*
X115378571Y-160714286D02*
X116878571Y-160214286D01*
X115378571Y-159714286D01*
X116878571Y-159214286D02*
X115378571Y-159214286D01*
X116878571Y-158500000D02*
X115378571Y-158500000D01*
X116878571Y-157642857D01*
X115378571Y-157642857D01*
X110178571Y-159785714D02*
X110178571Y-160500000D01*
X110892857Y-160571428D01*
X110821428Y-160500000D01*
X110750000Y-160357142D01*
X110750000Y-160000000D01*
X110821428Y-159857142D01*
X110892857Y-159785714D01*
X111035714Y-159714285D01*
X111392857Y-159714285D01*
X111535714Y-159785714D01*
X111607142Y-159857142D01*
X111678571Y-160000000D01*
X111678571Y-160357142D01*
X111607142Y-160500000D01*
X111535714Y-160571428D01*
X110178571Y-159285714D02*
X111678571Y-158785714D01*
X110178571Y-158285714D01*
X112678571Y-160642857D02*
X112678571Y-159714286D01*
X113250000Y-160214286D01*
X113250000Y-160000000D01*
X113321428Y-159857143D01*
X113392857Y-159785714D01*
X113535714Y-159714286D01*
X113892857Y-159714286D01*
X114035714Y-159785714D01*
X114107142Y-159857143D01*
X114178571Y-160000000D01*
X114178571Y-160428571D01*
X114107142Y-160571429D01*
X114035714Y-160642857D01*
X114035714Y-159071429D02*
X114107142Y-159000000D01*
X114178571Y-159071429D01*
X114107142Y-159142857D01*
X114035714Y-159071429D01*
X114178571Y-159071429D01*
X112678571Y-158500000D02*
X112678571Y-157571429D01*
X113250000Y-158071429D01*
X113250000Y-157857143D01*
X113321428Y-157714286D01*
X113392857Y-157642857D01*
X113535714Y-157571429D01*
X113892857Y-157571429D01*
X114035714Y-157642857D01*
X114107142Y-157714286D01*
X114178571Y-157857143D01*
X114178571Y-158285714D01*
X114107142Y-158428571D01*
X114035714Y-158500000D01*
X80307141Y-163278569D02*
X80307141Y-161778569D01*
X80664284Y-161778569D01*
X80878570Y-161849998D01*
X81021427Y-161992855D01*
X81092855Y-162135712D01*
X81164284Y-162421426D01*
X81164284Y-162635712D01*
X81092855Y-162921426D01*
X81021427Y-163064283D01*
X80878570Y-163207140D01*
X80664284Y-163278569D01*
X80307141Y-163278569D01*
X82592855Y-163278569D02*
X81735712Y-163278569D01*
X82164284Y-163278569D02*
X82164284Y-161778569D01*
X82021427Y-161992855D01*
X81878570Y-162135712D01*
X81735712Y-162207140D01*
X83092855Y-161778569D02*
X84021427Y-161778569D01*
X83521427Y-162349998D01*
X83735712Y-162349998D01*
X83878570Y-162421426D01*
X83949998Y-162492855D01*
X84021427Y-162635712D01*
X84021427Y-162992855D01*
X83949998Y-163135712D01*
X83878570Y-163207140D01*
X83735712Y-163278569D01*
X83307141Y-163278569D01*
X83164284Y-163207140D01*
X83092855Y-163135712D01*
X80307141Y-160735712D02*
X80307141Y-159235712D01*
X80664284Y-159235712D01*
X80878570Y-159307141D01*
X81021427Y-159449998D01*
X81092855Y-159592855D01*
X81164284Y-159878569D01*
X81164284Y-160092855D01*
X81092855Y-160378569D01*
X81021427Y-160521426D01*
X80878570Y-160664283D01*
X80664284Y-160735712D01*
X80307141Y-160735712D01*
X82592855Y-160735712D02*
X81735712Y-160735712D01*
X82164284Y-160735712D02*
X82164284Y-159235712D01*
X82021427Y-159449998D01*
X81878570Y-159592855D01*
X81735712Y-159664283D01*
X83164284Y-159378569D02*
X83235712Y-159307141D01*
X83378570Y-159235712D01*
X83735712Y-159235712D01*
X83878570Y-159307141D01*
X83949998Y-159378569D01*
X84021427Y-159521426D01*
X84021427Y-159664283D01*
X83949998Y-159878569D01*
X83092855Y-160735712D01*
X84021427Y-160735712D01*
X80307141Y-158192855D02*
X80307141Y-156692855D01*
X80664284Y-156692855D01*
X80878570Y-156764284D01*
X81021427Y-156907141D01*
X81092855Y-157049998D01*
X81164284Y-157335712D01*
X81164284Y-157549998D01*
X81092855Y-157835712D01*
X81021427Y-157978569D01*
X80878570Y-158121426D01*
X80664284Y-158192855D01*
X80307141Y-158192855D01*
X82592855Y-158192855D02*
X81735712Y-158192855D01*
X82164284Y-158192855D02*
X82164284Y-156692855D01*
X82021427Y-156907141D01*
X81878570Y-157049998D01*
X81735712Y-157121426D01*
X84021427Y-158192855D02*
X83164284Y-158192855D01*
X83592855Y-158192855D02*
X83592855Y-156692855D01*
X83449998Y-156907141D01*
X83307141Y-157049998D01*
X83164284Y-157121426D01*
X80307141Y-155649998D02*
X80307141Y-154149998D01*
X80664284Y-154149998D01*
X80878570Y-154221427D01*
X81021427Y-154364284D01*
X81092855Y-154507141D01*
X81164284Y-154792855D01*
X81164284Y-155007141D01*
X81092855Y-155292855D01*
X81021427Y-155435712D01*
X80878570Y-155578569D01*
X80664284Y-155649998D01*
X80307141Y-155649998D01*
X82592855Y-155649998D02*
X81735712Y-155649998D01*
X82164284Y-155649998D02*
X82164284Y-154149998D01*
X82021427Y-154364284D01*
X81878570Y-154507141D01*
X81735712Y-154578569D01*
X83521427Y-154149998D02*
X83664284Y-154149998D01*
X83807141Y-154221427D01*
X83878570Y-154292855D01*
X83949998Y-154435712D01*
X84021427Y-154721427D01*
X84021427Y-155078569D01*
X83949998Y-155364284D01*
X83878570Y-155507141D01*
X83807141Y-155578569D01*
X83664284Y-155649998D01*
X83521427Y-155649998D01*
X83378570Y-155578569D01*
X83307141Y-155507141D01*
X83235712Y-155364284D01*
X83164284Y-155078569D01*
X83164284Y-154721427D01*
X83235712Y-154435712D01*
X83307141Y-154292855D01*
X83378570Y-154221427D01*
X83521427Y-154149998D01*
X80307141Y-153107141D02*
X80307141Y-151607141D01*
X80664284Y-151607141D01*
X80878570Y-151678570D01*
X81021427Y-151821427D01*
X81092855Y-151964284D01*
X81164284Y-152249998D01*
X81164284Y-152464284D01*
X81092855Y-152749998D01*
X81021427Y-152892855D01*
X80878570Y-153035712D01*
X80664284Y-153107141D01*
X80307141Y-153107141D01*
X82092855Y-151607141D02*
X82235712Y-151607141D01*
X82378570Y-151678570D01*
X82449998Y-151749998D01*
X82521427Y-151892855D01*
X82592855Y-152178570D01*
X82592855Y-152535712D01*
X82521427Y-152821427D01*
X82449998Y-152964284D01*
X82378570Y-153035712D01*
X82235712Y-153107141D01*
X82092855Y-153107141D01*
X81949998Y-153035712D01*
X81878570Y-152964284D01*
X81807141Y-152821427D01*
X81735712Y-152535712D01*
X81735712Y-152178570D01*
X81807141Y-151892855D01*
X81878570Y-151749998D01*
X81949998Y-151678570D01*
X82092855Y-151607141D01*
X83307141Y-153107141D02*
X83592855Y-153107141D01*
X83735712Y-153035712D01*
X83807141Y-152964284D01*
X83949998Y-152749998D01*
X84021427Y-152464284D01*
X84021427Y-151892855D01*
X83949998Y-151749998D01*
X83878570Y-151678570D01*
X83735712Y-151607141D01*
X83449998Y-151607141D01*
X83307141Y-151678570D01*
X83235712Y-151749998D01*
X83164284Y-151892855D01*
X83164284Y-152249998D01*
X83235712Y-152392855D01*
X83307141Y-152464284D01*
X83449998Y-152535712D01*
X83735712Y-152535712D01*
X83878570Y-152464284D01*
X83949998Y-152392855D01*
X84021427Y-152249998D01*
X80307141Y-150564284D02*
X80307141Y-149064284D01*
X80664284Y-149064284D01*
X80878570Y-149135713D01*
X81021427Y-149278570D01*
X81092855Y-149421427D01*
X81164284Y-149707141D01*
X81164284Y-149921427D01*
X81092855Y-150207141D01*
X81021427Y-150349998D01*
X80878570Y-150492855D01*
X80664284Y-150564284D01*
X80307141Y-150564284D01*
X82092855Y-149064284D02*
X82235712Y-149064284D01*
X82378570Y-149135713D01*
X82449998Y-149207141D01*
X82521427Y-149349998D01*
X82592855Y-149635713D01*
X82592855Y-149992855D01*
X82521427Y-150278570D01*
X82449998Y-150421427D01*
X82378570Y-150492855D01*
X82235712Y-150564284D01*
X82092855Y-150564284D01*
X81949998Y-150492855D01*
X81878570Y-150421427D01*
X81807141Y-150278570D01*
X81735712Y-149992855D01*
X81735712Y-149635713D01*
X81807141Y-149349998D01*
X81878570Y-149207141D01*
X81949998Y-149135713D01*
X82092855Y-149064284D01*
X83449998Y-149707141D02*
X83307141Y-149635713D01*
X83235712Y-149564284D01*
X83164284Y-149421427D01*
X83164284Y-149349998D01*
X83235712Y-149207141D01*
X83307141Y-149135713D01*
X83449998Y-149064284D01*
X83735712Y-149064284D01*
X83878570Y-149135713D01*
X83949998Y-149207141D01*
X84021427Y-149349998D01*
X84021427Y-149421427D01*
X83949998Y-149564284D01*
X83878570Y-149635713D01*
X83735712Y-149707141D01*
X83449998Y-149707141D01*
X83307141Y-149778570D01*
X83235712Y-149849998D01*
X83164284Y-149992855D01*
X83164284Y-150278570D01*
X83235712Y-150421427D01*
X83307141Y-150492855D01*
X83449998Y-150564284D01*
X83735712Y-150564284D01*
X83878570Y-150492855D01*
X83949998Y-150421427D01*
X84021427Y-150278570D01*
X84021427Y-149992855D01*
X83949998Y-149849998D01*
X83878570Y-149778570D01*
X83735712Y-149707141D01*
X80307141Y-148021427D02*
X80307141Y-146521427D01*
X80664284Y-146521427D01*
X80878570Y-146592856D01*
X81021427Y-146735713D01*
X81092855Y-146878570D01*
X81164284Y-147164284D01*
X81164284Y-147378570D01*
X81092855Y-147664284D01*
X81021427Y-147807141D01*
X80878570Y-147949998D01*
X80664284Y-148021427D01*
X80307141Y-148021427D01*
X82092855Y-146521427D02*
X82235712Y-146521427D01*
X82378570Y-146592856D01*
X82449998Y-146664284D01*
X82521427Y-146807141D01*
X82592855Y-147092856D01*
X82592855Y-147449998D01*
X82521427Y-147735713D01*
X82449998Y-147878570D01*
X82378570Y-147949998D01*
X82235712Y-148021427D01*
X82092855Y-148021427D01*
X81949998Y-147949998D01*
X81878570Y-147878570D01*
X81807141Y-147735713D01*
X81735712Y-147449998D01*
X81735712Y-147092856D01*
X81807141Y-146807141D01*
X81878570Y-146664284D01*
X81949998Y-146592856D01*
X82092855Y-146521427D01*
X83092855Y-146521427D02*
X84092855Y-146521427D01*
X83449998Y-148021427D01*
X80307141Y-145478570D02*
X80307141Y-143978570D01*
X80664284Y-143978570D01*
X80878570Y-144049999D01*
X81021427Y-144192856D01*
X81092855Y-144335713D01*
X81164284Y-144621427D01*
X81164284Y-144835713D01*
X81092855Y-145121427D01*
X81021427Y-145264284D01*
X80878570Y-145407141D01*
X80664284Y-145478570D01*
X80307141Y-145478570D01*
X82092855Y-143978570D02*
X82235712Y-143978570D01*
X82378570Y-144049999D01*
X82449998Y-144121427D01*
X82521427Y-144264284D01*
X82592855Y-144549999D01*
X82592855Y-144907141D01*
X82521427Y-145192856D01*
X82449998Y-145335713D01*
X82378570Y-145407141D01*
X82235712Y-145478570D01*
X82092855Y-145478570D01*
X81949998Y-145407141D01*
X81878570Y-145335713D01*
X81807141Y-145192856D01*
X81735712Y-144907141D01*
X81735712Y-144549999D01*
X81807141Y-144264284D01*
X81878570Y-144121427D01*
X81949998Y-144049999D01*
X82092855Y-143978570D01*
X83878570Y-143978570D02*
X83592855Y-143978570D01*
X83449998Y-144049999D01*
X83378570Y-144121427D01*
X83235712Y-144335713D01*
X83164284Y-144621427D01*
X83164284Y-145192856D01*
X83235712Y-145335713D01*
X83307141Y-145407141D01*
X83449998Y-145478570D01*
X83735712Y-145478570D01*
X83878570Y-145407141D01*
X83949998Y-145335713D01*
X84021427Y-145192856D01*
X84021427Y-144835713D01*
X83949998Y-144692856D01*
X83878570Y-144621427D01*
X83735712Y-144549999D01*
X83449998Y-144549999D01*
X83307141Y-144621427D01*
X83235712Y-144692856D01*
X83164284Y-144835713D01*
X80307141Y-142935713D02*
X80307141Y-141435713D01*
X80664284Y-141435713D01*
X80878570Y-141507142D01*
X81021427Y-141649999D01*
X81092855Y-141792856D01*
X81164284Y-142078570D01*
X81164284Y-142292856D01*
X81092855Y-142578570D01*
X81021427Y-142721427D01*
X80878570Y-142864284D01*
X80664284Y-142935713D01*
X80307141Y-142935713D01*
X82092855Y-141435713D02*
X82235712Y-141435713D01*
X82378570Y-141507142D01*
X82449998Y-141578570D01*
X82521427Y-141721427D01*
X82592855Y-142007142D01*
X82592855Y-142364284D01*
X82521427Y-142649999D01*
X82449998Y-142792856D01*
X82378570Y-142864284D01*
X82235712Y-142935713D01*
X82092855Y-142935713D01*
X81949998Y-142864284D01*
X81878570Y-142792856D01*
X81807141Y-142649999D01*
X81735712Y-142364284D01*
X81735712Y-142007142D01*
X81807141Y-141721427D01*
X81878570Y-141578570D01*
X81949998Y-141507142D01*
X82092855Y-141435713D01*
X83949998Y-141435713D02*
X83235712Y-141435713D01*
X83164284Y-142149999D01*
X83235712Y-142078570D01*
X83378570Y-142007142D01*
X83735712Y-142007142D01*
X83878570Y-142078570D01*
X83949998Y-142149999D01*
X84021427Y-142292856D01*
X84021427Y-142649999D01*
X83949998Y-142792856D01*
X83878570Y-142864284D01*
X83735712Y-142935713D01*
X83378570Y-142935713D01*
X83235712Y-142864284D01*
X83164284Y-142792856D01*
X80307141Y-140392856D02*
X80307141Y-138892856D01*
X80664284Y-138892856D01*
X80878570Y-138964285D01*
X81021427Y-139107142D01*
X81092855Y-139249999D01*
X81164284Y-139535713D01*
X81164284Y-139749999D01*
X81092855Y-140035713D01*
X81021427Y-140178570D01*
X80878570Y-140321427D01*
X80664284Y-140392856D01*
X80307141Y-140392856D01*
X82092855Y-138892856D02*
X82235712Y-138892856D01*
X82378570Y-138964285D01*
X82449998Y-139035713D01*
X82521427Y-139178570D01*
X82592855Y-139464285D01*
X82592855Y-139821427D01*
X82521427Y-140107142D01*
X82449998Y-140249999D01*
X82378570Y-140321427D01*
X82235712Y-140392856D01*
X82092855Y-140392856D01*
X81949998Y-140321427D01*
X81878570Y-140249999D01*
X81807141Y-140107142D01*
X81735712Y-139821427D01*
X81735712Y-139464285D01*
X81807141Y-139178570D01*
X81878570Y-139035713D01*
X81949998Y-138964285D01*
X82092855Y-138892856D01*
X83878570Y-139392856D02*
X83878570Y-140392856D01*
X83521427Y-138821427D02*
X83164284Y-139892856D01*
X84092855Y-139892856D01*
X80307141Y-137849999D02*
X80307141Y-136349999D01*
X80664284Y-136349999D01*
X80878570Y-136421428D01*
X81021427Y-136564285D01*
X81092855Y-136707142D01*
X81164284Y-136992856D01*
X81164284Y-137207142D01*
X81092855Y-137492856D01*
X81021427Y-137635713D01*
X80878570Y-137778570D01*
X80664284Y-137849999D01*
X80307141Y-137849999D01*
X82092855Y-136349999D02*
X82235712Y-136349999D01*
X82378570Y-136421428D01*
X82449998Y-136492856D01*
X82521427Y-136635713D01*
X82592855Y-136921428D01*
X82592855Y-137278570D01*
X82521427Y-137564285D01*
X82449998Y-137707142D01*
X82378570Y-137778570D01*
X82235712Y-137849999D01*
X82092855Y-137849999D01*
X81949998Y-137778570D01*
X81878570Y-137707142D01*
X81807141Y-137564285D01*
X81735712Y-137278570D01*
X81735712Y-136921428D01*
X81807141Y-136635713D01*
X81878570Y-136492856D01*
X81949998Y-136421428D01*
X82092855Y-136349999D01*
X83092855Y-136349999D02*
X84021427Y-136349999D01*
X83521427Y-136921428D01*
X83735712Y-136921428D01*
X83878570Y-136992856D01*
X83949998Y-137064285D01*
X84021427Y-137207142D01*
X84021427Y-137564285D01*
X83949998Y-137707142D01*
X83878570Y-137778570D01*
X83735712Y-137849999D01*
X83307141Y-137849999D01*
X83164284Y-137778570D01*
X83092855Y-137707142D01*
X80307141Y-135307142D02*
X80307141Y-133807142D01*
X80664284Y-133807142D01*
X80878570Y-133878571D01*
X81021427Y-134021428D01*
X81092855Y-134164285D01*
X81164284Y-134449999D01*
X81164284Y-134664285D01*
X81092855Y-134949999D01*
X81021427Y-135092856D01*
X80878570Y-135235713D01*
X80664284Y-135307142D01*
X80307141Y-135307142D01*
X82092855Y-133807142D02*
X82235712Y-133807142D01*
X82378570Y-133878571D01*
X82449998Y-133949999D01*
X82521427Y-134092856D01*
X82592855Y-134378571D01*
X82592855Y-134735713D01*
X82521427Y-135021428D01*
X82449998Y-135164285D01*
X82378570Y-135235713D01*
X82235712Y-135307142D01*
X82092855Y-135307142D01*
X81949998Y-135235713D01*
X81878570Y-135164285D01*
X81807141Y-135021428D01*
X81735712Y-134735713D01*
X81735712Y-134378571D01*
X81807141Y-134092856D01*
X81878570Y-133949999D01*
X81949998Y-133878571D01*
X82092855Y-133807142D01*
X83164284Y-133949999D02*
X83235712Y-133878571D01*
X83378570Y-133807142D01*
X83735712Y-133807142D01*
X83878570Y-133878571D01*
X83949998Y-133949999D01*
X84021427Y-134092856D01*
X84021427Y-134235713D01*
X83949998Y-134449999D01*
X83092855Y-135307142D01*
X84021427Y-135307142D01*
X80092856Y-131264285D02*
X80949999Y-131264285D01*
X80521427Y-132764285D02*
X80521427Y-131264285D01*
X81307141Y-131264285D02*
X82307141Y-132764285D01*
X82307141Y-131264285D02*
X81307141Y-132764285D01*
X83664284Y-132764285D02*
X82807141Y-132764285D01*
X83235713Y-132764285D02*
X83235713Y-131264285D01*
X83092856Y-131478571D01*
X82949999Y-131621428D01*
X82807141Y-131692856D01*
X81164284Y-130221428D02*
X80664284Y-129507142D01*
X80307141Y-130221428D02*
X80307141Y-128721428D01*
X80878570Y-128721428D01*
X81021427Y-128792857D01*
X81092855Y-128864285D01*
X81164284Y-129007142D01*
X81164284Y-129221428D01*
X81092855Y-129364285D01*
X81021427Y-129435714D01*
X80878570Y-129507142D01*
X80307141Y-129507142D01*
X81664284Y-128721428D02*
X82664284Y-130221428D01*
X82664284Y-128721428D02*
X81664284Y-130221428D01*
X83521427Y-128721428D02*
X83664284Y-128721428D01*
X83807141Y-128792857D01*
X83878570Y-128864285D01*
X83949998Y-129007142D01*
X84021427Y-129292857D01*
X84021427Y-129649999D01*
X83949998Y-129935714D01*
X83878570Y-130078571D01*
X83807141Y-130149999D01*
X83664284Y-130221428D01*
X83521427Y-130221428D01*
X83378570Y-130149999D01*
X83307141Y-130078571D01*
X83235712Y-129935714D01*
X83164284Y-129649999D01*
X83164284Y-129292857D01*
X83235712Y-129007142D01*
X83307141Y-128864285D01*
X83378570Y-128792857D01*
X83521427Y-128721428D01*
X81092855Y-126250000D02*
X80949998Y-126178571D01*
X80735713Y-126178571D01*
X80521427Y-126250000D01*
X80378570Y-126392857D01*
X80307141Y-126535714D01*
X80235713Y-126821428D01*
X80235713Y-127035714D01*
X80307141Y-127321428D01*
X80378570Y-127464285D01*
X80521427Y-127607142D01*
X80735713Y-127678571D01*
X80878570Y-127678571D01*
X81092855Y-127607142D01*
X81164284Y-127535714D01*
X81164284Y-127035714D01*
X80878570Y-127035714D01*
X81807141Y-127678571D02*
X81807141Y-126178571D01*
X82664284Y-127678571D01*
X82664284Y-126178571D01*
X83378570Y-127678571D02*
X83378570Y-126178571D01*
X83735713Y-126178571D01*
X83949998Y-126250000D01*
X84092855Y-126392857D01*
X84164284Y-126535714D01*
X84235713Y-126821428D01*
X84235713Y-127035714D01*
X84164284Y-127321428D01*
X84092855Y-127464285D01*
X83949998Y-127607142D01*
X83735713Y-127678571D01*
X83378570Y-127678571D01*
X72557142Y-112250000D02*
X72414285Y-112178571D01*
X72200000Y-112178571D01*
X71985714Y-112250000D01*
X71842857Y-112392857D01*
X71771428Y-112535714D01*
X71700000Y-112821428D01*
X71700000Y-113035714D01*
X71771428Y-113321428D01*
X71842857Y-113464285D01*
X71985714Y-113607142D01*
X72200000Y-113678571D01*
X72342857Y-113678571D01*
X72557142Y-113607142D01*
X72628571Y-113535714D01*
X72628571Y-113035714D01*
X72342857Y-113035714D01*
X73271428Y-113678571D02*
X73271428Y-112178571D01*
X74128571Y-113678571D01*
X74128571Y-112178571D01*
X74842857Y-113678571D02*
X74842857Y-112178571D01*
X75200000Y-112178571D01*
X75414285Y-112250000D01*
X75557142Y-112392857D01*
X75628571Y-112535714D01*
X75700000Y-112821428D01*
X75700000Y-113035714D01*
X75628571Y-113321428D01*
X75557142Y-113464285D01*
X75414285Y-113607142D01*
X75200000Y-113678571D01*
X74842857Y-113678571D01*
X76685714Y-113007142D02*
X77828571Y-113007142D01*
X77257142Y-113578571D02*
X77257142Y-112435714D01*
X78328571Y-112078571D02*
X78828571Y-113578571D01*
X79328571Y-112078571D01*
X71621428Y-121992857D02*
X71835714Y-122064285D01*
X71907142Y-122135714D01*
X71978571Y-122278571D01*
X71978571Y-122492857D01*
X71907142Y-122635714D01*
X71835714Y-122707142D01*
X71692857Y-122778571D01*
X71121428Y-122778571D01*
X71121428Y-121278571D01*
X71621428Y-121278571D01*
X71764285Y-121350000D01*
X71835714Y-121421428D01*
X71907142Y-121564285D01*
X71907142Y-121707142D01*
X71835714Y-121850000D01*
X71764285Y-121921428D01*
X71621428Y-121992857D01*
X71121428Y-121992857D01*
X72550000Y-122350000D02*
X73264285Y-122350000D01*
X72407142Y-122778571D02*
X72907142Y-121278571D01*
X73407142Y-122778571D01*
X73692857Y-121278571D02*
X74550000Y-121278571D01*
X74121428Y-122778571D02*
X74121428Y-121278571D01*
X76835714Y-121278571D02*
X76550000Y-121278571D01*
X76407142Y-121350000D01*
X76335714Y-121421428D01*
X76192857Y-121635714D01*
X76121428Y-121921428D01*
X76121428Y-122492857D01*
X76192857Y-122635714D01*
X76264285Y-122707142D01*
X76407142Y-122778571D01*
X76692857Y-122778571D01*
X76835714Y-122707142D01*
X76907142Y-122635714D01*
X76978571Y-122492857D01*
X76978571Y-122135714D01*
X76907142Y-121992857D01*
X76835714Y-121921428D01*
X76692857Y-121850000D01*
X76407142Y-121850000D01*
X76264285Y-121921428D01*
X76192857Y-121992857D01*
X76121428Y-122135714D01*
X77621428Y-122207142D02*
X78764285Y-122207142D01*
X79550000Y-122778571D02*
X79835714Y-122778571D01*
X79978571Y-122707142D01*
X80050000Y-122635714D01*
X80192857Y-122421428D01*
X80264285Y-122135714D01*
X80264285Y-121564285D01*
X80192857Y-121421428D01*
X80121428Y-121350000D01*
X79978571Y-121278571D01*
X79692857Y-121278571D01*
X79550000Y-121350000D01*
X79478571Y-121421428D01*
X79407142Y-121564285D01*
X79407142Y-121921428D01*
X79478571Y-122064285D01*
X79550000Y-122135714D01*
X79692857Y-122207142D01*
X79978571Y-122207142D01*
X80121428Y-122135714D01*
X80192857Y-122064285D01*
X80264285Y-121921428D01*
X80692857Y-121278571D02*
X81192857Y-122778571D01*
X81692857Y-121278571D01*
X70378571Y-94042857D02*
X70807142Y-92900000D01*
X71235714Y-94042857D01*
X71378571Y-92185714D02*
X69878571Y-92185714D01*
X69878571Y-91614285D01*
X69950000Y-91471428D01*
X70021428Y-91400000D01*
X70164285Y-91328571D01*
X70378571Y-91328571D01*
X70521428Y-91400000D01*
X70592857Y-91471428D01*
X70664285Y-91614285D01*
X70664285Y-92185714D01*
X71378571Y-90471428D02*
X71307142Y-90614285D01*
X71164285Y-90685714D01*
X69878571Y-90685714D01*
X71378571Y-89257142D02*
X70592857Y-89257142D01*
X70450000Y-89328571D01*
X70378571Y-89471428D01*
X70378571Y-89757142D01*
X70450000Y-89900000D01*
X71307142Y-89257142D02*
X71378571Y-89400000D01*
X71378571Y-89757142D01*
X71307142Y-89900000D01*
X71164285Y-89971428D01*
X71021428Y-89971428D01*
X70878571Y-89900000D01*
X70807142Y-89757142D01*
X70807142Y-89400000D01*
X70735714Y-89257142D01*
X71307142Y-87900000D02*
X71378571Y-88042857D01*
X71378571Y-88328571D01*
X71307142Y-88471428D01*
X71235714Y-88542857D01*
X71092857Y-88614285D01*
X70664285Y-88614285D01*
X70521428Y-88542857D01*
X70450000Y-88471428D01*
X70378571Y-88328571D01*
X70378571Y-88042857D01*
X70450000Y-87900000D01*
X71378571Y-86614285D02*
X70592857Y-86614285D01*
X70450000Y-86685714D01*
X70378571Y-86828571D01*
X70378571Y-87114285D01*
X70450000Y-87257142D01*
X71307142Y-86614285D02*
X71378571Y-86757142D01*
X71378571Y-87114285D01*
X71307142Y-87257142D01*
X71164285Y-87328571D01*
X71021428Y-87328571D01*
X70878571Y-87257142D01*
X70807142Y-87114285D01*
X70807142Y-86757142D01*
X70735714Y-86614285D01*
X71307142Y-84828571D02*
X71378571Y-84614285D01*
X71378571Y-84257142D01*
X71307142Y-84114285D01*
X71235714Y-84042857D01*
X71092857Y-83971428D01*
X70950000Y-83971428D01*
X70807142Y-84042857D01*
X70735714Y-84114285D01*
X70664285Y-84257142D01*
X70592857Y-84542857D01*
X70521428Y-84685714D01*
X70450000Y-84757142D01*
X70307142Y-84828571D01*
X70164285Y-84828571D01*
X70021428Y-84757142D01*
X69950000Y-84685714D01*
X69878571Y-84542857D01*
X69878571Y-84185714D01*
X69950000Y-83971428D01*
X71378571Y-83114285D02*
X71307142Y-83257142D01*
X71235714Y-83328571D01*
X71092857Y-83400000D01*
X70664285Y-83400000D01*
X70521428Y-83328571D01*
X70450000Y-83257142D01*
X70378571Y-83114285D01*
X70378571Y-82900000D01*
X70450000Y-82757142D01*
X70521428Y-82685714D01*
X70664285Y-82614285D01*
X71092857Y-82614285D01*
X71235714Y-82685714D01*
X71307142Y-82757142D01*
X71378571Y-82900000D01*
X71378571Y-83114285D01*
X71378571Y-81757142D02*
X71307142Y-81900000D01*
X71164285Y-81971428D01*
X69878571Y-81971428D01*
X71378571Y-80542857D02*
X70592857Y-80542857D01*
X70450000Y-80614285D01*
X70378571Y-80757142D01*
X70378571Y-81042857D01*
X70450000Y-81185714D01*
X71307142Y-80542857D02*
X71378571Y-80685714D01*
X71378571Y-81042857D01*
X71307142Y-81185714D01*
X71164285Y-81257142D01*
X71021428Y-81257142D01*
X70878571Y-81185714D01*
X70807142Y-81042857D01*
X70807142Y-80685714D01*
X70735714Y-80542857D01*
X71378571Y-79828571D02*
X70378571Y-79828571D01*
X70664285Y-79828571D02*
X70521428Y-79757142D01*
X70450000Y-79685714D01*
X70378571Y-79542857D01*
X70378571Y-79400000D01*
X70378571Y-77757142D02*
X70807142Y-78900000D01*
X71235714Y-77757142D01*
X70378571Y-106478571D02*
X70807142Y-107621428D01*
X71235714Y-106478571D01*
X69878571Y-105978571D02*
X69878571Y-105121428D01*
X71378571Y-105550000D02*
X69878571Y-105550000D01*
X71378571Y-104407142D02*
X71307142Y-104550000D01*
X71235714Y-104621428D01*
X71092857Y-104692857D01*
X70664285Y-104692857D01*
X70521428Y-104621428D01*
X70450000Y-104550000D01*
X70378571Y-104407142D01*
X70378571Y-104192857D01*
X70450000Y-104050000D01*
X70521428Y-103978571D01*
X70664285Y-103907142D01*
X71092857Y-103907142D01*
X71235714Y-103978571D01*
X71307142Y-104050000D01*
X71378571Y-104192857D01*
X71378571Y-104407142D01*
X70592857Y-102121428D02*
X70592857Y-101621428D01*
X71378571Y-101407142D02*
X71378571Y-102121428D01*
X69878571Y-102121428D01*
X69878571Y-101407142D01*
X71307142Y-100835714D02*
X71378571Y-100621428D01*
X71378571Y-100264285D01*
X71307142Y-100121428D01*
X71235714Y-100050000D01*
X71092857Y-99978571D01*
X70950000Y-99978571D01*
X70807142Y-100050000D01*
X70735714Y-100121428D01*
X70664285Y-100264285D01*
X70592857Y-100550000D01*
X70521428Y-100692857D01*
X70450000Y-100764285D01*
X70307142Y-100835714D01*
X70164285Y-100835714D01*
X70021428Y-100764285D01*
X69950000Y-100692857D01*
X69878571Y-100550000D01*
X69878571Y-100192857D01*
X69950000Y-99978571D01*
X71235714Y-98478571D02*
X71307142Y-98550000D01*
X71378571Y-98764285D01*
X71378571Y-98907142D01*
X71307142Y-99121428D01*
X71164285Y-99264285D01*
X71021428Y-99335714D01*
X70735714Y-99407142D01*
X70521428Y-99407142D01*
X70235714Y-99335714D01*
X70092857Y-99264285D01*
X69950000Y-99121428D01*
X69878571Y-98907142D01*
X69878571Y-98764285D01*
X69950000Y-98550000D01*
X70021428Y-98478571D01*
X71235714Y-97835714D02*
X71307142Y-97764285D01*
X71378571Y-97835714D01*
X71307142Y-97907142D01*
X71235714Y-97835714D01*
X71378571Y-97835714D01*
X70807142Y-97835714D02*
X69950000Y-97907142D01*
X69878571Y-97835714D01*
X69950000Y-97764285D01*
X70807142Y-97835714D01*
X69878571Y-97835714D01*
X70378571Y-97121428D02*
X70807142Y-95978571D01*
X71235714Y-97121428D01*
X81450000Y-106942857D02*
X81378571Y-107085714D01*
X81378571Y-107300000D01*
X81450000Y-107514285D01*
X81592857Y-107657142D01*
X81735714Y-107728571D01*
X82021428Y-107800000D01*
X82235714Y-107800000D01*
X82521428Y-107728571D01*
X82664285Y-107657142D01*
X82807142Y-107514285D01*
X82878571Y-107300000D01*
X82878571Y-107157142D01*
X82807142Y-106942857D01*
X82735714Y-106871428D01*
X82235714Y-106871428D01*
X82235714Y-107157142D01*
X82878571Y-106228571D02*
X81378571Y-106228571D01*
X82878571Y-105371428D01*
X81378571Y-105371428D01*
X82878571Y-104657142D02*
X81378571Y-104657142D01*
X81378571Y-104300000D01*
X81450000Y-104085714D01*
X81592857Y-103942857D01*
X81735714Y-103871428D01*
X82021428Y-103800000D01*
X82235714Y-103800000D01*
X82521428Y-103871428D01*
X82664285Y-103942857D01*
X82807142Y-104085714D01*
X82878571Y-104300000D01*
X82878571Y-104657142D01*
X82307142Y-100642857D02*
X82307142Y-99500000D01*
X82878571Y-100071428D02*
X81735714Y-100071428D01*
X82878571Y-98000000D02*
X82878571Y-98857142D01*
X82878571Y-98428571D02*
X81378571Y-98428571D01*
X81592857Y-98571428D01*
X81735714Y-98714285D01*
X81807142Y-98857142D01*
X81521428Y-97428571D02*
X81450000Y-97357142D01*
X81378571Y-97214285D01*
X81378571Y-96857142D01*
X81450000Y-96714285D01*
X81521428Y-96642857D01*
X81664285Y-96571428D01*
X81807142Y-96571428D01*
X82021428Y-96642857D01*
X82878571Y-97500000D01*
X82878571Y-96571428D01*
X81378571Y-96142857D02*
X82878571Y-95642857D01*
X81378571Y-95142857D01*
X81907142Y-83442857D02*
X81907142Y-82300000D01*
X82478571Y-82871428D02*
X81335714Y-82871428D01*
X82478571Y-80800000D02*
X82478571Y-81657142D01*
X82478571Y-81228571D02*
X80978571Y-81228571D01*
X81192857Y-81371428D01*
X81335714Y-81514285D01*
X81407142Y-81657142D01*
X81121428Y-80228571D02*
X81050000Y-80157142D01*
X80978571Y-80014285D01*
X80978571Y-79657142D01*
X81050000Y-79514285D01*
X81121428Y-79442857D01*
X81264285Y-79371428D01*
X81407142Y-79371428D01*
X81621428Y-79442857D01*
X82478571Y-80300000D01*
X82478571Y-79371428D01*
X80978571Y-78942857D02*
X82478571Y-78442857D01*
X80978571Y-77942857D01*
X81150000Y-89242857D02*
X81078571Y-89385714D01*
X81078571Y-89600000D01*
X81150000Y-89814285D01*
X81292857Y-89957142D01*
X81435714Y-90028571D01*
X81721428Y-90100000D01*
X81935714Y-90100000D01*
X82221428Y-90028571D01*
X82364285Y-89957142D01*
X82507142Y-89814285D01*
X82578571Y-89600000D01*
X82578571Y-89457142D01*
X82507142Y-89242857D01*
X82435714Y-89171428D01*
X81935714Y-89171428D01*
X81935714Y-89457142D01*
X82578571Y-88528571D02*
X81078571Y-88528571D01*
X82578571Y-87671428D01*
X81078571Y-87671428D01*
X82578571Y-86957142D02*
X81078571Y-86957142D01*
X81078571Y-86600000D01*
X81150000Y-86385714D01*
X81292857Y-86242857D01*
X81435714Y-86171428D01*
X81721428Y-86100000D01*
X81935714Y-86100000D01*
X82221428Y-86171428D01*
X82364285Y-86242857D01*
X82507142Y-86385714D01*
X82578571Y-86600000D01*
X82578571Y-86957142D01*
X112592857Y-125178571D02*
X111735714Y-125178571D01*
X112164285Y-125178571D02*
X112164285Y-123678571D01*
X112021428Y-123892857D01*
X111878571Y-124035714D01*
X111735714Y-124107142D01*
X113521428Y-123678571D02*
X113664285Y-123678571D01*
X113807142Y-123750000D01*
X113878571Y-123821428D01*
X113950000Y-123964285D01*
X114021428Y-124250000D01*
X114021428Y-124607142D01*
X113950000Y-124892857D01*
X113878571Y-125035714D01*
X113807142Y-125107142D01*
X113664285Y-125178571D01*
X113521428Y-125178571D01*
X113378571Y-125107142D01*
X113307142Y-125035714D01*
X113235714Y-124892857D01*
X113164285Y-124607142D01*
X113164285Y-124250000D01*
X113235714Y-123964285D01*
X113307142Y-123821428D01*
X113378571Y-123750000D01*
X113521428Y-123678571D01*
X114950000Y-123678571D02*
X115092857Y-123678571D01*
X115235714Y-123750000D01*
X115307142Y-123821428D01*
X115378571Y-123964285D01*
X115450000Y-124250000D01*
X115450000Y-124607142D01*
X115378571Y-124892857D01*
X115307142Y-125035714D01*
X115235714Y-125107142D01*
X115092857Y-125178571D01*
X114950000Y-125178571D01*
X114807142Y-125107142D01*
X114735714Y-125035714D01*
X114664285Y-124892857D01*
X114592857Y-124607142D01*
X114592857Y-124250000D01*
X114664285Y-123964285D01*
X114735714Y-123821428D01*
X114807142Y-123750000D01*
X114950000Y-123678571D01*
X116092857Y-125178571D02*
X116092857Y-123678571D01*
X116235714Y-124607142D02*
X116664285Y-125178571D01*
X116664285Y-124178571D02*
X116092857Y-124750000D01*
X113771428Y-120778571D02*
X112914285Y-120778571D01*
X113342857Y-120778571D02*
X113342857Y-119278571D01*
X113200000Y-119492857D01*
X113057142Y-119635714D01*
X112914285Y-119707142D01*
X114414285Y-120778571D02*
X114414285Y-119278571D01*
X114914285Y-120350000D01*
X115414285Y-119278571D01*
X115414285Y-120778571D01*
D10*
G04 #@! TO.C,J1*
X80150000Y-99300000D02*
X80150000Y-94600000D01*
X80150000Y-94600000D02*
X78550000Y-94600000D01*
X72150000Y-99000000D02*
X72150000Y-94800000D01*
X72150000Y-94800000D02*
X72150000Y-94700000D01*
X72150000Y-94700000D02*
X72150000Y-94600000D01*
X72150000Y-94600000D02*
X76150000Y-94600000D01*
X80150000Y-108900000D02*
X77450000Y-110900000D01*
X72150000Y-108900000D02*
X74850000Y-110900000D01*
X76150000Y-110900000D02*
X77400000Y-110900000D01*
X76150000Y-110900000D02*
X74900000Y-110900000D01*
X80150000Y-106500000D02*
X80150000Y-108900000D01*
X80150000Y-103500000D02*
X80150000Y-106500000D01*
X72150000Y-106500000D02*
X72150000Y-108900000D01*
X72150000Y-103400000D02*
X72150000Y-106500000D01*
X76050000Y-110900000D02*
X76350000Y-110900000D01*
X76150000Y-94600000D02*
X78550000Y-94600000D01*
X72150000Y-99000000D02*
X72150000Y-103400000D01*
X80150000Y-99300000D02*
X80150000Y-103500000D01*
X80150000Y-81900000D02*
X80150000Y-77200000D01*
X80150000Y-77200000D02*
X78550000Y-77200000D01*
X72150000Y-81600000D02*
X72150000Y-77400000D01*
X72150000Y-77400000D02*
X72150000Y-77300000D01*
X72150000Y-77300000D02*
X72150000Y-77200000D01*
X72150000Y-77200000D02*
X76150000Y-77200000D01*
X80150000Y-91500000D02*
X77450000Y-93500000D01*
X72150000Y-91500000D02*
X74850000Y-93500000D01*
X76150000Y-93500000D02*
X77400000Y-93500000D01*
X76150000Y-93500000D02*
X74900000Y-93500000D01*
X80150000Y-89100000D02*
X80150000Y-91500000D01*
X80150000Y-86100000D02*
X80150000Y-89100000D01*
X72150000Y-89100000D02*
X72150000Y-91500000D01*
X72150000Y-86000000D02*
X72150000Y-89100000D01*
X76050000Y-93500000D02*
X76350000Y-93500000D01*
X76150000Y-77200000D02*
X78550000Y-77200000D01*
X72150000Y-81600000D02*
X72150000Y-86000000D01*
X80150000Y-81900000D02*
X80150000Y-86100000D01*
D12*
G04 #@! TO.C,J3*
X71840000Y-114440000D02*
X71840000Y-120410000D01*
X71840000Y-120410000D02*
X79460000Y-120410000D01*
X79460000Y-120410000D02*
X79460000Y-114440000D01*
X79460000Y-114440000D02*
X71840000Y-114440000D01*
X75150000Y-114450000D02*
X75150000Y-115200000D01*
X75150000Y-115200000D02*
X76150000Y-115200000D01*
X76150000Y-115200000D02*
X76150000Y-114450000D01*
X76150000Y-114450000D02*
X75150000Y-114450000D01*
X71850000Y-114450000D02*
X71850000Y-115200000D01*
X71850000Y-115200000D02*
X73650000Y-115200000D01*
X73650000Y-115200000D02*
X73650000Y-114450000D01*
X73650000Y-114450000D02*
X71850000Y-114450000D01*
X77650000Y-114450000D02*
X77650000Y-115200000D01*
X77650000Y-115200000D02*
X79450000Y-115200000D01*
X79450000Y-115200000D02*
X79450000Y-114450000D01*
X79450000Y-114450000D02*
X77650000Y-114450000D01*
X71850000Y-116700000D02*
X72600000Y-116700000D01*
X72600000Y-116700000D02*
X72600000Y-119650000D01*
X72600000Y-119650000D02*
X75650000Y-119650000D01*
X79450000Y-116700000D02*
X78700000Y-116700000D01*
X78700000Y-116700000D02*
X78700000Y-119650000D01*
X78700000Y-119650000D02*
X75650000Y-119650000D01*
X72800000Y-114150000D02*
X71550000Y-114150000D01*
X71550000Y-114150000D02*
X71550000Y-115400000D01*
G04 #@! TO.C,DC-DC_5V*
X88900000Y-147320000D02*
X88900000Y-146050000D01*
X90170000Y-147320000D02*
X88900000Y-147320000D01*
X98170000Y-145007071D02*
X98170000Y-144610000D01*
X97410000Y-145007071D02*
X97410000Y-144610000D01*
X98170000Y-135950000D02*
X98170000Y-141950000D01*
X97410000Y-135950000D02*
X98170000Y-135950000D01*
X97410000Y-141950000D02*
X97410000Y-135950000D01*
X96520000Y-144610000D02*
X96520000Y-141950000D01*
X95630000Y-145007071D02*
X95630000Y-144610000D01*
X94870000Y-145007071D02*
X94870000Y-144610000D01*
X95630000Y-135950000D02*
X95630000Y-141950000D01*
X94870000Y-135950000D02*
X95630000Y-135950000D01*
X94870000Y-141950000D02*
X94870000Y-135950000D01*
X93980000Y-144610000D02*
X93980000Y-141950000D01*
X93090000Y-145007071D02*
X93090000Y-144610000D01*
X92330000Y-145007071D02*
X92330000Y-144610000D01*
X93090000Y-135950000D02*
X93090000Y-141950000D01*
X92330000Y-135950000D02*
X93090000Y-135950000D01*
X92330000Y-141950000D02*
X92330000Y-135950000D01*
X91440000Y-144610000D02*
X91440000Y-141950000D01*
X90550000Y-144940000D02*
X90550000Y-144610000D01*
X89790000Y-144940000D02*
X89790000Y-144610000D01*
X90450000Y-141950000D02*
X90450000Y-135950000D01*
X90330000Y-141950000D02*
X90330000Y-135950000D01*
X90210000Y-141950000D02*
X90210000Y-135950000D01*
X90090000Y-141950000D02*
X90090000Y-135950000D01*
X89970000Y-141950000D02*
X89970000Y-135950000D01*
X89850000Y-141950000D02*
X89850000Y-135950000D01*
X90550000Y-135950000D02*
X90550000Y-141950000D01*
X89790000Y-135950000D02*
X90550000Y-135950000D01*
X89790000Y-141950000D02*
X89790000Y-135950000D01*
X88840000Y-141950000D02*
X88840000Y-144610000D01*
X99120000Y-141950000D02*
X88840000Y-141950000D01*
X99120000Y-144610000D02*
X99120000Y-141950000D01*
X88840000Y-144610000D02*
X99120000Y-144610000D01*
G04 #@! TO.C,Arduino Nano*
X87630000Y-125730000D02*
X87630000Y-123190000D01*
X87630000Y-123190000D02*
X84960000Y-123190000D01*
X84960000Y-125730000D02*
X84960000Y-163960000D01*
X84960000Y-120520000D02*
X84960000Y-123190000D01*
X100330000Y-123190000D02*
X103000000Y-123190000D01*
X100330000Y-123190000D02*
X100330000Y-161290000D01*
X100330000Y-161290000D02*
X103000000Y-161290000D01*
X87630000Y-125730000D02*
X84960000Y-125730000D01*
X87630000Y-125730000D02*
X87630000Y-161290000D01*
X87630000Y-161290000D02*
X84960000Y-161290000D01*
X84960000Y-163960000D02*
X103000000Y-163960000D01*
X103000000Y-163960000D02*
X103000000Y-120520000D01*
X103000000Y-120520000D02*
X84960000Y-120520000D01*
G04 #@! TO.C,C1*
X103040000Y-84455000D02*
G75*
G03X103040000Y-84455000I-9120000J0D01*
G01*
X93920000Y-75374000D02*
X93920000Y-93536000D01*
X93960000Y-75375000D02*
X93960000Y-93535000D01*
X94000000Y-75375000D02*
X94000000Y-93535000D01*
X94040000Y-75375000D02*
X94040000Y-93535000D01*
X94080000Y-75376000D02*
X94080000Y-93534000D01*
X94120000Y-75377000D02*
X94120000Y-93533000D01*
X94160000Y-75378000D02*
X94160000Y-93532000D01*
X94200000Y-75379000D02*
X94200000Y-93531000D01*
X94240000Y-75380000D02*
X94240000Y-93530000D01*
X94280000Y-75382000D02*
X94280000Y-93528000D01*
X94320000Y-75383000D02*
X94320000Y-93527000D01*
X94360000Y-75385000D02*
X94360000Y-93525000D01*
X94400000Y-75387000D02*
X94400000Y-93523000D01*
X94440000Y-75389000D02*
X94440000Y-93521000D01*
X94480000Y-75392000D02*
X94480000Y-93518000D01*
X94520000Y-75394000D02*
X94520000Y-93516000D01*
X94560000Y-75397000D02*
X94560000Y-93513000D01*
X94600000Y-75400000D02*
X94600000Y-93510000D01*
X94641000Y-75403000D02*
X94641000Y-93507000D01*
X94681000Y-75406000D02*
X94681000Y-93504000D01*
X94721000Y-75410000D02*
X94721000Y-93500000D01*
X94761000Y-75413000D02*
X94761000Y-93497000D01*
X94801000Y-75417000D02*
X94801000Y-93493000D01*
X94841000Y-75421000D02*
X94841000Y-93489000D01*
X94881000Y-75425000D02*
X94881000Y-93485000D01*
X94921000Y-75429000D02*
X94921000Y-93481000D01*
X94961000Y-75434000D02*
X94961000Y-93476000D01*
X95001000Y-75439000D02*
X95001000Y-93471000D01*
X95041000Y-75444000D02*
X95041000Y-93466000D01*
X95081000Y-75449000D02*
X95081000Y-93461000D01*
X95121000Y-75454000D02*
X95121000Y-93456000D01*
X95161000Y-75459000D02*
X95161000Y-93451000D01*
X95201000Y-75465000D02*
X95201000Y-93445000D01*
X95241000Y-75471000D02*
X95241000Y-93439000D01*
X95281000Y-75476000D02*
X95281000Y-93434000D01*
X95321000Y-75483000D02*
X95321000Y-93427000D01*
X95361000Y-75489000D02*
X95361000Y-93421000D01*
X95401000Y-75495000D02*
X95401000Y-93415000D01*
X95441000Y-75502000D02*
X95441000Y-93408000D01*
X95481000Y-75509000D02*
X95481000Y-93401000D01*
X95521000Y-75516000D02*
X95521000Y-93394000D01*
X95561000Y-75523000D02*
X95561000Y-93387000D01*
X95601000Y-75531000D02*
X95601000Y-93379000D01*
X95641000Y-75538000D02*
X95641000Y-93372000D01*
X95681000Y-75546000D02*
X95681000Y-93364000D01*
X95721000Y-75554000D02*
X95721000Y-93356000D01*
X95761000Y-75562000D02*
X95761000Y-93348000D01*
X95801000Y-75570000D02*
X95801000Y-93340000D01*
X95841000Y-75579000D02*
X95841000Y-93331000D01*
X95881000Y-75588000D02*
X95881000Y-93322000D01*
X95921000Y-75597000D02*
X95921000Y-93313000D01*
X95961000Y-75606000D02*
X95961000Y-93304000D01*
X96001000Y-75615000D02*
X96001000Y-93295000D01*
X96041000Y-75624000D02*
X96041000Y-93286000D01*
X96081000Y-75634000D02*
X96081000Y-93276000D01*
X96121000Y-75644000D02*
X96121000Y-93266000D01*
X96161000Y-75654000D02*
X96161000Y-93256000D01*
X96201000Y-75664000D02*
X96201000Y-93246000D01*
X96241000Y-75675000D02*
X96241000Y-83015000D01*
X96241000Y-85895000D02*
X96241000Y-93235000D01*
X96281000Y-75685000D02*
X96281000Y-83015000D01*
X96281000Y-85895000D02*
X96281000Y-93225000D01*
X96321000Y-75696000D02*
X96321000Y-83015000D01*
X96321000Y-85895000D02*
X96321000Y-93214000D01*
X96361000Y-75707000D02*
X96361000Y-83015000D01*
X96361000Y-85895000D02*
X96361000Y-93203000D01*
X96401000Y-75718000D02*
X96401000Y-83015000D01*
X96401000Y-85895000D02*
X96401000Y-93192000D01*
X96441000Y-75730000D02*
X96441000Y-83015000D01*
X96441000Y-85895000D02*
X96441000Y-93180000D01*
X96481000Y-75741000D02*
X96481000Y-83015000D01*
X96481000Y-85895000D02*
X96481000Y-93169000D01*
X96521000Y-75753000D02*
X96521000Y-83015000D01*
X96521000Y-85895000D02*
X96521000Y-93157000D01*
X96561000Y-75765000D02*
X96561000Y-83015000D01*
X96561000Y-85895000D02*
X96561000Y-93145000D01*
X96601000Y-75777000D02*
X96601000Y-83015000D01*
X96601000Y-85895000D02*
X96601000Y-93133000D01*
X96641000Y-75790000D02*
X96641000Y-83015000D01*
X96641000Y-85895000D02*
X96641000Y-93120000D01*
X96681000Y-75802000D02*
X96681000Y-83015000D01*
X96681000Y-85895000D02*
X96681000Y-93108000D01*
X96721000Y-75815000D02*
X96721000Y-83015000D01*
X96721000Y-85895000D02*
X96721000Y-93095000D01*
X96761000Y-75828000D02*
X96761000Y-83015000D01*
X96761000Y-85895000D02*
X96761000Y-93082000D01*
X96801000Y-75841000D02*
X96801000Y-83015000D01*
X96801000Y-85895000D02*
X96801000Y-93069000D01*
X96841000Y-75855000D02*
X96841000Y-83015000D01*
X96841000Y-85895000D02*
X96841000Y-93055000D01*
X96881000Y-75868000D02*
X96881000Y-83015000D01*
X96881000Y-85895000D02*
X96881000Y-93042000D01*
X96921000Y-75882000D02*
X96921000Y-83015000D01*
X96921000Y-85895000D02*
X96921000Y-93028000D01*
X96961000Y-75896000D02*
X96961000Y-83015000D01*
X96961000Y-85895000D02*
X96961000Y-93014000D01*
X97001000Y-75910000D02*
X97001000Y-83015000D01*
X97001000Y-85895000D02*
X97001000Y-93000000D01*
X97041000Y-75925000D02*
X97041000Y-83015000D01*
X97041000Y-85895000D02*
X97041000Y-92985000D01*
X97081000Y-75939000D02*
X97081000Y-83015000D01*
X97081000Y-85895000D02*
X97081000Y-92971000D01*
X97121000Y-75954000D02*
X97121000Y-83015000D01*
X97121000Y-85895000D02*
X97121000Y-92956000D01*
X97161000Y-75969000D02*
X97161000Y-83015000D01*
X97161000Y-85895000D02*
X97161000Y-92941000D01*
X97201000Y-75985000D02*
X97201000Y-83015000D01*
X97201000Y-85895000D02*
X97201000Y-92925000D01*
X97241000Y-76000000D02*
X97241000Y-83015000D01*
X97241000Y-85895000D02*
X97241000Y-92910000D01*
X97281000Y-76016000D02*
X97281000Y-83015000D01*
X97281000Y-85895000D02*
X97281000Y-92894000D01*
X97321000Y-76032000D02*
X97321000Y-83015000D01*
X97321000Y-85895000D02*
X97321000Y-92878000D01*
X97361000Y-76048000D02*
X97361000Y-83015000D01*
X97361000Y-85895000D02*
X97361000Y-92862000D01*
X97401000Y-76065000D02*
X97401000Y-83015000D01*
X97401000Y-85895000D02*
X97401000Y-92845000D01*
X97441000Y-76081000D02*
X97441000Y-83015000D01*
X97441000Y-85895000D02*
X97441000Y-92829000D01*
X97481000Y-76098000D02*
X97481000Y-83015000D01*
X97481000Y-85895000D02*
X97481000Y-92812000D01*
X97521000Y-76115000D02*
X97521000Y-83015000D01*
X97521000Y-85895000D02*
X97521000Y-92795000D01*
X97561000Y-76132000D02*
X97561000Y-83015000D01*
X97561000Y-85895000D02*
X97561000Y-92778000D01*
X97601000Y-76150000D02*
X97601000Y-83015000D01*
X97601000Y-85895000D02*
X97601000Y-92760000D01*
X97641000Y-76168000D02*
X97641000Y-83015000D01*
X97641000Y-85895000D02*
X97641000Y-92742000D01*
X97681000Y-76186000D02*
X97681000Y-83015000D01*
X97681000Y-85895000D02*
X97681000Y-92724000D01*
X97721000Y-76204000D02*
X97721000Y-83015000D01*
X97721000Y-85895000D02*
X97721000Y-92706000D01*
X97761000Y-76222000D02*
X97761000Y-83015000D01*
X97761000Y-85895000D02*
X97761000Y-92688000D01*
X97801000Y-76241000D02*
X97801000Y-83015000D01*
X97801000Y-85895000D02*
X97801000Y-92669000D01*
X97841000Y-76260000D02*
X97841000Y-83015000D01*
X97841000Y-85895000D02*
X97841000Y-92650000D01*
X97881000Y-76279000D02*
X97881000Y-83015000D01*
X97881000Y-85895000D02*
X97881000Y-92631000D01*
X97921000Y-76299000D02*
X97921000Y-83015000D01*
X97921000Y-85895000D02*
X97921000Y-92611000D01*
X97961000Y-76318000D02*
X97961000Y-83015000D01*
X97961000Y-85895000D02*
X97961000Y-92592000D01*
X98001000Y-76338000D02*
X98001000Y-83015000D01*
X98001000Y-85895000D02*
X98001000Y-92572000D01*
X98041000Y-76358000D02*
X98041000Y-83015000D01*
X98041000Y-85895000D02*
X98041000Y-92552000D01*
X98081000Y-76379000D02*
X98081000Y-83015000D01*
X98081000Y-85895000D02*
X98081000Y-92531000D01*
X98121000Y-76399000D02*
X98121000Y-83015000D01*
X98121000Y-85895000D02*
X98121000Y-92511000D01*
X98161000Y-76420000D02*
X98161000Y-83015000D01*
X98161000Y-85895000D02*
X98161000Y-92490000D01*
X98201000Y-76441000D02*
X98201000Y-83015000D01*
X98201000Y-85895000D02*
X98201000Y-92469000D01*
X98241000Y-76463000D02*
X98241000Y-83015000D01*
X98241000Y-85895000D02*
X98241000Y-92447000D01*
X98281000Y-76484000D02*
X98281000Y-83015000D01*
X98281000Y-85895000D02*
X98281000Y-92426000D01*
X98321000Y-76506000D02*
X98321000Y-83015000D01*
X98321000Y-85895000D02*
X98321000Y-92404000D01*
X98361000Y-76528000D02*
X98361000Y-83015000D01*
X98361000Y-85895000D02*
X98361000Y-92382000D01*
X98401000Y-76551000D02*
X98401000Y-83015000D01*
X98401000Y-85895000D02*
X98401000Y-92359000D01*
X98441000Y-76573000D02*
X98441000Y-83015000D01*
X98441000Y-85895000D02*
X98441000Y-92337000D01*
X98481000Y-76596000D02*
X98481000Y-83015000D01*
X98481000Y-85895000D02*
X98481000Y-92314000D01*
X98521000Y-76620000D02*
X98521000Y-83015000D01*
X98521000Y-85895000D02*
X98521000Y-92290000D01*
X98561000Y-76643000D02*
X98561000Y-83015000D01*
X98561000Y-85895000D02*
X98561000Y-92267000D01*
X98601000Y-76667000D02*
X98601000Y-83015000D01*
X98601000Y-85895000D02*
X98601000Y-92243000D01*
X98641000Y-76691000D02*
X98641000Y-83015000D01*
X98641000Y-85895000D02*
X98641000Y-92219000D01*
X98681000Y-76715000D02*
X98681000Y-83015000D01*
X98681000Y-85895000D02*
X98681000Y-92195000D01*
X98721000Y-76740000D02*
X98721000Y-83015000D01*
X98721000Y-85895000D02*
X98721000Y-92170000D01*
X98761000Y-76765000D02*
X98761000Y-83015000D01*
X98761000Y-85895000D02*
X98761000Y-92145000D01*
X98801000Y-76790000D02*
X98801000Y-83015000D01*
X98801000Y-85895000D02*
X98801000Y-92120000D01*
X98841000Y-76815000D02*
X98841000Y-83015000D01*
X98841000Y-85895000D02*
X98841000Y-92095000D01*
X98881000Y-76841000D02*
X98881000Y-83015000D01*
X98881000Y-85895000D02*
X98881000Y-92069000D01*
X98921000Y-76867000D02*
X98921000Y-83015000D01*
X98921000Y-85895000D02*
X98921000Y-92043000D01*
X98961000Y-76894000D02*
X98961000Y-83015000D01*
X98961000Y-85895000D02*
X98961000Y-92016000D01*
X99001000Y-76920000D02*
X99001000Y-83015000D01*
X99001000Y-85895000D02*
X99001000Y-91990000D01*
X99041000Y-76947000D02*
X99041000Y-83015000D01*
X99041000Y-85895000D02*
X99041000Y-91963000D01*
X99081000Y-76975000D02*
X99081000Y-83015000D01*
X99081000Y-85895000D02*
X99081000Y-91935000D01*
X99121000Y-77002000D02*
X99121000Y-91908000D01*
X99161000Y-77030000D02*
X99161000Y-91880000D01*
X99201000Y-77058000D02*
X99201000Y-91852000D01*
X99241000Y-77087000D02*
X99241000Y-91823000D01*
X99281000Y-77116000D02*
X99281000Y-91794000D01*
X99321000Y-77145000D02*
X99321000Y-91765000D01*
X99361000Y-77175000D02*
X99361000Y-91735000D01*
X99401000Y-77205000D02*
X99401000Y-91705000D01*
X99441000Y-77235000D02*
X99441000Y-91675000D01*
X99481000Y-77265000D02*
X99481000Y-91645000D01*
X99521000Y-77296000D02*
X99521000Y-91614000D01*
X99561000Y-77328000D02*
X99561000Y-91582000D01*
X99601000Y-77359000D02*
X99601000Y-91551000D01*
X99641000Y-77391000D02*
X99641000Y-91519000D01*
X99681000Y-77424000D02*
X99681000Y-91486000D01*
X99721000Y-77456000D02*
X99721000Y-91454000D01*
X99761000Y-77490000D02*
X99761000Y-91420000D01*
X99801000Y-77523000D02*
X99801000Y-91387000D01*
X99841000Y-77557000D02*
X99841000Y-91353000D01*
X99881000Y-77591000D02*
X99881000Y-91319000D01*
X99921000Y-77626000D02*
X99921000Y-91284000D01*
X99961000Y-77661000D02*
X99961000Y-91249000D01*
X100001000Y-77697000D02*
X100001000Y-91213000D01*
X100041000Y-77733000D02*
X100041000Y-91177000D01*
X100081000Y-77769000D02*
X100081000Y-91141000D01*
X100121000Y-77806000D02*
X100121000Y-91104000D01*
X100161000Y-77843000D02*
X100161000Y-91067000D01*
X100201000Y-77881000D02*
X100201000Y-91029000D01*
X100241000Y-77919000D02*
X100241000Y-90991000D01*
X100281000Y-77958000D02*
X100281000Y-90952000D01*
X100321000Y-77997000D02*
X100321000Y-90913000D01*
X100361000Y-78037000D02*
X100361000Y-90873000D01*
X100401000Y-78077000D02*
X100401000Y-90833000D01*
X100441000Y-78118000D02*
X100441000Y-90792000D01*
X100481000Y-78159000D02*
X100481000Y-90751000D01*
X100521000Y-78201000D02*
X100521000Y-90709000D01*
X100561000Y-78243000D02*
X100561000Y-90667000D01*
X100601000Y-78285000D02*
X100601000Y-90625000D01*
X100641000Y-78329000D02*
X100641000Y-90581000D01*
X100681000Y-78373000D02*
X100681000Y-90537000D01*
X100721000Y-78417000D02*
X100721000Y-90493000D01*
X100761000Y-78462000D02*
X100761000Y-90448000D01*
X100801000Y-78508000D02*
X100801000Y-90402000D01*
X100841000Y-78554000D02*
X100841000Y-90356000D01*
X100881000Y-78601000D02*
X100881000Y-90309000D01*
X100921000Y-78649000D02*
X100921000Y-90261000D01*
X100961000Y-78697000D02*
X100961000Y-90213000D01*
X101001000Y-78746000D02*
X101001000Y-90164000D01*
X101041000Y-78795000D02*
X101041000Y-90115000D01*
X101081000Y-78846000D02*
X101081000Y-90064000D01*
X101121000Y-78897000D02*
X101121000Y-90013000D01*
X101161000Y-78949000D02*
X101161000Y-89961000D01*
X101201000Y-79001000D02*
X101201000Y-89909000D01*
X101241000Y-79055000D02*
X101241000Y-89855000D01*
X101281000Y-79109000D02*
X101281000Y-89801000D01*
X101321000Y-79164000D02*
X101321000Y-89746000D01*
X101361000Y-79220000D02*
X101361000Y-89690000D01*
X101401000Y-79277000D02*
X101401000Y-89633000D01*
X101441000Y-79335000D02*
X101441000Y-89575000D01*
X101481000Y-79393000D02*
X101481000Y-89517000D01*
X101521000Y-79453000D02*
X101521000Y-89457000D01*
X101561000Y-79514000D02*
X101561000Y-89396000D01*
X101601000Y-79576000D02*
X101601000Y-89334000D01*
X101641000Y-79639000D02*
X101641000Y-89271000D01*
X101681000Y-79703000D02*
X101681000Y-89207000D01*
X101721000Y-79769000D02*
X101721000Y-89141000D01*
X101761000Y-79835000D02*
X101761000Y-89075000D01*
X101801000Y-79903000D02*
X101801000Y-89007000D01*
X101841000Y-79973000D02*
X101841000Y-88937000D01*
X101881000Y-80043000D02*
X101881000Y-88867000D01*
X101921000Y-80116000D02*
X101921000Y-88794000D01*
X101961000Y-80190000D02*
X101961000Y-88720000D01*
X102001000Y-80265000D02*
X102001000Y-88645000D01*
X102041000Y-80342000D02*
X102041000Y-88568000D01*
X102081000Y-80422000D02*
X102081000Y-88488000D01*
X102120000Y-80503000D02*
X102120000Y-88407000D01*
X102160000Y-80586000D02*
X102160000Y-88324000D01*
X102200000Y-80671000D02*
X102200000Y-88239000D01*
X102240000Y-80759000D02*
X102240000Y-88151000D01*
X102280000Y-80850000D02*
X102280000Y-88060000D01*
X102320000Y-80943000D02*
X102320000Y-87967000D01*
X102360000Y-81039000D02*
X102360000Y-87871000D01*
X102400000Y-81138000D02*
X102400000Y-87772000D01*
X102440000Y-81241000D02*
X102440000Y-87669000D01*
X102480000Y-81348000D02*
X102480000Y-87562000D01*
X102520000Y-81459000D02*
X102520000Y-87451000D01*
X102560000Y-81575000D02*
X102560000Y-87335000D01*
X102600000Y-81696000D02*
X102600000Y-87214000D01*
X102640000Y-81823000D02*
X102640000Y-87087000D01*
X102680000Y-81957000D02*
X102680000Y-86953000D01*
X102720000Y-82100000D02*
X102720000Y-86810000D01*
X102760000Y-82252000D02*
X102760000Y-86658000D01*
X102800000Y-82416000D02*
X102800000Y-86494000D01*
X102840000Y-82595000D02*
X102840000Y-86315000D01*
X102880000Y-82794000D02*
X102880000Y-86116000D01*
X102920000Y-83020000D02*
X102920000Y-85890000D01*
X102960000Y-83289000D02*
X102960000Y-85621000D01*
X103000000Y-83641000D02*
X103000000Y-85269000D01*
X103040000Y-84415000D02*
X103040000Y-84495000D01*
X84160560Y-79340000D02*
X85960560Y-79340000D01*
X85060560Y-78440000D02*
X85060560Y-80240000D01*
G04 #@! TO.C,C2*
X104745560Y-78440000D02*
X104745560Y-80240000D01*
X103845560Y-79340000D02*
X105645560Y-79340000D01*
X122725000Y-84415000D02*
X122725000Y-84495000D01*
X122685000Y-83641000D02*
X122685000Y-85269000D01*
X122645000Y-83289000D02*
X122645000Y-85621000D01*
X122605000Y-83020000D02*
X122605000Y-85890000D01*
X122565000Y-82794000D02*
X122565000Y-86116000D01*
X122525000Y-82595000D02*
X122525000Y-86315000D01*
X122485000Y-82416000D02*
X122485000Y-86494000D01*
X122445000Y-82252000D02*
X122445000Y-86658000D01*
X122405000Y-82100000D02*
X122405000Y-86810000D01*
X122365000Y-81957000D02*
X122365000Y-86953000D01*
X122325000Y-81823000D02*
X122325000Y-87087000D01*
X122285000Y-81696000D02*
X122285000Y-87214000D01*
X122245000Y-81575000D02*
X122245000Y-87335000D01*
X122205000Y-81459000D02*
X122205000Y-87451000D01*
X122165000Y-81348000D02*
X122165000Y-87562000D01*
X122125000Y-81241000D02*
X122125000Y-87669000D01*
X122085000Y-81138000D02*
X122085000Y-87772000D01*
X122045000Y-81039000D02*
X122045000Y-87871000D01*
X122005000Y-80943000D02*
X122005000Y-87967000D01*
X121965000Y-80850000D02*
X121965000Y-88060000D01*
X121925000Y-80759000D02*
X121925000Y-88151000D01*
X121885000Y-80671000D02*
X121885000Y-88239000D01*
X121845000Y-80586000D02*
X121845000Y-88324000D01*
X121805000Y-80503000D02*
X121805000Y-88407000D01*
X121766000Y-80422000D02*
X121766000Y-88488000D01*
X121726000Y-80342000D02*
X121726000Y-88568000D01*
X121686000Y-80265000D02*
X121686000Y-88645000D01*
X121646000Y-80190000D02*
X121646000Y-88720000D01*
X121606000Y-80116000D02*
X121606000Y-88794000D01*
X121566000Y-80043000D02*
X121566000Y-88867000D01*
X121526000Y-79973000D02*
X121526000Y-88937000D01*
X121486000Y-79903000D02*
X121486000Y-89007000D01*
X121446000Y-79835000D02*
X121446000Y-89075000D01*
X121406000Y-79769000D02*
X121406000Y-89141000D01*
X121366000Y-79703000D02*
X121366000Y-89207000D01*
X121326000Y-79639000D02*
X121326000Y-89271000D01*
X121286000Y-79576000D02*
X121286000Y-89334000D01*
X121246000Y-79514000D02*
X121246000Y-89396000D01*
X121206000Y-79453000D02*
X121206000Y-89457000D01*
X121166000Y-79393000D02*
X121166000Y-89517000D01*
X121126000Y-79335000D02*
X121126000Y-89575000D01*
X121086000Y-79277000D02*
X121086000Y-89633000D01*
X121046000Y-79220000D02*
X121046000Y-89690000D01*
X121006000Y-79164000D02*
X121006000Y-89746000D01*
X120966000Y-79109000D02*
X120966000Y-89801000D01*
X120926000Y-79055000D02*
X120926000Y-89855000D01*
X120886000Y-79001000D02*
X120886000Y-89909000D01*
X120846000Y-78949000D02*
X120846000Y-89961000D01*
X120806000Y-78897000D02*
X120806000Y-90013000D01*
X120766000Y-78846000D02*
X120766000Y-90064000D01*
X120726000Y-78795000D02*
X120726000Y-90115000D01*
X120686000Y-78746000D02*
X120686000Y-90164000D01*
X120646000Y-78697000D02*
X120646000Y-90213000D01*
X120606000Y-78649000D02*
X120606000Y-90261000D01*
X120566000Y-78601000D02*
X120566000Y-90309000D01*
X120526000Y-78554000D02*
X120526000Y-90356000D01*
X120486000Y-78508000D02*
X120486000Y-90402000D01*
X120446000Y-78462000D02*
X120446000Y-90448000D01*
X120406000Y-78417000D02*
X120406000Y-90493000D01*
X120366000Y-78373000D02*
X120366000Y-90537000D01*
X120326000Y-78329000D02*
X120326000Y-90581000D01*
X120286000Y-78285000D02*
X120286000Y-90625000D01*
X120246000Y-78243000D02*
X120246000Y-90667000D01*
X120206000Y-78201000D02*
X120206000Y-90709000D01*
X120166000Y-78159000D02*
X120166000Y-90751000D01*
X120126000Y-78118000D02*
X120126000Y-90792000D01*
X120086000Y-78077000D02*
X120086000Y-90833000D01*
X120046000Y-78037000D02*
X120046000Y-90873000D01*
X120006000Y-77997000D02*
X120006000Y-90913000D01*
X119966000Y-77958000D02*
X119966000Y-90952000D01*
X119926000Y-77919000D02*
X119926000Y-90991000D01*
X119886000Y-77881000D02*
X119886000Y-91029000D01*
X119846000Y-77843000D02*
X119846000Y-91067000D01*
X119806000Y-77806000D02*
X119806000Y-91104000D01*
X119766000Y-77769000D02*
X119766000Y-91141000D01*
X119726000Y-77733000D02*
X119726000Y-91177000D01*
X119686000Y-77697000D02*
X119686000Y-91213000D01*
X119646000Y-77661000D02*
X119646000Y-91249000D01*
X119606000Y-77626000D02*
X119606000Y-91284000D01*
X119566000Y-77591000D02*
X119566000Y-91319000D01*
X119526000Y-77557000D02*
X119526000Y-91353000D01*
X119486000Y-77523000D02*
X119486000Y-91387000D01*
X119446000Y-77490000D02*
X119446000Y-91420000D01*
X119406000Y-77456000D02*
X119406000Y-91454000D01*
X119366000Y-77424000D02*
X119366000Y-91486000D01*
X119326000Y-77391000D02*
X119326000Y-91519000D01*
X119286000Y-77359000D02*
X119286000Y-91551000D01*
X119246000Y-77328000D02*
X119246000Y-91582000D01*
X119206000Y-77296000D02*
X119206000Y-91614000D01*
X119166000Y-77265000D02*
X119166000Y-91645000D01*
X119126000Y-77235000D02*
X119126000Y-91675000D01*
X119086000Y-77205000D02*
X119086000Y-91705000D01*
X119046000Y-77175000D02*
X119046000Y-91735000D01*
X119006000Y-77145000D02*
X119006000Y-91765000D01*
X118966000Y-77116000D02*
X118966000Y-91794000D01*
X118926000Y-77087000D02*
X118926000Y-91823000D01*
X118886000Y-77058000D02*
X118886000Y-91852000D01*
X118846000Y-77030000D02*
X118846000Y-91880000D01*
X118806000Y-77002000D02*
X118806000Y-91908000D01*
X118766000Y-85895000D02*
X118766000Y-91935000D01*
X118766000Y-76975000D02*
X118766000Y-83015000D01*
X118726000Y-85895000D02*
X118726000Y-91963000D01*
X118726000Y-76947000D02*
X118726000Y-83015000D01*
X118686000Y-85895000D02*
X118686000Y-91990000D01*
X118686000Y-76920000D02*
X118686000Y-83015000D01*
X118646000Y-85895000D02*
X118646000Y-92016000D01*
X118646000Y-76894000D02*
X118646000Y-83015000D01*
X118606000Y-85895000D02*
X118606000Y-92043000D01*
X118606000Y-76867000D02*
X118606000Y-83015000D01*
X118566000Y-85895000D02*
X118566000Y-92069000D01*
X118566000Y-76841000D02*
X118566000Y-83015000D01*
X118526000Y-85895000D02*
X118526000Y-92095000D01*
X118526000Y-76815000D02*
X118526000Y-83015000D01*
X118486000Y-85895000D02*
X118486000Y-92120000D01*
X118486000Y-76790000D02*
X118486000Y-83015000D01*
X118446000Y-85895000D02*
X118446000Y-92145000D01*
X118446000Y-76765000D02*
X118446000Y-83015000D01*
X118406000Y-85895000D02*
X118406000Y-92170000D01*
X118406000Y-76740000D02*
X118406000Y-83015000D01*
X118366000Y-85895000D02*
X118366000Y-92195000D01*
X118366000Y-76715000D02*
X118366000Y-83015000D01*
X118326000Y-85895000D02*
X118326000Y-92219000D01*
X118326000Y-76691000D02*
X118326000Y-83015000D01*
X118286000Y-85895000D02*
X118286000Y-92243000D01*
X118286000Y-76667000D02*
X118286000Y-83015000D01*
X118246000Y-85895000D02*
X118246000Y-92267000D01*
X118246000Y-76643000D02*
X118246000Y-83015000D01*
X118206000Y-85895000D02*
X118206000Y-92290000D01*
X118206000Y-76620000D02*
X118206000Y-83015000D01*
X118166000Y-85895000D02*
X118166000Y-92314000D01*
X118166000Y-76596000D02*
X118166000Y-83015000D01*
X118126000Y-85895000D02*
X118126000Y-92337000D01*
X118126000Y-76573000D02*
X118126000Y-83015000D01*
X118086000Y-85895000D02*
X118086000Y-92359000D01*
X118086000Y-76551000D02*
X118086000Y-83015000D01*
X118046000Y-85895000D02*
X118046000Y-92382000D01*
X118046000Y-76528000D02*
X118046000Y-83015000D01*
X118006000Y-85895000D02*
X118006000Y-92404000D01*
X118006000Y-76506000D02*
X118006000Y-83015000D01*
X117966000Y-85895000D02*
X117966000Y-92426000D01*
X117966000Y-76484000D02*
X117966000Y-83015000D01*
X117926000Y-85895000D02*
X117926000Y-92447000D01*
X117926000Y-76463000D02*
X117926000Y-83015000D01*
X117886000Y-85895000D02*
X117886000Y-92469000D01*
X117886000Y-76441000D02*
X117886000Y-83015000D01*
X117846000Y-85895000D02*
X117846000Y-92490000D01*
X117846000Y-76420000D02*
X117846000Y-83015000D01*
X117806000Y-85895000D02*
X117806000Y-92511000D01*
X117806000Y-76399000D02*
X117806000Y-83015000D01*
X117766000Y-85895000D02*
X117766000Y-92531000D01*
X117766000Y-76379000D02*
X117766000Y-83015000D01*
X117726000Y-85895000D02*
X117726000Y-92552000D01*
X117726000Y-76358000D02*
X117726000Y-83015000D01*
X117686000Y-85895000D02*
X117686000Y-92572000D01*
X117686000Y-76338000D02*
X117686000Y-83015000D01*
X117646000Y-85895000D02*
X117646000Y-92592000D01*
X117646000Y-76318000D02*
X117646000Y-83015000D01*
X117606000Y-85895000D02*
X117606000Y-92611000D01*
X117606000Y-76299000D02*
X117606000Y-83015000D01*
X117566000Y-85895000D02*
X117566000Y-92631000D01*
X117566000Y-76279000D02*
X117566000Y-83015000D01*
X117526000Y-85895000D02*
X117526000Y-92650000D01*
X117526000Y-76260000D02*
X117526000Y-83015000D01*
X117486000Y-85895000D02*
X117486000Y-92669000D01*
X117486000Y-76241000D02*
X117486000Y-83015000D01*
X117446000Y-85895000D02*
X117446000Y-92688000D01*
X117446000Y-76222000D02*
X117446000Y-83015000D01*
X117406000Y-85895000D02*
X117406000Y-92706000D01*
X117406000Y-76204000D02*
X117406000Y-83015000D01*
X117366000Y-85895000D02*
X117366000Y-92724000D01*
X117366000Y-76186000D02*
X117366000Y-83015000D01*
X117326000Y-85895000D02*
X117326000Y-92742000D01*
X117326000Y-76168000D02*
X117326000Y-83015000D01*
X117286000Y-85895000D02*
X117286000Y-92760000D01*
X117286000Y-76150000D02*
X117286000Y-83015000D01*
X117246000Y-85895000D02*
X117246000Y-92778000D01*
X117246000Y-76132000D02*
X117246000Y-83015000D01*
X117206000Y-85895000D02*
X117206000Y-92795000D01*
X117206000Y-76115000D02*
X117206000Y-83015000D01*
X117166000Y-85895000D02*
X117166000Y-92812000D01*
X117166000Y-76098000D02*
X117166000Y-83015000D01*
X117126000Y-85895000D02*
X117126000Y-92829000D01*
X117126000Y-76081000D02*
X117126000Y-83015000D01*
X117086000Y-85895000D02*
X117086000Y-92845000D01*
X117086000Y-76065000D02*
X117086000Y-83015000D01*
X117046000Y-85895000D02*
X117046000Y-92862000D01*
X117046000Y-76048000D02*
X117046000Y-83015000D01*
X117006000Y-85895000D02*
X117006000Y-92878000D01*
X117006000Y-76032000D02*
X117006000Y-83015000D01*
X116966000Y-85895000D02*
X116966000Y-92894000D01*
X116966000Y-76016000D02*
X116966000Y-83015000D01*
X116926000Y-85895000D02*
X116926000Y-92910000D01*
X116926000Y-76000000D02*
X116926000Y-83015000D01*
X116886000Y-85895000D02*
X116886000Y-92925000D01*
X116886000Y-75985000D02*
X116886000Y-83015000D01*
X116846000Y-85895000D02*
X116846000Y-92941000D01*
X116846000Y-75969000D02*
X116846000Y-83015000D01*
X116806000Y-85895000D02*
X116806000Y-92956000D01*
X116806000Y-75954000D02*
X116806000Y-83015000D01*
X116766000Y-85895000D02*
X116766000Y-92971000D01*
X116766000Y-75939000D02*
X116766000Y-83015000D01*
X116726000Y-85895000D02*
X116726000Y-92985000D01*
X116726000Y-75925000D02*
X116726000Y-83015000D01*
X116686000Y-85895000D02*
X116686000Y-93000000D01*
X116686000Y-75910000D02*
X116686000Y-83015000D01*
X116646000Y-85895000D02*
X116646000Y-93014000D01*
X116646000Y-75896000D02*
X116646000Y-83015000D01*
X116606000Y-85895000D02*
X116606000Y-93028000D01*
X116606000Y-75882000D02*
X116606000Y-83015000D01*
X116566000Y-85895000D02*
X116566000Y-93042000D01*
X116566000Y-75868000D02*
X116566000Y-83015000D01*
X116526000Y-85895000D02*
X116526000Y-93055000D01*
X116526000Y-75855000D02*
X116526000Y-83015000D01*
X116486000Y-85895000D02*
X116486000Y-93069000D01*
X116486000Y-75841000D02*
X116486000Y-83015000D01*
X116446000Y-85895000D02*
X116446000Y-93082000D01*
X116446000Y-75828000D02*
X116446000Y-83015000D01*
X116406000Y-85895000D02*
X116406000Y-93095000D01*
X116406000Y-75815000D02*
X116406000Y-83015000D01*
X116366000Y-85895000D02*
X116366000Y-93108000D01*
X116366000Y-75802000D02*
X116366000Y-83015000D01*
X116326000Y-85895000D02*
X116326000Y-93120000D01*
X116326000Y-75790000D02*
X116326000Y-83015000D01*
X116286000Y-85895000D02*
X116286000Y-93133000D01*
X116286000Y-75777000D02*
X116286000Y-83015000D01*
X116246000Y-85895000D02*
X116246000Y-93145000D01*
X116246000Y-75765000D02*
X116246000Y-83015000D01*
X116206000Y-85895000D02*
X116206000Y-93157000D01*
X116206000Y-75753000D02*
X116206000Y-83015000D01*
X116166000Y-85895000D02*
X116166000Y-93169000D01*
X116166000Y-75741000D02*
X116166000Y-83015000D01*
X116126000Y-85895000D02*
X116126000Y-93180000D01*
X116126000Y-75730000D02*
X116126000Y-83015000D01*
X116086000Y-85895000D02*
X116086000Y-93192000D01*
X116086000Y-75718000D02*
X116086000Y-83015000D01*
X116046000Y-85895000D02*
X116046000Y-93203000D01*
X116046000Y-75707000D02*
X116046000Y-83015000D01*
X116006000Y-85895000D02*
X116006000Y-93214000D01*
X116006000Y-75696000D02*
X116006000Y-83015000D01*
X115966000Y-85895000D02*
X115966000Y-93225000D01*
X115966000Y-75685000D02*
X115966000Y-83015000D01*
X115926000Y-85895000D02*
X115926000Y-93235000D01*
X115926000Y-75675000D02*
X115926000Y-83015000D01*
X115886000Y-75664000D02*
X115886000Y-93246000D01*
X115846000Y-75654000D02*
X115846000Y-93256000D01*
X115806000Y-75644000D02*
X115806000Y-93266000D01*
X115766000Y-75634000D02*
X115766000Y-93276000D01*
X115726000Y-75624000D02*
X115726000Y-93286000D01*
X115686000Y-75615000D02*
X115686000Y-93295000D01*
X115646000Y-75606000D02*
X115646000Y-93304000D01*
X115606000Y-75597000D02*
X115606000Y-93313000D01*
X115566000Y-75588000D02*
X115566000Y-93322000D01*
X115526000Y-75579000D02*
X115526000Y-93331000D01*
X115486000Y-75570000D02*
X115486000Y-93340000D01*
X115446000Y-75562000D02*
X115446000Y-93348000D01*
X115406000Y-75554000D02*
X115406000Y-93356000D01*
X115366000Y-75546000D02*
X115366000Y-93364000D01*
X115326000Y-75538000D02*
X115326000Y-93372000D01*
X115286000Y-75531000D02*
X115286000Y-93379000D01*
X115246000Y-75523000D02*
X115246000Y-93387000D01*
X115206000Y-75516000D02*
X115206000Y-93394000D01*
X115166000Y-75509000D02*
X115166000Y-93401000D01*
X115126000Y-75502000D02*
X115126000Y-93408000D01*
X115086000Y-75495000D02*
X115086000Y-93415000D01*
X115046000Y-75489000D02*
X115046000Y-93421000D01*
X115006000Y-75483000D02*
X115006000Y-93427000D01*
X114966000Y-75476000D02*
X114966000Y-93434000D01*
X114926000Y-75471000D02*
X114926000Y-93439000D01*
X114886000Y-75465000D02*
X114886000Y-93445000D01*
X114846000Y-75459000D02*
X114846000Y-93451000D01*
X114806000Y-75454000D02*
X114806000Y-93456000D01*
X114766000Y-75449000D02*
X114766000Y-93461000D01*
X114726000Y-75444000D02*
X114726000Y-93466000D01*
X114686000Y-75439000D02*
X114686000Y-93471000D01*
X114646000Y-75434000D02*
X114646000Y-93476000D01*
X114606000Y-75429000D02*
X114606000Y-93481000D01*
X114566000Y-75425000D02*
X114566000Y-93485000D01*
X114526000Y-75421000D02*
X114526000Y-93489000D01*
X114486000Y-75417000D02*
X114486000Y-93493000D01*
X114446000Y-75413000D02*
X114446000Y-93497000D01*
X114406000Y-75410000D02*
X114406000Y-93500000D01*
X114366000Y-75406000D02*
X114366000Y-93504000D01*
X114326000Y-75403000D02*
X114326000Y-93507000D01*
X114285000Y-75400000D02*
X114285000Y-93510000D01*
X114245000Y-75397000D02*
X114245000Y-93513000D01*
X114205000Y-75394000D02*
X114205000Y-93516000D01*
X114165000Y-75392000D02*
X114165000Y-93518000D01*
X114125000Y-75389000D02*
X114125000Y-93521000D01*
X114085000Y-75387000D02*
X114085000Y-93523000D01*
X114045000Y-75385000D02*
X114045000Y-93525000D01*
X114005000Y-75383000D02*
X114005000Y-93527000D01*
X113965000Y-75382000D02*
X113965000Y-93528000D01*
X113925000Y-75380000D02*
X113925000Y-93530000D01*
X113885000Y-75379000D02*
X113885000Y-93531000D01*
X113845000Y-75378000D02*
X113845000Y-93532000D01*
X113805000Y-75377000D02*
X113805000Y-93533000D01*
X113765000Y-75376000D02*
X113765000Y-93534000D01*
X113725000Y-75375000D02*
X113725000Y-93535000D01*
X113685000Y-75375000D02*
X113685000Y-93535000D01*
X113645000Y-75375000D02*
X113645000Y-93535000D01*
X113605000Y-75374000D02*
X113605000Y-93536000D01*
X122725000Y-84455000D02*
G75*
G03X122725000Y-84455000I-9120000J0D01*
G01*
G04 #@! TO.C,C3*
X122725000Y-106045000D02*
G75*
G03X122725000Y-106045000I-9120000J0D01*
G01*
X113605000Y-96964000D02*
X113605000Y-115126000D01*
X113645000Y-96965000D02*
X113645000Y-115125000D01*
X113685000Y-96965000D02*
X113685000Y-115125000D01*
X113725000Y-96965000D02*
X113725000Y-115125000D01*
X113765000Y-96966000D02*
X113765000Y-115124000D01*
X113805000Y-96967000D02*
X113805000Y-115123000D01*
X113845000Y-96968000D02*
X113845000Y-115122000D01*
X113885000Y-96969000D02*
X113885000Y-115121000D01*
X113925000Y-96970000D02*
X113925000Y-115120000D01*
X113965000Y-96972000D02*
X113965000Y-115118000D01*
X114005000Y-96973000D02*
X114005000Y-115117000D01*
X114045000Y-96975000D02*
X114045000Y-115115000D01*
X114085000Y-96977000D02*
X114085000Y-115113000D01*
X114125000Y-96979000D02*
X114125000Y-115111000D01*
X114165000Y-96982000D02*
X114165000Y-115108000D01*
X114205000Y-96984000D02*
X114205000Y-115106000D01*
X114245000Y-96987000D02*
X114245000Y-115103000D01*
X114285000Y-96990000D02*
X114285000Y-115100000D01*
X114326000Y-96993000D02*
X114326000Y-115097000D01*
X114366000Y-96996000D02*
X114366000Y-115094000D01*
X114406000Y-97000000D02*
X114406000Y-115090000D01*
X114446000Y-97003000D02*
X114446000Y-115087000D01*
X114486000Y-97007000D02*
X114486000Y-115083000D01*
X114526000Y-97011000D02*
X114526000Y-115079000D01*
X114566000Y-97015000D02*
X114566000Y-115075000D01*
X114606000Y-97019000D02*
X114606000Y-115071000D01*
X114646000Y-97024000D02*
X114646000Y-115066000D01*
X114686000Y-97029000D02*
X114686000Y-115061000D01*
X114726000Y-97034000D02*
X114726000Y-115056000D01*
X114766000Y-97039000D02*
X114766000Y-115051000D01*
X114806000Y-97044000D02*
X114806000Y-115046000D01*
X114846000Y-97049000D02*
X114846000Y-115041000D01*
X114886000Y-97055000D02*
X114886000Y-115035000D01*
X114926000Y-97061000D02*
X114926000Y-115029000D01*
X114966000Y-97066000D02*
X114966000Y-115024000D01*
X115006000Y-97073000D02*
X115006000Y-115017000D01*
X115046000Y-97079000D02*
X115046000Y-115011000D01*
X115086000Y-97085000D02*
X115086000Y-115005000D01*
X115126000Y-97092000D02*
X115126000Y-114998000D01*
X115166000Y-97099000D02*
X115166000Y-114991000D01*
X115206000Y-97106000D02*
X115206000Y-114984000D01*
X115246000Y-97113000D02*
X115246000Y-114977000D01*
X115286000Y-97121000D02*
X115286000Y-114969000D01*
X115326000Y-97128000D02*
X115326000Y-114962000D01*
X115366000Y-97136000D02*
X115366000Y-114954000D01*
X115406000Y-97144000D02*
X115406000Y-114946000D01*
X115446000Y-97152000D02*
X115446000Y-114938000D01*
X115486000Y-97160000D02*
X115486000Y-114930000D01*
X115526000Y-97169000D02*
X115526000Y-114921000D01*
X115566000Y-97178000D02*
X115566000Y-114912000D01*
X115606000Y-97187000D02*
X115606000Y-114903000D01*
X115646000Y-97196000D02*
X115646000Y-114894000D01*
X115686000Y-97205000D02*
X115686000Y-114885000D01*
X115726000Y-97214000D02*
X115726000Y-114876000D01*
X115766000Y-97224000D02*
X115766000Y-114866000D01*
X115806000Y-97234000D02*
X115806000Y-114856000D01*
X115846000Y-97244000D02*
X115846000Y-114846000D01*
X115886000Y-97254000D02*
X115886000Y-114836000D01*
X115926000Y-97265000D02*
X115926000Y-104605000D01*
X115926000Y-107485000D02*
X115926000Y-114825000D01*
X115966000Y-97275000D02*
X115966000Y-104605000D01*
X115966000Y-107485000D02*
X115966000Y-114815000D01*
X116006000Y-97286000D02*
X116006000Y-104605000D01*
X116006000Y-107485000D02*
X116006000Y-114804000D01*
X116046000Y-97297000D02*
X116046000Y-104605000D01*
X116046000Y-107485000D02*
X116046000Y-114793000D01*
X116086000Y-97308000D02*
X116086000Y-104605000D01*
X116086000Y-107485000D02*
X116086000Y-114782000D01*
X116126000Y-97320000D02*
X116126000Y-104605000D01*
X116126000Y-107485000D02*
X116126000Y-114770000D01*
X116166000Y-97331000D02*
X116166000Y-104605000D01*
X116166000Y-107485000D02*
X116166000Y-114759000D01*
X116206000Y-97343000D02*
X116206000Y-104605000D01*
X116206000Y-107485000D02*
X116206000Y-114747000D01*
X116246000Y-97355000D02*
X116246000Y-104605000D01*
X116246000Y-107485000D02*
X116246000Y-114735000D01*
X116286000Y-97367000D02*
X116286000Y-104605000D01*
X116286000Y-107485000D02*
X116286000Y-114723000D01*
X116326000Y-97380000D02*
X116326000Y-104605000D01*
X116326000Y-107485000D02*
X116326000Y-114710000D01*
X116366000Y-97392000D02*
X116366000Y-104605000D01*
X116366000Y-107485000D02*
X116366000Y-114698000D01*
X116406000Y-97405000D02*
X116406000Y-104605000D01*
X116406000Y-107485000D02*
X116406000Y-114685000D01*
X116446000Y-97418000D02*
X116446000Y-104605000D01*
X116446000Y-107485000D02*
X116446000Y-114672000D01*
X116486000Y-97431000D02*
X116486000Y-104605000D01*
X116486000Y-107485000D02*
X116486000Y-114659000D01*
X116526000Y-97445000D02*
X116526000Y-104605000D01*
X116526000Y-107485000D02*
X116526000Y-114645000D01*
X116566000Y-97458000D02*
X116566000Y-104605000D01*
X116566000Y-107485000D02*
X116566000Y-114632000D01*
X116606000Y-97472000D02*
X116606000Y-104605000D01*
X116606000Y-107485000D02*
X116606000Y-114618000D01*
X116646000Y-97486000D02*
X116646000Y-104605000D01*
X116646000Y-107485000D02*
X116646000Y-114604000D01*
X116686000Y-97500000D02*
X116686000Y-104605000D01*
X116686000Y-107485000D02*
X116686000Y-114590000D01*
X116726000Y-97515000D02*
X116726000Y-104605000D01*
X116726000Y-107485000D02*
X116726000Y-114575000D01*
X116766000Y-97529000D02*
X116766000Y-104605000D01*
X116766000Y-107485000D02*
X116766000Y-114561000D01*
X116806000Y-97544000D02*
X116806000Y-104605000D01*
X116806000Y-107485000D02*
X116806000Y-114546000D01*
X116846000Y-97559000D02*
X116846000Y-104605000D01*
X116846000Y-107485000D02*
X116846000Y-114531000D01*
X116886000Y-97575000D02*
X116886000Y-104605000D01*
X116886000Y-107485000D02*
X116886000Y-114515000D01*
X116926000Y-97590000D02*
X116926000Y-104605000D01*
X116926000Y-107485000D02*
X116926000Y-114500000D01*
X116966000Y-97606000D02*
X116966000Y-104605000D01*
X116966000Y-107485000D02*
X116966000Y-114484000D01*
X117006000Y-97622000D02*
X117006000Y-104605000D01*
X117006000Y-107485000D02*
X117006000Y-114468000D01*
X117046000Y-97638000D02*
X117046000Y-104605000D01*
X117046000Y-107485000D02*
X117046000Y-114452000D01*
X117086000Y-97655000D02*
X117086000Y-104605000D01*
X117086000Y-107485000D02*
X117086000Y-114435000D01*
X117126000Y-97671000D02*
X117126000Y-104605000D01*
X117126000Y-107485000D02*
X117126000Y-114419000D01*
X117166000Y-97688000D02*
X117166000Y-104605000D01*
X117166000Y-107485000D02*
X117166000Y-114402000D01*
X117206000Y-97705000D02*
X117206000Y-104605000D01*
X117206000Y-107485000D02*
X117206000Y-114385000D01*
X117246000Y-97722000D02*
X117246000Y-104605000D01*
X117246000Y-107485000D02*
X117246000Y-114368000D01*
X117286000Y-97740000D02*
X117286000Y-104605000D01*
X117286000Y-107485000D02*
X117286000Y-114350000D01*
X117326000Y-97758000D02*
X117326000Y-104605000D01*
X117326000Y-107485000D02*
X117326000Y-114332000D01*
X117366000Y-97776000D02*
X117366000Y-104605000D01*
X117366000Y-107485000D02*
X117366000Y-114314000D01*
X117406000Y-97794000D02*
X117406000Y-104605000D01*
X117406000Y-107485000D02*
X117406000Y-114296000D01*
X117446000Y-97812000D02*
X117446000Y-104605000D01*
X117446000Y-107485000D02*
X117446000Y-114278000D01*
X117486000Y-97831000D02*
X117486000Y-104605000D01*
X117486000Y-107485000D02*
X117486000Y-114259000D01*
X117526000Y-97850000D02*
X117526000Y-104605000D01*
X117526000Y-107485000D02*
X117526000Y-114240000D01*
X117566000Y-97869000D02*
X117566000Y-104605000D01*
X117566000Y-107485000D02*
X117566000Y-114221000D01*
X117606000Y-97889000D02*
X117606000Y-104605000D01*
X117606000Y-107485000D02*
X117606000Y-114201000D01*
X117646000Y-97908000D02*
X117646000Y-104605000D01*
X117646000Y-107485000D02*
X117646000Y-114182000D01*
X117686000Y-97928000D02*
X117686000Y-104605000D01*
X117686000Y-107485000D02*
X117686000Y-114162000D01*
X117726000Y-97948000D02*
X117726000Y-104605000D01*
X117726000Y-107485000D02*
X117726000Y-114142000D01*
X117766000Y-97969000D02*
X117766000Y-104605000D01*
X117766000Y-107485000D02*
X117766000Y-114121000D01*
X117806000Y-97989000D02*
X117806000Y-104605000D01*
X117806000Y-107485000D02*
X117806000Y-114101000D01*
X117846000Y-98010000D02*
X117846000Y-104605000D01*
X117846000Y-107485000D02*
X117846000Y-114080000D01*
X117886000Y-98031000D02*
X117886000Y-104605000D01*
X117886000Y-107485000D02*
X117886000Y-114059000D01*
X117926000Y-98053000D02*
X117926000Y-104605000D01*
X117926000Y-107485000D02*
X117926000Y-114037000D01*
X117966000Y-98074000D02*
X117966000Y-104605000D01*
X117966000Y-107485000D02*
X117966000Y-114016000D01*
X118006000Y-98096000D02*
X118006000Y-104605000D01*
X118006000Y-107485000D02*
X118006000Y-113994000D01*
X118046000Y-98118000D02*
X118046000Y-104605000D01*
X118046000Y-107485000D02*
X118046000Y-113972000D01*
X118086000Y-98141000D02*
X118086000Y-104605000D01*
X118086000Y-107485000D02*
X118086000Y-113949000D01*
X118126000Y-98163000D02*
X118126000Y-104605000D01*
X118126000Y-107485000D02*
X118126000Y-113927000D01*
X118166000Y-98186000D02*
X118166000Y-104605000D01*
X118166000Y-107485000D02*
X118166000Y-113904000D01*
X118206000Y-98210000D02*
X118206000Y-104605000D01*
X118206000Y-107485000D02*
X118206000Y-113880000D01*
X118246000Y-98233000D02*
X118246000Y-104605000D01*
X118246000Y-107485000D02*
X118246000Y-113857000D01*
X118286000Y-98257000D02*
X118286000Y-104605000D01*
X118286000Y-107485000D02*
X118286000Y-113833000D01*
X118326000Y-98281000D02*
X118326000Y-104605000D01*
X118326000Y-107485000D02*
X118326000Y-113809000D01*
X118366000Y-98305000D02*
X118366000Y-104605000D01*
X118366000Y-107485000D02*
X118366000Y-113785000D01*
X118406000Y-98330000D02*
X118406000Y-104605000D01*
X118406000Y-107485000D02*
X118406000Y-113760000D01*
X118446000Y-98355000D02*
X118446000Y-104605000D01*
X118446000Y-107485000D02*
X118446000Y-113735000D01*
X118486000Y-98380000D02*
X118486000Y-104605000D01*
X118486000Y-107485000D02*
X118486000Y-113710000D01*
X118526000Y-98405000D02*
X118526000Y-104605000D01*
X118526000Y-107485000D02*
X118526000Y-113685000D01*
X118566000Y-98431000D02*
X118566000Y-104605000D01*
X118566000Y-107485000D02*
X118566000Y-113659000D01*
X118606000Y-98457000D02*
X118606000Y-104605000D01*
X118606000Y-107485000D02*
X118606000Y-113633000D01*
X118646000Y-98484000D02*
X118646000Y-104605000D01*
X118646000Y-107485000D02*
X118646000Y-113606000D01*
X118686000Y-98510000D02*
X118686000Y-104605000D01*
X118686000Y-107485000D02*
X118686000Y-113580000D01*
X118726000Y-98537000D02*
X118726000Y-104605000D01*
X118726000Y-107485000D02*
X118726000Y-113553000D01*
X118766000Y-98565000D02*
X118766000Y-104605000D01*
X118766000Y-107485000D02*
X118766000Y-113525000D01*
X118806000Y-98592000D02*
X118806000Y-113498000D01*
X118846000Y-98620000D02*
X118846000Y-113470000D01*
X118886000Y-98648000D02*
X118886000Y-113442000D01*
X118926000Y-98677000D02*
X118926000Y-113413000D01*
X118966000Y-98706000D02*
X118966000Y-113384000D01*
X119006000Y-98735000D02*
X119006000Y-113355000D01*
X119046000Y-98765000D02*
X119046000Y-113325000D01*
X119086000Y-98795000D02*
X119086000Y-113295000D01*
X119126000Y-98825000D02*
X119126000Y-113265000D01*
X119166000Y-98855000D02*
X119166000Y-113235000D01*
X119206000Y-98886000D02*
X119206000Y-113204000D01*
X119246000Y-98918000D02*
X119246000Y-113172000D01*
X119286000Y-98949000D02*
X119286000Y-113141000D01*
X119326000Y-98981000D02*
X119326000Y-113109000D01*
X119366000Y-99014000D02*
X119366000Y-113076000D01*
X119406000Y-99046000D02*
X119406000Y-113044000D01*
X119446000Y-99080000D02*
X119446000Y-113010000D01*
X119486000Y-99113000D02*
X119486000Y-112977000D01*
X119526000Y-99147000D02*
X119526000Y-112943000D01*
X119566000Y-99181000D02*
X119566000Y-112909000D01*
X119606000Y-99216000D02*
X119606000Y-112874000D01*
X119646000Y-99251000D02*
X119646000Y-112839000D01*
X119686000Y-99287000D02*
X119686000Y-112803000D01*
X119726000Y-99323000D02*
X119726000Y-112767000D01*
X119766000Y-99359000D02*
X119766000Y-112731000D01*
X119806000Y-99396000D02*
X119806000Y-112694000D01*
X119846000Y-99433000D02*
X119846000Y-112657000D01*
X119886000Y-99471000D02*
X119886000Y-112619000D01*
X119926000Y-99509000D02*
X119926000Y-112581000D01*
X119966000Y-99548000D02*
X119966000Y-112542000D01*
X120006000Y-99587000D02*
X120006000Y-112503000D01*
X120046000Y-99627000D02*
X120046000Y-112463000D01*
X120086000Y-99667000D02*
X120086000Y-112423000D01*
X120126000Y-99708000D02*
X120126000Y-112382000D01*
X120166000Y-99749000D02*
X120166000Y-112341000D01*
X120206000Y-99791000D02*
X120206000Y-112299000D01*
X120246000Y-99833000D02*
X120246000Y-112257000D01*
X120286000Y-99875000D02*
X120286000Y-112215000D01*
X120326000Y-99919000D02*
X120326000Y-112171000D01*
X120366000Y-99963000D02*
X120366000Y-112127000D01*
X120406000Y-100007000D02*
X120406000Y-112083000D01*
X120446000Y-100052000D02*
X120446000Y-112038000D01*
X120486000Y-100098000D02*
X120486000Y-111992000D01*
X120526000Y-100144000D02*
X120526000Y-111946000D01*
X120566000Y-100191000D02*
X120566000Y-111899000D01*
X120606000Y-100239000D02*
X120606000Y-111851000D01*
X120646000Y-100287000D02*
X120646000Y-111803000D01*
X120686000Y-100336000D02*
X120686000Y-111754000D01*
X120726000Y-100385000D02*
X120726000Y-111705000D01*
X120766000Y-100436000D02*
X120766000Y-111654000D01*
X120806000Y-100487000D02*
X120806000Y-111603000D01*
X120846000Y-100539000D02*
X120846000Y-111551000D01*
X120886000Y-100591000D02*
X120886000Y-111499000D01*
X120926000Y-100645000D02*
X120926000Y-111445000D01*
X120966000Y-100699000D02*
X120966000Y-111391000D01*
X121006000Y-100754000D02*
X121006000Y-111336000D01*
X121046000Y-100810000D02*
X121046000Y-111280000D01*
X121086000Y-100867000D02*
X121086000Y-111223000D01*
X121126000Y-100925000D02*
X121126000Y-111165000D01*
X121166000Y-100983000D02*
X121166000Y-111107000D01*
X121206000Y-101043000D02*
X121206000Y-111047000D01*
X121246000Y-101104000D02*
X121246000Y-110986000D01*
X121286000Y-101166000D02*
X121286000Y-110924000D01*
X121326000Y-101229000D02*
X121326000Y-110861000D01*
X121366000Y-101293000D02*
X121366000Y-110797000D01*
X121406000Y-101359000D02*
X121406000Y-110731000D01*
X121446000Y-101425000D02*
X121446000Y-110665000D01*
X121486000Y-101493000D02*
X121486000Y-110597000D01*
X121526000Y-101563000D02*
X121526000Y-110527000D01*
X121566000Y-101633000D02*
X121566000Y-110457000D01*
X121606000Y-101706000D02*
X121606000Y-110384000D01*
X121646000Y-101780000D02*
X121646000Y-110310000D01*
X121686000Y-101855000D02*
X121686000Y-110235000D01*
X121726000Y-101932000D02*
X121726000Y-110158000D01*
X121766000Y-102012000D02*
X121766000Y-110078000D01*
X121805000Y-102093000D02*
X121805000Y-109997000D01*
X121845000Y-102176000D02*
X121845000Y-109914000D01*
X121885000Y-102261000D02*
X121885000Y-109829000D01*
X121925000Y-102349000D02*
X121925000Y-109741000D01*
X121965000Y-102440000D02*
X121965000Y-109650000D01*
X122005000Y-102533000D02*
X122005000Y-109557000D01*
X122045000Y-102629000D02*
X122045000Y-109461000D01*
X122085000Y-102728000D02*
X122085000Y-109362000D01*
X122125000Y-102831000D02*
X122125000Y-109259000D01*
X122165000Y-102938000D02*
X122165000Y-109152000D01*
X122205000Y-103049000D02*
X122205000Y-109041000D01*
X122245000Y-103165000D02*
X122245000Y-108925000D01*
X122285000Y-103286000D02*
X122285000Y-108804000D01*
X122325000Y-103413000D02*
X122325000Y-108677000D01*
X122365000Y-103547000D02*
X122365000Y-108543000D01*
X122405000Y-103690000D02*
X122405000Y-108400000D01*
X122445000Y-103842000D02*
X122445000Y-108248000D01*
X122485000Y-104006000D02*
X122485000Y-108084000D01*
X122525000Y-104185000D02*
X122525000Y-107905000D01*
X122565000Y-104384000D02*
X122565000Y-107706000D01*
X122605000Y-104610000D02*
X122605000Y-107480000D01*
X122645000Y-104879000D02*
X122645000Y-107211000D01*
X122685000Y-105231000D02*
X122685000Y-106859000D01*
X122725000Y-106005000D02*
X122725000Y-106085000D01*
X103845560Y-100930000D02*
X105645560Y-100930000D01*
X104745560Y-100030000D02*
X104745560Y-101830000D01*
G04 #@! TO.C,C4*
X85060560Y-100030000D02*
X85060560Y-101830000D01*
X84160560Y-100930000D02*
X85960560Y-100930000D01*
X103040000Y-106005000D02*
X103040000Y-106085000D01*
X103000000Y-105231000D02*
X103000000Y-106859000D01*
X102960000Y-104879000D02*
X102960000Y-107211000D01*
X102920000Y-104610000D02*
X102920000Y-107480000D01*
X102880000Y-104384000D02*
X102880000Y-107706000D01*
X102840000Y-104185000D02*
X102840000Y-107905000D01*
X102800000Y-104006000D02*
X102800000Y-108084000D01*
X102760000Y-103842000D02*
X102760000Y-108248000D01*
X102720000Y-103690000D02*
X102720000Y-108400000D01*
X102680000Y-103547000D02*
X102680000Y-108543000D01*
X102640000Y-103413000D02*
X102640000Y-108677000D01*
X102600000Y-103286000D02*
X102600000Y-108804000D01*
X102560000Y-103165000D02*
X102560000Y-108925000D01*
X102520000Y-103049000D02*
X102520000Y-109041000D01*
X102480000Y-102938000D02*
X102480000Y-109152000D01*
X102440000Y-102831000D02*
X102440000Y-109259000D01*
X102400000Y-102728000D02*
X102400000Y-109362000D01*
X102360000Y-102629000D02*
X102360000Y-109461000D01*
X102320000Y-102533000D02*
X102320000Y-109557000D01*
X102280000Y-102440000D02*
X102280000Y-109650000D01*
X102240000Y-102349000D02*
X102240000Y-109741000D01*
X102200000Y-102261000D02*
X102200000Y-109829000D01*
X102160000Y-102176000D02*
X102160000Y-109914000D01*
X102120000Y-102093000D02*
X102120000Y-109997000D01*
X102081000Y-102012000D02*
X102081000Y-110078000D01*
X102041000Y-101932000D02*
X102041000Y-110158000D01*
X102001000Y-101855000D02*
X102001000Y-110235000D01*
X101961000Y-101780000D02*
X101961000Y-110310000D01*
X101921000Y-101706000D02*
X101921000Y-110384000D01*
X101881000Y-101633000D02*
X101881000Y-110457000D01*
X101841000Y-101563000D02*
X101841000Y-110527000D01*
X101801000Y-101493000D02*
X101801000Y-110597000D01*
X101761000Y-101425000D02*
X101761000Y-110665000D01*
X101721000Y-101359000D02*
X101721000Y-110731000D01*
X101681000Y-101293000D02*
X101681000Y-110797000D01*
X101641000Y-101229000D02*
X101641000Y-110861000D01*
X101601000Y-101166000D02*
X101601000Y-110924000D01*
X101561000Y-101104000D02*
X101561000Y-110986000D01*
X101521000Y-101043000D02*
X101521000Y-111047000D01*
X101481000Y-100983000D02*
X101481000Y-111107000D01*
X101441000Y-100925000D02*
X101441000Y-111165000D01*
X101401000Y-100867000D02*
X101401000Y-111223000D01*
X101361000Y-100810000D02*
X101361000Y-111280000D01*
X101321000Y-100754000D02*
X101321000Y-111336000D01*
X101281000Y-100699000D02*
X101281000Y-111391000D01*
X101241000Y-100645000D02*
X101241000Y-111445000D01*
X101201000Y-100591000D02*
X101201000Y-111499000D01*
X101161000Y-100539000D02*
X101161000Y-111551000D01*
X101121000Y-100487000D02*
X101121000Y-111603000D01*
X101081000Y-100436000D02*
X101081000Y-111654000D01*
X101041000Y-100385000D02*
X101041000Y-111705000D01*
X101001000Y-100336000D02*
X101001000Y-111754000D01*
X100961000Y-100287000D02*
X100961000Y-111803000D01*
X100921000Y-100239000D02*
X100921000Y-111851000D01*
X100881000Y-100191000D02*
X100881000Y-111899000D01*
X100841000Y-100144000D02*
X100841000Y-111946000D01*
X100801000Y-100098000D02*
X100801000Y-111992000D01*
X100761000Y-100052000D02*
X100761000Y-112038000D01*
X100721000Y-100007000D02*
X100721000Y-112083000D01*
X100681000Y-99963000D02*
X100681000Y-112127000D01*
X100641000Y-99919000D02*
X100641000Y-112171000D01*
X100601000Y-99875000D02*
X100601000Y-112215000D01*
X100561000Y-99833000D02*
X100561000Y-112257000D01*
X100521000Y-99791000D02*
X100521000Y-112299000D01*
X100481000Y-99749000D02*
X100481000Y-112341000D01*
X100441000Y-99708000D02*
X100441000Y-112382000D01*
X100401000Y-99667000D02*
X100401000Y-112423000D01*
X100361000Y-99627000D02*
X100361000Y-112463000D01*
X100321000Y-99587000D02*
X100321000Y-112503000D01*
X100281000Y-99548000D02*
X100281000Y-112542000D01*
X100241000Y-99509000D02*
X100241000Y-112581000D01*
X100201000Y-99471000D02*
X100201000Y-112619000D01*
X100161000Y-99433000D02*
X100161000Y-112657000D01*
X100121000Y-99396000D02*
X100121000Y-112694000D01*
X100081000Y-99359000D02*
X100081000Y-112731000D01*
X100041000Y-99323000D02*
X100041000Y-112767000D01*
X100001000Y-99287000D02*
X100001000Y-112803000D01*
X99961000Y-99251000D02*
X99961000Y-112839000D01*
X99921000Y-99216000D02*
X99921000Y-112874000D01*
X99881000Y-99181000D02*
X99881000Y-112909000D01*
X99841000Y-99147000D02*
X99841000Y-112943000D01*
X99801000Y-99113000D02*
X99801000Y-112977000D01*
X99761000Y-99080000D02*
X99761000Y-113010000D01*
X99721000Y-99046000D02*
X99721000Y-113044000D01*
X99681000Y-99014000D02*
X99681000Y-113076000D01*
X99641000Y-98981000D02*
X99641000Y-113109000D01*
X99601000Y-98949000D02*
X99601000Y-113141000D01*
X99561000Y-98918000D02*
X99561000Y-113172000D01*
X99521000Y-98886000D02*
X99521000Y-113204000D01*
X99481000Y-98855000D02*
X99481000Y-113235000D01*
X99441000Y-98825000D02*
X99441000Y-113265000D01*
X99401000Y-98795000D02*
X99401000Y-113295000D01*
X99361000Y-98765000D02*
X99361000Y-113325000D01*
X99321000Y-98735000D02*
X99321000Y-113355000D01*
X99281000Y-98706000D02*
X99281000Y-113384000D01*
X99241000Y-98677000D02*
X99241000Y-113413000D01*
X99201000Y-98648000D02*
X99201000Y-113442000D01*
X99161000Y-98620000D02*
X99161000Y-113470000D01*
X99121000Y-98592000D02*
X99121000Y-113498000D01*
X99081000Y-107485000D02*
X99081000Y-113525000D01*
X99081000Y-98565000D02*
X99081000Y-104605000D01*
X99041000Y-107485000D02*
X99041000Y-113553000D01*
X99041000Y-98537000D02*
X99041000Y-104605000D01*
X99001000Y-107485000D02*
X99001000Y-113580000D01*
X99001000Y-98510000D02*
X99001000Y-104605000D01*
X98961000Y-107485000D02*
X98961000Y-113606000D01*
X98961000Y-98484000D02*
X98961000Y-104605000D01*
X98921000Y-107485000D02*
X98921000Y-113633000D01*
X98921000Y-98457000D02*
X98921000Y-104605000D01*
X98881000Y-107485000D02*
X98881000Y-113659000D01*
X98881000Y-98431000D02*
X98881000Y-104605000D01*
X98841000Y-107485000D02*
X98841000Y-113685000D01*
X98841000Y-98405000D02*
X98841000Y-104605000D01*
X98801000Y-107485000D02*
X98801000Y-113710000D01*
X98801000Y-98380000D02*
X98801000Y-104605000D01*
X98761000Y-107485000D02*
X98761000Y-113735000D01*
X98761000Y-98355000D02*
X98761000Y-104605000D01*
X98721000Y-107485000D02*
X98721000Y-113760000D01*
X98721000Y-98330000D02*
X98721000Y-104605000D01*
X98681000Y-107485000D02*
X98681000Y-113785000D01*
X98681000Y-98305000D02*
X98681000Y-104605000D01*
X98641000Y-107485000D02*
X98641000Y-113809000D01*
X98641000Y-98281000D02*
X98641000Y-104605000D01*
X98601000Y-107485000D02*
X98601000Y-113833000D01*
X98601000Y-98257000D02*
X98601000Y-104605000D01*
X98561000Y-107485000D02*
X98561000Y-113857000D01*
X98561000Y-98233000D02*
X98561000Y-104605000D01*
X98521000Y-107485000D02*
X98521000Y-113880000D01*
X98521000Y-98210000D02*
X98521000Y-104605000D01*
X98481000Y-107485000D02*
X98481000Y-113904000D01*
X98481000Y-98186000D02*
X98481000Y-104605000D01*
X98441000Y-107485000D02*
X98441000Y-113927000D01*
X98441000Y-98163000D02*
X98441000Y-104605000D01*
X98401000Y-107485000D02*
X98401000Y-113949000D01*
X98401000Y-98141000D02*
X98401000Y-104605000D01*
X98361000Y-107485000D02*
X98361000Y-113972000D01*
X98361000Y-98118000D02*
X98361000Y-104605000D01*
X98321000Y-107485000D02*
X98321000Y-113994000D01*
X98321000Y-98096000D02*
X98321000Y-104605000D01*
X98281000Y-107485000D02*
X98281000Y-114016000D01*
X98281000Y-98074000D02*
X98281000Y-104605000D01*
X98241000Y-107485000D02*
X98241000Y-114037000D01*
X98241000Y-98053000D02*
X98241000Y-104605000D01*
X98201000Y-107485000D02*
X98201000Y-114059000D01*
X98201000Y-98031000D02*
X98201000Y-104605000D01*
X98161000Y-107485000D02*
X98161000Y-114080000D01*
X98161000Y-98010000D02*
X98161000Y-104605000D01*
X98121000Y-107485000D02*
X98121000Y-114101000D01*
X98121000Y-97989000D02*
X98121000Y-104605000D01*
X98081000Y-107485000D02*
X98081000Y-114121000D01*
X98081000Y-97969000D02*
X98081000Y-104605000D01*
X98041000Y-107485000D02*
X98041000Y-114142000D01*
X98041000Y-97948000D02*
X98041000Y-104605000D01*
X98001000Y-107485000D02*
X98001000Y-114162000D01*
X98001000Y-97928000D02*
X98001000Y-104605000D01*
X97961000Y-107485000D02*
X97961000Y-114182000D01*
X97961000Y-97908000D02*
X97961000Y-104605000D01*
X97921000Y-107485000D02*
X97921000Y-114201000D01*
X97921000Y-97889000D02*
X97921000Y-104605000D01*
X97881000Y-107485000D02*
X97881000Y-114221000D01*
X97881000Y-97869000D02*
X97881000Y-104605000D01*
X97841000Y-107485000D02*
X97841000Y-114240000D01*
X97841000Y-97850000D02*
X97841000Y-104605000D01*
X97801000Y-107485000D02*
X97801000Y-114259000D01*
X97801000Y-97831000D02*
X97801000Y-104605000D01*
X97761000Y-107485000D02*
X97761000Y-114278000D01*
X97761000Y-97812000D02*
X97761000Y-104605000D01*
X97721000Y-107485000D02*
X97721000Y-114296000D01*
X97721000Y-97794000D02*
X97721000Y-104605000D01*
X97681000Y-107485000D02*
X97681000Y-114314000D01*
X97681000Y-97776000D02*
X97681000Y-104605000D01*
X97641000Y-107485000D02*
X97641000Y-114332000D01*
X97641000Y-97758000D02*
X97641000Y-104605000D01*
X97601000Y-107485000D02*
X97601000Y-114350000D01*
X97601000Y-97740000D02*
X97601000Y-104605000D01*
X97561000Y-107485000D02*
X97561000Y-114368000D01*
X97561000Y-97722000D02*
X97561000Y-104605000D01*
X97521000Y-107485000D02*
X97521000Y-114385000D01*
X97521000Y-97705000D02*
X97521000Y-104605000D01*
X97481000Y-107485000D02*
X97481000Y-114402000D01*
X97481000Y-97688000D02*
X97481000Y-104605000D01*
X97441000Y-107485000D02*
X97441000Y-114419000D01*
X97441000Y-97671000D02*
X97441000Y-104605000D01*
X97401000Y-107485000D02*
X97401000Y-114435000D01*
X97401000Y-97655000D02*
X97401000Y-104605000D01*
X97361000Y-107485000D02*
X97361000Y-114452000D01*
X97361000Y-97638000D02*
X97361000Y-104605000D01*
X97321000Y-107485000D02*
X97321000Y-114468000D01*
X97321000Y-97622000D02*
X97321000Y-104605000D01*
X97281000Y-107485000D02*
X97281000Y-114484000D01*
X97281000Y-97606000D02*
X97281000Y-104605000D01*
X97241000Y-107485000D02*
X97241000Y-114500000D01*
X97241000Y-97590000D02*
X97241000Y-104605000D01*
X97201000Y-107485000D02*
X97201000Y-114515000D01*
X97201000Y-97575000D02*
X97201000Y-104605000D01*
X97161000Y-107485000D02*
X97161000Y-114531000D01*
X97161000Y-97559000D02*
X97161000Y-104605000D01*
X97121000Y-107485000D02*
X97121000Y-114546000D01*
X97121000Y-97544000D02*
X97121000Y-104605000D01*
X97081000Y-107485000D02*
X97081000Y-114561000D01*
X97081000Y-97529000D02*
X97081000Y-104605000D01*
X97041000Y-107485000D02*
X97041000Y-114575000D01*
X97041000Y-97515000D02*
X97041000Y-104605000D01*
X97001000Y-107485000D02*
X97001000Y-114590000D01*
X97001000Y-97500000D02*
X97001000Y-104605000D01*
X96961000Y-107485000D02*
X96961000Y-114604000D01*
X96961000Y-97486000D02*
X96961000Y-104605000D01*
X96921000Y-107485000D02*
X96921000Y-114618000D01*
X96921000Y-97472000D02*
X96921000Y-104605000D01*
X96881000Y-107485000D02*
X96881000Y-114632000D01*
X96881000Y-97458000D02*
X96881000Y-104605000D01*
X96841000Y-107485000D02*
X96841000Y-114645000D01*
X96841000Y-97445000D02*
X96841000Y-104605000D01*
X96801000Y-107485000D02*
X96801000Y-114659000D01*
X96801000Y-97431000D02*
X96801000Y-104605000D01*
X96761000Y-107485000D02*
X96761000Y-114672000D01*
X96761000Y-97418000D02*
X96761000Y-104605000D01*
X96721000Y-107485000D02*
X96721000Y-114685000D01*
X96721000Y-97405000D02*
X96721000Y-104605000D01*
X96681000Y-107485000D02*
X96681000Y-114698000D01*
X96681000Y-97392000D02*
X96681000Y-104605000D01*
X96641000Y-107485000D02*
X96641000Y-114710000D01*
X96641000Y-97380000D02*
X96641000Y-104605000D01*
X96601000Y-107485000D02*
X96601000Y-114723000D01*
X96601000Y-97367000D02*
X96601000Y-104605000D01*
X96561000Y-107485000D02*
X96561000Y-114735000D01*
X96561000Y-97355000D02*
X96561000Y-104605000D01*
X96521000Y-107485000D02*
X96521000Y-114747000D01*
X96521000Y-97343000D02*
X96521000Y-104605000D01*
X96481000Y-107485000D02*
X96481000Y-114759000D01*
X96481000Y-97331000D02*
X96481000Y-104605000D01*
X96441000Y-107485000D02*
X96441000Y-114770000D01*
X96441000Y-97320000D02*
X96441000Y-104605000D01*
X96401000Y-107485000D02*
X96401000Y-114782000D01*
X96401000Y-97308000D02*
X96401000Y-104605000D01*
X96361000Y-107485000D02*
X96361000Y-114793000D01*
X96361000Y-97297000D02*
X96361000Y-104605000D01*
X96321000Y-107485000D02*
X96321000Y-114804000D01*
X96321000Y-97286000D02*
X96321000Y-104605000D01*
X96281000Y-107485000D02*
X96281000Y-114815000D01*
X96281000Y-97275000D02*
X96281000Y-104605000D01*
X96241000Y-107485000D02*
X96241000Y-114825000D01*
X96241000Y-97265000D02*
X96241000Y-104605000D01*
X96201000Y-97254000D02*
X96201000Y-114836000D01*
X96161000Y-97244000D02*
X96161000Y-114846000D01*
X96121000Y-97234000D02*
X96121000Y-114856000D01*
X96081000Y-97224000D02*
X96081000Y-114866000D01*
X96041000Y-97214000D02*
X96041000Y-114876000D01*
X96001000Y-97205000D02*
X96001000Y-114885000D01*
X95961000Y-97196000D02*
X95961000Y-114894000D01*
X95921000Y-97187000D02*
X95921000Y-114903000D01*
X95881000Y-97178000D02*
X95881000Y-114912000D01*
X95841000Y-97169000D02*
X95841000Y-114921000D01*
X95801000Y-97160000D02*
X95801000Y-114930000D01*
X95761000Y-97152000D02*
X95761000Y-114938000D01*
X95721000Y-97144000D02*
X95721000Y-114946000D01*
X95681000Y-97136000D02*
X95681000Y-114954000D01*
X95641000Y-97128000D02*
X95641000Y-114962000D01*
X95601000Y-97121000D02*
X95601000Y-114969000D01*
X95561000Y-97113000D02*
X95561000Y-114977000D01*
X95521000Y-97106000D02*
X95521000Y-114984000D01*
X95481000Y-97099000D02*
X95481000Y-114991000D01*
X95441000Y-97092000D02*
X95441000Y-114998000D01*
X95401000Y-97085000D02*
X95401000Y-115005000D01*
X95361000Y-97079000D02*
X95361000Y-115011000D01*
X95321000Y-97073000D02*
X95321000Y-115017000D01*
X95281000Y-97066000D02*
X95281000Y-115024000D01*
X95241000Y-97061000D02*
X95241000Y-115029000D01*
X95201000Y-97055000D02*
X95201000Y-115035000D01*
X95161000Y-97049000D02*
X95161000Y-115041000D01*
X95121000Y-97044000D02*
X95121000Y-115046000D01*
X95081000Y-97039000D02*
X95081000Y-115051000D01*
X95041000Y-97034000D02*
X95041000Y-115056000D01*
X95001000Y-97029000D02*
X95001000Y-115061000D01*
X94961000Y-97024000D02*
X94961000Y-115066000D01*
X94921000Y-97019000D02*
X94921000Y-115071000D01*
X94881000Y-97015000D02*
X94881000Y-115075000D01*
X94841000Y-97011000D02*
X94841000Y-115079000D01*
X94801000Y-97007000D02*
X94801000Y-115083000D01*
X94761000Y-97003000D02*
X94761000Y-115087000D01*
X94721000Y-97000000D02*
X94721000Y-115090000D01*
X94681000Y-96996000D02*
X94681000Y-115094000D01*
X94641000Y-96993000D02*
X94641000Y-115097000D01*
X94600000Y-96990000D02*
X94600000Y-115100000D01*
X94560000Y-96987000D02*
X94560000Y-115103000D01*
X94520000Y-96984000D02*
X94520000Y-115106000D01*
X94480000Y-96982000D02*
X94480000Y-115108000D01*
X94440000Y-96979000D02*
X94440000Y-115111000D01*
X94400000Y-96977000D02*
X94400000Y-115113000D01*
X94360000Y-96975000D02*
X94360000Y-115115000D01*
X94320000Y-96973000D02*
X94320000Y-115117000D01*
X94280000Y-96972000D02*
X94280000Y-115118000D01*
X94240000Y-96970000D02*
X94240000Y-115120000D01*
X94200000Y-96969000D02*
X94200000Y-115121000D01*
X94160000Y-96968000D02*
X94160000Y-115122000D01*
X94120000Y-96967000D02*
X94120000Y-115123000D01*
X94080000Y-96966000D02*
X94080000Y-115124000D01*
X94040000Y-96965000D02*
X94040000Y-115125000D01*
X94000000Y-96965000D02*
X94000000Y-115125000D01*
X93960000Y-96965000D02*
X93960000Y-115125000D01*
X93920000Y-96964000D02*
X93920000Y-115126000D01*
X103040000Y-106045000D02*
G75*
G03X103040000Y-106045000I-9120000J0D01*
G01*
G04 #@! TO.C,C5*
X106330000Y-117321000D02*
X106330000Y-118579000D01*
X104490000Y-117321000D02*
X104490000Y-118579000D01*
G04 #@! TO.C,SIG*
X76870000Y-163890000D02*
X79530000Y-163890000D01*
X76870000Y-128270000D02*
X76870000Y-163890000D01*
X79530000Y-128270000D02*
X79530000Y-163890000D01*
X76870000Y-128270000D02*
X79530000Y-128270000D01*
X76870000Y-127000000D02*
X76870000Y-125670000D01*
X76870000Y-125670000D02*
X78200000Y-125670000D01*
X107255000Y-156270000D02*
X109915000Y-156270000D01*
X107255000Y-133350000D02*
X107255000Y-156270000D01*
X109915000Y-133350000D02*
X109915000Y-156270000D01*
X107255000Y-133350000D02*
X109915000Y-133350000D01*
X107255000Y-132080000D02*
X107255000Y-130750000D01*
X107255000Y-130750000D02*
X108585000Y-130750000D01*
G04 #@! TO.C,JA3*
X117535000Y-163890000D02*
X117535000Y-161230000D01*
X109855000Y-163890000D02*
X117535000Y-163890000D01*
X109855000Y-161230000D02*
X117535000Y-161230000D01*
X109855000Y-163890000D02*
X109855000Y-161230000D01*
X108585000Y-163890000D02*
X107255000Y-163890000D01*
X107255000Y-163890000D02*
X107255000Y-162560000D01*
G04 #@! TO.C,+5V*
X74270000Y-125670000D02*
X75600000Y-125670000D01*
X74270000Y-127000000D02*
X74270000Y-125670000D01*
X74270000Y-128270000D02*
X76930000Y-128270000D01*
X76930000Y-128270000D02*
X76930000Y-163890000D01*
X74270000Y-128270000D02*
X74270000Y-163890000D01*
X74270000Y-163890000D02*
X76930000Y-163890000D01*
G04 #@! TO.C,GND*
X71670000Y-163890000D02*
X74330000Y-163890000D01*
X71670000Y-128270000D02*
X71670000Y-163890000D01*
X74330000Y-128270000D02*
X74330000Y-163890000D01*
X71670000Y-128270000D02*
X74330000Y-128270000D01*
X71670000Y-127000000D02*
X71670000Y-125670000D01*
X71670000Y-125670000D02*
X73000000Y-125670000D01*
X112470000Y-130770000D02*
X113800000Y-130770000D01*
X112470000Y-132100000D02*
X112470000Y-130770000D01*
X112470000Y-133370000D02*
X115130000Y-133370000D01*
X115130000Y-133370000D02*
X115130000Y-156290000D01*
X112470000Y-133370000D02*
X112470000Y-156290000D01*
X112470000Y-156290000D02*
X115130000Y-156290000D01*
G04 #@! TO.C,+5V*
X109870000Y-156270000D02*
X112530000Y-156270000D01*
X109870000Y-133350000D02*
X109870000Y-156270000D01*
X112530000Y-133350000D02*
X112530000Y-156270000D01*
X109870000Y-133350000D02*
X112530000Y-133350000D01*
X109870000Y-132080000D02*
X109870000Y-130750000D01*
X109870000Y-130750000D02*
X111200000Y-130750000D01*
G04 #@! TO.C,R1*
X111030000Y-118645000D02*
X111030000Y-121385000D01*
X111030000Y-121385000D02*
X117570000Y-121385000D01*
X117570000Y-121385000D02*
X117570000Y-118645000D01*
X117570000Y-118645000D02*
X111030000Y-118645000D01*
X110260000Y-120015000D02*
X111030000Y-120015000D01*
X118340000Y-120015000D02*
X117570000Y-120015000D01*
G04 #@! TO.C,R2*
X110260000Y-124460000D02*
X111030000Y-124460000D01*
X118340000Y-124460000D02*
X117570000Y-124460000D01*
X111030000Y-125830000D02*
X117570000Y-125830000D01*
X111030000Y-123090000D02*
X111030000Y-125830000D01*
X117570000Y-123090000D02*
X111030000Y-123090000D01*
X117570000Y-125830000D02*
X117570000Y-123090000D01*
G04 #@! TO.C,IN+*
X94900000Y-125600000D02*
X94900000Y-123600000D01*
X97700000Y-125600000D02*
X94900000Y-125600000D01*
X97700000Y-123600000D02*
X97700000Y-125600000D01*
X94900000Y-123600000D02*
X97700000Y-123600000D01*
G04 #@! TO.C,DC-DC_5V*
D13*
X90333333Y-141052380D02*
X90333333Y-140052380D01*
X90571428Y-140052380D01*
X90714285Y-140100000D01*
X90809523Y-140195238D01*
X90857142Y-140290476D01*
X90904761Y-140480952D01*
X90904761Y-140623809D01*
X90857142Y-140814285D01*
X90809523Y-140909523D01*
X90714285Y-141004761D01*
X90571428Y-141052380D01*
X90333333Y-141052380D01*
X91904761Y-140957142D02*
X91857142Y-141004761D01*
X91714285Y-141052380D01*
X91619047Y-141052380D01*
X91476190Y-141004761D01*
X91380952Y-140909523D01*
X91333333Y-140814285D01*
X91285714Y-140623809D01*
X91285714Y-140480952D01*
X91333333Y-140290476D01*
X91380952Y-140195238D01*
X91476190Y-140100000D01*
X91619047Y-140052380D01*
X91714285Y-140052380D01*
X91857142Y-140100000D01*
X91904761Y-140147619D01*
X92333333Y-140671428D02*
X93095238Y-140671428D01*
X93571428Y-141052380D02*
X93571428Y-140052380D01*
X93809523Y-140052380D01*
X93952380Y-140100000D01*
X94047619Y-140195238D01*
X94095238Y-140290476D01*
X94142857Y-140480952D01*
X94142857Y-140623809D01*
X94095238Y-140814285D01*
X94047619Y-140909523D01*
X93952380Y-141004761D01*
X93809523Y-141052380D01*
X93571428Y-141052380D01*
X95142857Y-140957142D02*
X95095238Y-141004761D01*
X94952380Y-141052380D01*
X94857142Y-141052380D01*
X94714285Y-141004761D01*
X94619047Y-140909523D01*
X94571428Y-140814285D01*
X94523809Y-140623809D01*
X94523809Y-140480952D01*
X94571428Y-140290476D01*
X94619047Y-140195238D01*
X94714285Y-140100000D01*
X94857142Y-140052380D01*
X94952380Y-140052380D01*
X95095238Y-140100000D01*
X95142857Y-140147619D01*
X95333333Y-141147619D02*
X96095238Y-141147619D01*
X96809523Y-140052380D02*
X96333333Y-140052380D01*
X96285714Y-140528571D01*
X96333333Y-140480952D01*
X96428571Y-140433333D01*
X96666666Y-140433333D01*
X96761904Y-140480952D01*
X96809523Y-140528571D01*
X96857142Y-140623809D01*
X96857142Y-140861904D01*
X96809523Y-140957142D01*
X96761904Y-141004761D01*
X96666666Y-141052380D01*
X96428571Y-141052380D01*
X96333333Y-141004761D01*
X96285714Y-140957142D01*
X97142857Y-140052380D02*
X97476190Y-141052380D01*
X97809523Y-140052380D01*
G04 #@! TO.C,Arduino Nano*
X88942857Y-119666666D02*
X89419047Y-119666666D01*
X88847619Y-119952380D02*
X89180952Y-118952380D01*
X89514285Y-119952380D01*
X89847619Y-119952380D02*
X89847619Y-119285714D01*
X89847619Y-119476190D02*
X89895238Y-119380952D01*
X89942857Y-119333333D01*
X90038095Y-119285714D01*
X90133333Y-119285714D01*
X90895238Y-119952380D02*
X90895238Y-118952380D01*
X90895238Y-119904761D02*
X90800000Y-119952380D01*
X90609523Y-119952380D01*
X90514285Y-119904761D01*
X90466666Y-119857142D01*
X90419047Y-119761904D01*
X90419047Y-119476190D01*
X90466666Y-119380952D01*
X90514285Y-119333333D01*
X90609523Y-119285714D01*
X90800000Y-119285714D01*
X90895238Y-119333333D01*
X91800000Y-119285714D02*
X91800000Y-119952380D01*
X91371428Y-119285714D02*
X91371428Y-119809523D01*
X91419047Y-119904761D01*
X91514285Y-119952380D01*
X91657142Y-119952380D01*
X91752380Y-119904761D01*
X91800000Y-119857142D01*
X92276190Y-119952380D02*
X92276190Y-119285714D01*
X92276190Y-118952380D02*
X92228571Y-119000000D01*
X92276190Y-119047619D01*
X92323809Y-119000000D01*
X92276190Y-118952380D01*
X92276190Y-119047619D01*
X92752380Y-119285714D02*
X92752380Y-119952380D01*
X92752380Y-119380952D02*
X92800000Y-119333333D01*
X92895238Y-119285714D01*
X93038095Y-119285714D01*
X93133333Y-119333333D01*
X93180952Y-119428571D01*
X93180952Y-119952380D01*
X93800000Y-119952380D02*
X93704761Y-119904761D01*
X93657142Y-119857142D01*
X93609523Y-119761904D01*
X93609523Y-119476190D01*
X93657142Y-119380952D01*
X93704761Y-119333333D01*
X93800000Y-119285714D01*
X93942857Y-119285714D01*
X94038095Y-119333333D01*
X94085714Y-119380952D01*
X94133333Y-119476190D01*
X94133333Y-119761904D01*
X94085714Y-119857142D01*
X94038095Y-119904761D01*
X93942857Y-119952380D01*
X93800000Y-119952380D01*
X95323809Y-119952380D02*
X95323809Y-118952380D01*
X95895238Y-119952380D01*
X95895238Y-118952380D01*
X96800000Y-119952380D02*
X96800000Y-119428571D01*
X96752380Y-119333333D01*
X96657142Y-119285714D01*
X96466666Y-119285714D01*
X96371428Y-119333333D01*
X96800000Y-119904761D02*
X96704761Y-119952380D01*
X96466666Y-119952380D01*
X96371428Y-119904761D01*
X96323809Y-119809523D01*
X96323809Y-119714285D01*
X96371428Y-119619047D01*
X96466666Y-119571428D01*
X96704761Y-119571428D01*
X96800000Y-119523809D01*
X97276190Y-119285714D02*
X97276190Y-119952380D01*
X97276190Y-119380952D02*
X97323809Y-119333333D01*
X97419047Y-119285714D01*
X97561904Y-119285714D01*
X97657142Y-119333333D01*
X97704761Y-119428571D01*
X97704761Y-119952380D01*
X98323809Y-119952380D02*
X98228571Y-119904761D01*
X98180952Y-119857142D01*
X98133333Y-119761904D01*
X98133333Y-119476190D01*
X98180952Y-119380952D01*
X98228571Y-119333333D01*
X98323809Y-119285714D01*
X98466666Y-119285714D01*
X98561904Y-119333333D01*
X98609523Y-119380952D01*
X98657142Y-119476190D01*
X98657142Y-119761904D01*
X98609523Y-119857142D01*
X98561904Y-119904761D01*
X98466666Y-119952380D01*
X98323809Y-119952380D01*
G04 #@! TO.C,C1*
X86733333Y-76457142D02*
X86685714Y-76504761D01*
X86542857Y-76552380D01*
X86447619Y-76552380D01*
X86304761Y-76504761D01*
X86209523Y-76409523D01*
X86161904Y-76314285D01*
X86114285Y-76123809D01*
X86114285Y-75980952D01*
X86161904Y-75790476D01*
X86209523Y-75695238D01*
X86304761Y-75600000D01*
X86447619Y-75552380D01*
X86542857Y-75552380D01*
X86685714Y-75600000D01*
X86733333Y-75647619D01*
X87685714Y-76552380D02*
X87114285Y-76552380D01*
X87400000Y-76552380D02*
X87400000Y-75552380D01*
X87304761Y-75695238D01*
X87209523Y-75790476D01*
X87114285Y-75838095D01*
G04 #@! TO.C,C2*
X106933333Y-76457142D02*
X106885714Y-76504761D01*
X106742857Y-76552380D01*
X106647619Y-76552380D01*
X106504761Y-76504761D01*
X106409523Y-76409523D01*
X106361904Y-76314285D01*
X106314285Y-76123809D01*
X106314285Y-75980952D01*
X106361904Y-75790476D01*
X106409523Y-75695238D01*
X106504761Y-75600000D01*
X106647619Y-75552380D01*
X106742857Y-75552380D01*
X106885714Y-75600000D01*
X106933333Y-75647619D01*
X107314285Y-75647619D02*
X107361904Y-75600000D01*
X107457142Y-75552380D01*
X107695238Y-75552380D01*
X107790476Y-75600000D01*
X107838095Y-75647619D01*
X107885714Y-75742857D01*
X107885714Y-75838095D01*
X107838095Y-75980952D01*
X107266666Y-76552380D01*
X107885714Y-76552380D01*
G04 #@! TO.C,C3*
X106333333Y-98257142D02*
X106285714Y-98304761D01*
X106142857Y-98352380D01*
X106047619Y-98352380D01*
X105904761Y-98304761D01*
X105809523Y-98209523D01*
X105761904Y-98114285D01*
X105714285Y-97923809D01*
X105714285Y-97780952D01*
X105761904Y-97590476D01*
X105809523Y-97495238D01*
X105904761Y-97400000D01*
X106047619Y-97352380D01*
X106142857Y-97352380D01*
X106285714Y-97400000D01*
X106333333Y-97447619D01*
X106666666Y-97352380D02*
X107285714Y-97352380D01*
X106952380Y-97733333D01*
X107095238Y-97733333D01*
X107190476Y-97780952D01*
X107238095Y-97828571D01*
X107285714Y-97923809D01*
X107285714Y-98161904D01*
X107238095Y-98257142D01*
X107190476Y-98304761D01*
X107095238Y-98352380D01*
X106809523Y-98352380D01*
X106714285Y-98304761D01*
X106666666Y-98257142D01*
G04 #@! TO.C,C4*
X86833333Y-98057142D02*
X86785714Y-98104761D01*
X86642857Y-98152380D01*
X86547619Y-98152380D01*
X86404761Y-98104761D01*
X86309523Y-98009523D01*
X86261904Y-97914285D01*
X86214285Y-97723809D01*
X86214285Y-97580952D01*
X86261904Y-97390476D01*
X86309523Y-97295238D01*
X86404761Y-97200000D01*
X86547619Y-97152380D01*
X86642857Y-97152380D01*
X86785714Y-97200000D01*
X86833333Y-97247619D01*
X87690476Y-97485714D02*
X87690476Y-98152380D01*
X87452380Y-97104761D02*
X87214285Y-97819047D01*
X87833333Y-97819047D01*
G04 #@! TO.C,C5*
X107817142Y-118116666D02*
X107864761Y-118164285D01*
X107912380Y-118307142D01*
X107912380Y-118402380D01*
X107864761Y-118545238D01*
X107769523Y-118640476D01*
X107674285Y-118688095D01*
X107483809Y-118735714D01*
X107340952Y-118735714D01*
X107150476Y-118688095D01*
X107055238Y-118640476D01*
X106960000Y-118545238D01*
X106912380Y-118402380D01*
X106912380Y-118307142D01*
X106960000Y-118164285D01*
X107007619Y-118116666D01*
X106912380Y-117211904D02*
X106912380Y-117688095D01*
X107388571Y-117735714D01*
X107340952Y-117688095D01*
X107293333Y-117592857D01*
X107293333Y-117354761D01*
X107340952Y-117259523D01*
X107388571Y-117211904D01*
X107483809Y-117164285D01*
X107721904Y-117164285D01*
X107817142Y-117211904D01*
X107864761Y-117259523D01*
X107912380Y-117354761D01*
X107912380Y-117592857D01*
X107864761Y-117688095D01*
X107817142Y-117735714D01*
X103812380Y-119497619D02*
X103812380Y-120069047D01*
X103812380Y-119783333D02*
X102812380Y-119783333D01*
X102955238Y-119878571D01*
X103050476Y-119973809D01*
X103098095Y-120069047D01*
X102812380Y-118878571D02*
X102812380Y-118783333D01*
X102860000Y-118688095D01*
X102907619Y-118640476D01*
X103002857Y-118592857D01*
X103193333Y-118545238D01*
X103431428Y-118545238D01*
X103621904Y-118592857D01*
X103717142Y-118640476D01*
X103764761Y-118688095D01*
X103812380Y-118783333D01*
X103812380Y-118878571D01*
X103764761Y-118973809D01*
X103717142Y-119021428D01*
X103621904Y-119069047D01*
X103431428Y-119116666D01*
X103193333Y-119116666D01*
X103002857Y-119069047D01*
X102907619Y-119021428D01*
X102860000Y-118973809D01*
X102812380Y-118878571D01*
X102812380Y-117926190D02*
X102812380Y-117830952D01*
X102860000Y-117735714D01*
X102907619Y-117688095D01*
X103002857Y-117640476D01*
X103193333Y-117592857D01*
X103431428Y-117592857D01*
X103621904Y-117640476D01*
X103717142Y-117688095D01*
X103764761Y-117735714D01*
X103812380Y-117830952D01*
X103812380Y-117926190D01*
X103764761Y-118021428D01*
X103717142Y-118069047D01*
X103621904Y-118116666D01*
X103431428Y-118164285D01*
X103193333Y-118164285D01*
X103002857Y-118116666D01*
X102907619Y-118069047D01*
X102860000Y-118021428D01*
X102812380Y-117926190D01*
X103145714Y-117164285D02*
X103812380Y-117164285D01*
X103240952Y-117164285D02*
X103193333Y-117116666D01*
X103145714Y-117021428D01*
X103145714Y-116878571D01*
X103193333Y-116783333D01*
X103288571Y-116735714D01*
X103812380Y-116735714D01*
X103288571Y-115926190D02*
X103288571Y-116259523D01*
X103812380Y-116259523D02*
X102812380Y-116259523D01*
X102812380Y-115783333D01*
G04 #@! TO.C,SIG*
X77976190Y-125104761D02*
X78119047Y-125152380D01*
X78357142Y-125152380D01*
X78452380Y-125104761D01*
X78500000Y-125057142D01*
X78547619Y-124961904D01*
X78547619Y-124866666D01*
X78500000Y-124771428D01*
X78452380Y-124723809D01*
X78357142Y-124676190D01*
X78166666Y-124628571D01*
X78071428Y-124580952D01*
X78023809Y-124533333D01*
X77976190Y-124438095D01*
X77976190Y-124342857D01*
X78023809Y-124247619D01*
X78071428Y-124200000D01*
X78166666Y-124152380D01*
X78404761Y-124152380D01*
X78547619Y-124200000D01*
X78976190Y-125152380D02*
X78976190Y-124152380D01*
X79976190Y-124200000D02*
X79880952Y-124152380D01*
X79738095Y-124152380D01*
X79595238Y-124200000D01*
X79500000Y-124295238D01*
X79452380Y-124390476D01*
X79404761Y-124580952D01*
X79404761Y-124723809D01*
X79452380Y-124914285D01*
X79500000Y-125009523D01*
X79595238Y-125104761D01*
X79738095Y-125152380D01*
X79833333Y-125152380D01*
X79976190Y-125104761D01*
X80023809Y-125057142D01*
X80023809Y-124723809D01*
X79833333Y-124723809D01*
X107276190Y-130154761D02*
X107419047Y-130202380D01*
X107657142Y-130202380D01*
X107752380Y-130154761D01*
X107800000Y-130107142D01*
X107847619Y-130011904D01*
X107847619Y-129916666D01*
X107800000Y-129821428D01*
X107752380Y-129773809D01*
X107657142Y-129726190D01*
X107466666Y-129678571D01*
X107371428Y-129630952D01*
X107323809Y-129583333D01*
X107276190Y-129488095D01*
X107276190Y-129392857D01*
X107323809Y-129297619D01*
X107371428Y-129250000D01*
X107466666Y-129202380D01*
X107704761Y-129202380D01*
X107847619Y-129250000D01*
X108276190Y-130202380D02*
X108276190Y-129202380D01*
X109276190Y-129250000D02*
X109180952Y-129202380D01*
X109038095Y-129202380D01*
X108895238Y-129250000D01*
X108800000Y-129345238D01*
X108752380Y-129440476D01*
X108704761Y-129630952D01*
X108704761Y-129773809D01*
X108752380Y-129964285D01*
X108800000Y-130059523D01*
X108895238Y-130154761D01*
X109038095Y-130202380D01*
X109133333Y-130202380D01*
X109276190Y-130154761D01*
X109323809Y-130107142D01*
X109323809Y-129773809D01*
X109133333Y-129773809D01*
G04 #@! TO.C,+5V*
X74314285Y-124741428D02*
X75076190Y-124741428D01*
X74695238Y-125122380D02*
X74695238Y-124360476D01*
X76028571Y-124122380D02*
X75552380Y-124122380D01*
X75504761Y-124598571D01*
X75552380Y-124550952D01*
X75647619Y-124503333D01*
X75885714Y-124503333D01*
X75980952Y-124550952D01*
X76028571Y-124598571D01*
X76076190Y-124693809D01*
X76076190Y-124931904D01*
X76028571Y-125027142D01*
X75980952Y-125074761D01*
X75885714Y-125122380D01*
X75647619Y-125122380D01*
X75552380Y-125074761D01*
X75504761Y-125027142D01*
X76361904Y-124122380D02*
X76695238Y-125122380D01*
X77028571Y-124122380D01*
G04 #@! TO.C,GND*
X71638095Y-124170000D02*
X71542857Y-124122380D01*
X71400000Y-124122380D01*
X71257142Y-124170000D01*
X71161904Y-124265238D01*
X71114285Y-124360476D01*
X71066666Y-124550952D01*
X71066666Y-124693809D01*
X71114285Y-124884285D01*
X71161904Y-124979523D01*
X71257142Y-125074761D01*
X71400000Y-125122380D01*
X71495238Y-125122380D01*
X71638095Y-125074761D01*
X71685714Y-125027142D01*
X71685714Y-124693809D01*
X71495238Y-124693809D01*
X72114285Y-125122380D02*
X72114285Y-124122380D01*
X72685714Y-125122380D01*
X72685714Y-124122380D01*
X73161904Y-125122380D02*
X73161904Y-124122380D01*
X73400000Y-124122380D01*
X73542857Y-124170000D01*
X73638095Y-124265238D01*
X73685714Y-124360476D01*
X73733333Y-124550952D01*
X73733333Y-124693809D01*
X73685714Y-124884285D01*
X73638095Y-124979523D01*
X73542857Y-125074761D01*
X73400000Y-125122380D01*
X73161904Y-125122380D01*
X113438095Y-129270000D02*
X113342857Y-129222380D01*
X113200000Y-129222380D01*
X113057142Y-129270000D01*
X112961904Y-129365238D01*
X112914285Y-129460476D01*
X112866666Y-129650952D01*
X112866666Y-129793809D01*
X112914285Y-129984285D01*
X112961904Y-130079523D01*
X113057142Y-130174761D01*
X113200000Y-130222380D01*
X113295238Y-130222380D01*
X113438095Y-130174761D01*
X113485714Y-130127142D01*
X113485714Y-129793809D01*
X113295238Y-129793809D01*
X113914285Y-130222380D02*
X113914285Y-129222380D01*
X114485714Y-130222380D01*
X114485714Y-129222380D01*
X114961904Y-130222380D02*
X114961904Y-129222380D01*
X115200000Y-129222380D01*
X115342857Y-129270000D01*
X115438095Y-129365238D01*
X115485714Y-129460476D01*
X115533333Y-129650952D01*
X115533333Y-129793809D01*
X115485714Y-129984285D01*
X115438095Y-130079523D01*
X115342857Y-130174761D01*
X115200000Y-130222380D01*
X114961904Y-130222380D01*
G04 #@! TO.C,+5V*
X109714285Y-129821428D02*
X110476190Y-129821428D01*
X110095238Y-130202380D02*
X110095238Y-129440476D01*
X111428571Y-129202380D02*
X110952380Y-129202380D01*
X110904761Y-129678571D01*
X110952380Y-129630952D01*
X111047619Y-129583333D01*
X111285714Y-129583333D01*
X111380952Y-129630952D01*
X111428571Y-129678571D01*
X111476190Y-129773809D01*
X111476190Y-130011904D01*
X111428571Y-130107142D01*
X111380952Y-130154761D01*
X111285714Y-130202380D01*
X111047619Y-130202380D01*
X110952380Y-130154761D01*
X110904761Y-130107142D01*
X111761904Y-129202380D02*
X112095238Y-130202380D01*
X112428571Y-129202380D01*
G04 #@! TO.C,R1*
X114133333Y-118097380D02*
X113800000Y-117621190D01*
X113561904Y-118097380D02*
X113561904Y-117097380D01*
X113942857Y-117097380D01*
X114038095Y-117145000D01*
X114085714Y-117192619D01*
X114133333Y-117287857D01*
X114133333Y-117430714D01*
X114085714Y-117525952D01*
X114038095Y-117573571D01*
X113942857Y-117621190D01*
X113561904Y-117621190D01*
X115085714Y-118097380D02*
X114514285Y-118097380D01*
X114800000Y-118097380D02*
X114800000Y-117097380D01*
X114704761Y-117240238D01*
X114609523Y-117335476D01*
X114514285Y-117383095D01*
G04 #@! TO.C,R2*
X114133333Y-127282380D02*
X113800000Y-126806190D01*
X113561904Y-127282380D02*
X113561904Y-126282380D01*
X113942857Y-126282380D01*
X114038095Y-126330000D01*
X114085714Y-126377619D01*
X114133333Y-126472857D01*
X114133333Y-126615714D01*
X114085714Y-126710952D01*
X114038095Y-126758571D01*
X113942857Y-126806190D01*
X113561904Y-126806190D01*
X114514285Y-126377619D02*
X114561904Y-126330000D01*
X114657142Y-126282380D01*
X114895238Y-126282380D01*
X114990476Y-126330000D01*
X115038095Y-126377619D01*
X115085714Y-126472857D01*
X115085714Y-126568095D01*
X115038095Y-126710952D01*
X114466666Y-127282380D01*
X115085714Y-127282380D01*
G04 #@! TO.C,IN+*
X95157142Y-123252380D02*
X95157142Y-122252380D01*
X95633333Y-123252380D02*
X95633333Y-122252380D01*
X96204761Y-123252380D01*
X96204761Y-122252380D01*
X96680952Y-122871428D02*
X97442857Y-122871428D01*
X97061904Y-123252380D02*
X97061904Y-122490476D01*
X94133333Y-125952380D02*
X94133333Y-126666666D01*
X94085714Y-126809523D01*
X93990476Y-126904761D01*
X93847619Y-126952380D01*
X93752380Y-126952380D01*
X95038095Y-126285714D02*
X95038095Y-126952380D01*
X94609523Y-126285714D02*
X94609523Y-126809523D01*
X94657142Y-126904761D01*
X94752380Y-126952380D01*
X94895238Y-126952380D01*
X94990476Y-126904761D01*
X95038095Y-126857142D01*
X95514285Y-126952380D02*
X95514285Y-126285714D01*
X95514285Y-126380952D02*
X95561904Y-126333333D01*
X95657142Y-126285714D01*
X95800000Y-126285714D01*
X95895238Y-126333333D01*
X95942857Y-126428571D01*
X95942857Y-126952380D01*
X95942857Y-126428571D02*
X95990476Y-126333333D01*
X96085714Y-126285714D01*
X96228571Y-126285714D01*
X96323809Y-126333333D01*
X96371428Y-126428571D01*
X96371428Y-126952380D01*
X96847619Y-126285714D02*
X96847619Y-127285714D01*
X96847619Y-126333333D02*
X96942857Y-126285714D01*
X97133333Y-126285714D01*
X97228571Y-126333333D01*
X97276190Y-126380952D01*
X97323809Y-126476190D01*
X97323809Y-126761904D01*
X97276190Y-126857142D01*
X97228571Y-126904761D01*
X97133333Y-126952380D01*
X96942857Y-126952380D01*
X96847619Y-126904761D01*
X98133333Y-126904761D02*
X98038095Y-126952380D01*
X97847619Y-126952380D01*
X97752380Y-126904761D01*
X97704761Y-126809523D01*
X97704761Y-126428571D01*
X97752380Y-126333333D01*
X97847619Y-126285714D01*
X98038095Y-126285714D01*
X98133333Y-126333333D01*
X98180952Y-126428571D01*
X98180952Y-126523809D01*
X97704761Y-126619047D01*
X98609523Y-126952380D02*
X98609523Y-126285714D01*
X98609523Y-126476190D02*
X98657142Y-126380952D01*
X98704761Y-126333333D01*
X98800000Y-126285714D01*
X98895238Y-126285714D01*
G04 #@! TD*
%LPC*%
D14*
G04 #@! TO.C,J1*
X76150000Y-106500000D03*
X76150000Y-99000000D03*
G04 #@! TD*
G04 #@! TO.C,J1*
X76150000Y-89100000D03*
X76150000Y-81600000D03*
G04 #@! TD*
D10*
G04 #@! TO.C,J3*
G36*
X75061975Y-115850276D02*
X75087699Y-115854092D01*
X75112925Y-115860411D01*
X75137411Y-115869172D01*
X75160920Y-115880291D01*
X75183226Y-115893661D01*
X75204114Y-115909152D01*
X75223383Y-115926617D01*
X75240848Y-115945886D01*
X75256339Y-115966774D01*
X75269709Y-115989080D01*
X75280828Y-116012589D01*
X75289589Y-116037075D01*
X75295908Y-116062301D01*
X75299724Y-116088025D01*
X75301000Y-116114000D01*
X75301000Y-117686000D01*
X75299724Y-117711975D01*
X75295908Y-117737699D01*
X75289589Y-117762925D01*
X75280828Y-117787411D01*
X75269709Y-117810920D01*
X75256339Y-117833226D01*
X75240848Y-117854114D01*
X75223383Y-117873383D01*
X75204114Y-117890848D01*
X75183226Y-117906339D01*
X75160920Y-117919709D01*
X75137411Y-117930828D01*
X75112925Y-117939589D01*
X75087699Y-117945908D01*
X75061975Y-117949724D01*
X75036000Y-117951000D01*
X73764000Y-117951000D01*
X73738025Y-117949724D01*
X73712301Y-117945908D01*
X73687075Y-117939589D01*
X73662589Y-117930828D01*
X73639080Y-117919709D01*
X73616774Y-117906339D01*
X73595886Y-117890848D01*
X73576617Y-117873383D01*
X73559152Y-117854114D01*
X73543661Y-117833226D01*
X73530291Y-117810920D01*
X73519172Y-117787411D01*
X73510411Y-117762925D01*
X73504092Y-117737699D01*
X73500276Y-117711975D01*
X73499000Y-117686000D01*
X73499000Y-116114000D01*
X73500276Y-116088025D01*
X73504092Y-116062301D01*
X73510411Y-116037075D01*
X73519172Y-116012589D01*
X73530291Y-115989080D01*
X73543661Y-115966774D01*
X73559152Y-115945886D01*
X73576617Y-115926617D01*
X73595886Y-115909152D01*
X73616774Y-115893661D01*
X73639080Y-115880291D01*
X73662589Y-115869172D01*
X73687075Y-115860411D01*
X73712301Y-115854092D01*
X73738025Y-115850276D01*
X73764000Y-115849000D01*
X75036000Y-115849000D01*
X75061975Y-115850276D01*
X75061975Y-115850276D01*
G37*
D15*
X74400000Y-116900000D03*
D16*
X76900000Y-116900000D03*
G04 #@! TD*
D17*
G04 #@! TO.C,DC-DC_5V*
X97790000Y-146050000D03*
X95250000Y-146050000D03*
X92710000Y-146050000D03*
D18*
X90170000Y-146050000D03*
G04 #@! TD*
D19*
G04 #@! TO.C,Arduino Nano*
X86360000Y-124460000D03*
D20*
X101600000Y-157480000D03*
X86360000Y-127000000D03*
X101600000Y-154940000D03*
X86360000Y-129540000D03*
X101600000Y-152400000D03*
X86360000Y-132080000D03*
X101600000Y-149860000D03*
X86360000Y-134620000D03*
X101600000Y-147320000D03*
X86360000Y-137160000D03*
X101600000Y-144780000D03*
X86360000Y-139700000D03*
X101600000Y-142240000D03*
X86360000Y-142240000D03*
X101600000Y-139700000D03*
X86360000Y-144780000D03*
X101600000Y-137160000D03*
X86360000Y-147320000D03*
X101600000Y-134620000D03*
X86360000Y-149860000D03*
X101600000Y-132080000D03*
X86360000Y-152400000D03*
X101600000Y-129540000D03*
X86360000Y-154940000D03*
X101600000Y-127000000D03*
X86360000Y-157480000D03*
X101600000Y-124460000D03*
X86360000Y-160020000D03*
X101600000Y-160020000D03*
D21*
X86360000Y-121920000D03*
X101600000Y-121920000D03*
X101600000Y-162560000D03*
X86360000Y-162560000D03*
G04 #@! TD*
D22*
G04 #@! TO.C,C1*
X90170000Y-84455000D03*
D23*
X97670000Y-84455000D03*
G04 #@! TD*
G04 #@! TO.C,C2*
X117355000Y-84455000D03*
D22*
X109855000Y-84455000D03*
G04 #@! TD*
G04 #@! TO.C,C3*
X109855000Y-106045000D03*
D23*
X117355000Y-106045000D03*
G04 #@! TD*
G04 #@! TO.C,C4*
X97670000Y-106045000D03*
D22*
X90170000Y-106045000D03*
G04 #@! TD*
D24*
G04 #@! TO.C,C5*
X105410000Y-116700000D03*
X105410000Y-119200000D03*
G04 #@! TD*
D18*
G04 #@! TO.C,SIG*
X78200000Y-127000000D03*
D17*
X78200000Y-129540000D03*
X78200000Y-132080000D03*
X78200000Y-134620000D03*
X78200000Y-137160000D03*
X78200000Y-139700000D03*
X78200000Y-142240000D03*
X78200000Y-144780000D03*
X78200000Y-147320000D03*
X78200000Y-149860000D03*
X78200000Y-152400000D03*
X78200000Y-154940000D03*
X78200000Y-157480000D03*
X78200000Y-160020000D03*
X78200000Y-162560000D03*
G04 #@! TD*
D18*
G04 #@! TO.C,SIG*
X108585000Y-132080000D03*
D17*
X108585000Y-134620000D03*
X108585000Y-137160000D03*
X108585000Y-139700000D03*
X108585000Y-142240000D03*
X108585000Y-144780000D03*
X108585000Y-147320000D03*
X108585000Y-149860000D03*
X108585000Y-152400000D03*
X108585000Y-154940000D03*
G04 #@! TD*
D18*
G04 #@! TO.C,JA3*
X108585000Y-162560000D03*
D17*
X111125000Y-162560000D03*
X113665000Y-162560000D03*
X116205000Y-162560000D03*
G04 #@! TD*
G04 #@! TO.C,+5V*
X75600000Y-162560000D03*
X75600000Y-160020000D03*
X75600000Y-157480000D03*
X75600000Y-154940000D03*
X75600000Y-152400000D03*
X75600000Y-149860000D03*
X75600000Y-147320000D03*
X75600000Y-144780000D03*
X75600000Y-142240000D03*
X75600000Y-139700000D03*
X75600000Y-137160000D03*
X75600000Y-134620000D03*
X75600000Y-132080000D03*
X75600000Y-129540000D03*
D18*
X75600000Y-127000000D03*
G04 #@! TD*
G04 #@! TO.C,GND*
X73000000Y-127000000D03*
D17*
X73000000Y-129540000D03*
X73000000Y-132080000D03*
X73000000Y-134620000D03*
X73000000Y-137160000D03*
X73000000Y-139700000D03*
X73000000Y-142240000D03*
X73000000Y-144780000D03*
X73000000Y-147320000D03*
X73000000Y-149860000D03*
X73000000Y-152400000D03*
X73000000Y-154940000D03*
X73000000Y-157480000D03*
X73000000Y-160020000D03*
X73000000Y-162560000D03*
G04 #@! TD*
G04 #@! TO.C,GND*
X113800000Y-154960000D03*
X113800000Y-152420000D03*
X113800000Y-149880000D03*
X113800000Y-147340000D03*
X113800000Y-144800000D03*
X113800000Y-142260000D03*
X113800000Y-139720000D03*
X113800000Y-137180000D03*
X113800000Y-134640000D03*
D18*
X113800000Y-132100000D03*
G04 #@! TD*
G04 #@! TO.C,+5V*
X111200000Y-132080000D03*
D17*
X111200000Y-134620000D03*
X111200000Y-137160000D03*
X111200000Y-139700000D03*
X111200000Y-142240000D03*
X111200000Y-144780000D03*
X111200000Y-147320000D03*
X111200000Y-149860000D03*
X111200000Y-152400000D03*
X111200000Y-154940000D03*
G04 #@! TD*
D24*
G04 #@! TO.C,R1*
X109220000Y-120015000D03*
D20*
X119380000Y-120015000D03*
G04 #@! TD*
G04 #@! TO.C,R2*
X109220000Y-124460000D03*
D24*
X119380000Y-124460000D03*
G04 #@! TD*
D25*
G04 #@! TO.C,IN+*
X96950000Y-124600000D03*
X95650000Y-124600000D03*
G04 #@! TD*
M02*
