G04 #@! TF.GenerationSoftware,KiCad,Pcbnew,(5.0.1-3-g963ef8bb5)*
G04 #@! TF.CreationDate,2018-11-29T22:46:31+01:00*
G04 #@! TF.ProjectId,condensadores,636F6E64656E7361646F7265732E6B69,rev?*
G04 #@! TF.SameCoordinates,Original*
G04 #@! TF.FileFunction,Legend,Bot*
G04 #@! TF.FilePolarity,Positive*
%FSLAX46Y46*%
G04 Gerber Fmt 4.6, Leading zero omitted, Abs format (unit mm)*
G04 Created by KiCad (PCBNEW (5.0.1-3-g963ef8bb5)) date jueves, 29 de noviembre de 2018, 22:46:31*
%MOMM*%
%LPD*%
G01*
G04 APERTURE LIST*
%ADD10C,0.300000*%
%ADD11C,0.010000*%
%ADD12C,6.102000*%
%ADD13C,0.100000*%
%ADD14C,1.802000*%
%ADD15O,1.802000X2.102000*%
%ADD16O,1.802000X1.802000*%
%ADD17R,1.802000X1.802000*%
%ADD18R,1.702000X1.702000*%
%ADD19O,1.702000X1.702000*%
%ADD20C,1.882000*%
%ADD21R,2.502000X2.502000*%
%ADD22C,2.502000*%
%ADD23C,1.702000*%
G04 APERTURE END LIST*
D10*
X118307142Y-165650000D02*
X117592857Y-165650000D01*
X118450000Y-166078571D02*
X117950000Y-164578571D01*
X117450000Y-166078571D01*
X116950000Y-166078571D02*
X116950000Y-165078571D01*
X116950000Y-165221428D02*
X116878571Y-165150000D01*
X116735714Y-165078571D01*
X116521428Y-165078571D01*
X116378571Y-165150000D01*
X116307142Y-165292857D01*
X116307142Y-166078571D01*
X116307142Y-165292857D02*
X116235714Y-165150000D01*
X116092857Y-165078571D01*
X115878571Y-165078571D01*
X115735714Y-165150000D01*
X115664285Y-165292857D01*
X115664285Y-166078571D01*
X114950000Y-166078571D02*
X114950000Y-165078571D01*
X114950000Y-164578571D02*
X115021428Y-164650000D01*
X114950000Y-164721428D01*
X114878571Y-164650000D01*
X114950000Y-164578571D01*
X114950000Y-164721428D01*
X113592857Y-165078571D02*
X113592857Y-166292857D01*
X113664285Y-166435714D01*
X113735714Y-166507142D01*
X113878571Y-166578571D01*
X114092857Y-166578571D01*
X114235714Y-166507142D01*
X113592857Y-166007142D02*
X113735714Y-166078571D01*
X114021428Y-166078571D01*
X114164285Y-166007142D01*
X114235714Y-165935714D01*
X114307142Y-165792857D01*
X114307142Y-165364285D01*
X114235714Y-165221428D01*
X114164285Y-165150000D01*
X114021428Y-165078571D01*
X113735714Y-165078571D01*
X113592857Y-165150000D01*
X112235714Y-165078571D02*
X112235714Y-166078571D01*
X112878571Y-165078571D02*
X112878571Y-165864285D01*
X112807142Y-166007142D01*
X112664285Y-166078571D01*
X112450000Y-166078571D01*
X112307142Y-166007142D01*
X112235714Y-165935714D01*
X111592857Y-166007142D02*
X111450000Y-166078571D01*
X111164285Y-166078571D01*
X111021428Y-166007142D01*
X110950000Y-165864285D01*
X110950000Y-165792857D01*
X111021428Y-165650000D01*
X111164285Y-165578571D01*
X111378571Y-165578571D01*
X111521428Y-165507142D01*
X111592857Y-165364285D01*
X111592857Y-165292857D01*
X111521428Y-165150000D01*
X111378571Y-165078571D01*
X111164285Y-165078571D01*
X111021428Y-165150000D01*
X108450000Y-166078571D02*
X109164285Y-166078571D01*
X109164285Y-164578571D01*
X107307142Y-166078571D02*
X107307142Y-165292857D01*
X107378571Y-165150000D01*
X107521428Y-165078571D01*
X107807142Y-165078571D01*
X107950000Y-165150000D01*
X107307142Y-166007142D02*
X107450000Y-166078571D01*
X107807142Y-166078571D01*
X107950000Y-166007142D01*
X108021428Y-165864285D01*
X108021428Y-165721428D01*
X107950000Y-165578571D01*
X107807142Y-165507142D01*
X107450000Y-165507142D01*
X107307142Y-165435714D01*
X106592857Y-166078571D02*
X106592857Y-164578571D01*
X106592857Y-165150000D02*
X106450000Y-165078571D01*
X106164285Y-165078571D01*
X106021428Y-165150000D01*
X105950000Y-165221428D01*
X105878571Y-165364285D01*
X105878571Y-165792857D01*
X105950000Y-165935714D01*
X106021428Y-166007142D01*
X106164285Y-166078571D01*
X106450000Y-166078571D01*
X106592857Y-166007142D01*
X105307142Y-166007142D02*
X105164285Y-166078571D01*
X104878571Y-166078571D01*
X104735714Y-166007142D01*
X104664285Y-165864285D01*
X104664285Y-165792857D01*
X104735714Y-165650000D01*
X104878571Y-165578571D01*
X105092857Y-165578571D01*
X105235714Y-165507142D01*
X105307142Y-165364285D01*
X105307142Y-165292857D01*
X105235714Y-165150000D01*
X105092857Y-165078571D01*
X104878571Y-165078571D01*
X104735714Y-165150000D01*
X102450000Y-165364285D02*
X102450000Y-165650000D01*
X102378571Y-165650000D02*
X102378571Y-165364285D01*
X102307142Y-165292857D02*
X102307142Y-165721428D01*
X102235714Y-165650000D02*
X102235714Y-165364285D01*
X102164285Y-165364285D02*
X102164285Y-165650000D01*
X102450000Y-165578571D02*
X102307142Y-165721428D01*
X102164285Y-165578571D01*
X102450000Y-165435714D02*
X102307142Y-165292857D01*
X102164285Y-165435714D01*
X102450000Y-165364285D02*
X102307142Y-165292857D01*
X102164285Y-165364285D01*
X102092857Y-165507142D01*
X102164285Y-165650000D01*
X102307142Y-165721428D01*
X102450000Y-165650000D01*
X102521428Y-165507142D01*
X102450000Y-165364285D01*
X99878571Y-166078571D02*
X99878571Y-164578571D01*
X99307142Y-164578571D01*
X99164285Y-164650000D01*
X99092857Y-164721428D01*
X99021428Y-164864285D01*
X99021428Y-165078571D01*
X99092857Y-165221428D01*
X99164285Y-165292857D01*
X99307142Y-165364285D01*
X99878571Y-165364285D01*
X98164285Y-166078571D02*
X98307142Y-166007142D01*
X98378571Y-165935714D01*
X98450000Y-165792857D01*
X98450000Y-165364285D01*
X98378571Y-165221428D01*
X98307142Y-165150000D01*
X98164285Y-165078571D01*
X97950000Y-165078571D01*
X97807142Y-165150000D01*
X97735714Y-165221428D01*
X97664285Y-165364285D01*
X97664285Y-165792857D01*
X97735714Y-165935714D01*
X97807142Y-166007142D01*
X97950000Y-166078571D01*
X98164285Y-166078571D01*
X97164285Y-165078571D02*
X96878571Y-166078571D01*
X96592857Y-165364285D01*
X96307142Y-166078571D01*
X96021428Y-165078571D01*
X94878571Y-166007142D02*
X95021428Y-166078571D01*
X95307142Y-166078571D01*
X95450000Y-166007142D01*
X95521428Y-165864285D01*
X95521428Y-165292857D01*
X95450000Y-165150000D01*
X95307142Y-165078571D01*
X95021428Y-165078571D01*
X94878571Y-165150000D01*
X94807142Y-165292857D01*
X94807142Y-165435714D01*
X95521428Y-165578571D01*
X94164285Y-166078571D02*
X94164285Y-165078571D01*
X94164285Y-165364285D02*
X94092857Y-165221428D01*
X94021428Y-165150000D01*
X93878571Y-165078571D01*
X93735714Y-165078571D01*
X91807142Y-164578571D02*
X91664285Y-164578571D01*
X91521428Y-164650000D01*
X91450000Y-164721428D01*
X91378571Y-164864285D01*
X91307142Y-165150000D01*
X91307142Y-165507142D01*
X91378571Y-165792857D01*
X91450000Y-165935714D01*
X91521428Y-166007142D01*
X91664285Y-166078571D01*
X91807142Y-166078571D01*
X91950000Y-166007142D01*
X92021428Y-165935714D01*
X92092857Y-165792857D01*
X92164285Y-165507142D01*
X92164285Y-165150000D01*
X92092857Y-164864285D01*
X92021428Y-164721428D01*
X91950000Y-164650000D01*
X91807142Y-164578571D01*
X90664285Y-165935714D02*
X90592857Y-166007142D01*
X90664285Y-166078571D01*
X90735714Y-166007142D01*
X90664285Y-165935714D01*
X90664285Y-166078571D01*
X89164285Y-166078571D02*
X90021428Y-166078571D01*
X89592857Y-166078571D02*
X89592857Y-164578571D01*
X89735714Y-164792857D01*
X89878571Y-164935714D01*
X90021428Y-165007142D01*
X87378571Y-165507142D02*
X86235714Y-165507142D01*
X84378571Y-166078571D02*
X84378571Y-164578571D01*
X83521428Y-166078571D01*
X83521428Y-164578571D01*
X82592857Y-166078571D02*
X82735714Y-166007142D01*
X82807142Y-165935714D01*
X82878571Y-165792857D01*
X82878571Y-165364285D01*
X82807142Y-165221428D01*
X82735714Y-165150000D01*
X82592857Y-165078571D01*
X82378571Y-165078571D01*
X82235714Y-165150000D01*
X82164285Y-165221428D01*
X82092857Y-165364285D01*
X82092857Y-165792857D01*
X82164285Y-165935714D01*
X82235714Y-166007142D01*
X82378571Y-166078571D01*
X82592857Y-166078571D01*
X81592857Y-165078571D02*
X81235714Y-166078571D01*
X80878571Y-165078571D01*
X79235714Y-164721428D02*
X79164285Y-164650000D01*
X79021428Y-164578571D01*
X78664285Y-164578571D01*
X78521428Y-164650000D01*
X78449999Y-164721428D01*
X78378571Y-164864285D01*
X78378571Y-165007142D01*
X78449999Y-165221428D01*
X79307142Y-166078571D01*
X78378571Y-166078571D01*
X77449999Y-164578571D02*
X77307142Y-164578571D01*
X77164285Y-164650000D01*
X77092857Y-164721428D01*
X77021428Y-164864285D01*
X76949999Y-165150000D01*
X76949999Y-165507142D01*
X77021428Y-165792857D01*
X77092857Y-165935714D01*
X77164285Y-166007142D01*
X77307142Y-166078571D01*
X77449999Y-166078571D01*
X77592857Y-166007142D01*
X77664285Y-165935714D01*
X77735714Y-165792857D01*
X77807142Y-165507142D01*
X77807142Y-165150000D01*
X77735714Y-164864285D01*
X77664285Y-164721428D01*
X77592857Y-164650000D01*
X77449999Y-164578571D01*
X75521428Y-166078571D02*
X76378571Y-166078571D01*
X75949999Y-166078571D02*
X75949999Y-164578571D01*
X76092857Y-164792857D01*
X76235714Y-164935714D01*
X76378571Y-165007142D01*
X74664285Y-165221428D02*
X74807142Y-165150000D01*
X74878571Y-165078571D01*
X74949999Y-164935714D01*
X74949999Y-164864285D01*
X74878571Y-164721428D01*
X74807142Y-164650000D01*
X74664285Y-164578571D01*
X74378571Y-164578571D01*
X74235714Y-164650000D01*
X74164285Y-164721428D01*
X74092857Y-164864285D01*
X74092857Y-164935714D01*
X74164285Y-165078571D01*
X74235714Y-165150000D01*
X74378571Y-165221428D01*
X74664285Y-165221428D01*
X74807142Y-165292857D01*
X74878571Y-165364285D01*
X74949999Y-165507142D01*
X74949999Y-165792857D01*
X74878571Y-165935714D01*
X74807142Y-166007142D01*
X74664285Y-166078571D01*
X74378571Y-166078571D01*
X74235714Y-166007142D01*
X74164285Y-165935714D01*
X74092857Y-165792857D01*
X74092857Y-165507142D01*
X74164285Y-165364285D01*
X74235714Y-165292857D01*
X74378571Y-165221428D01*
D11*
G04 #@! TO.C,G\002A\002A\002A*
G36*
X117630537Y-119894114D02*
X117462655Y-119335993D01*
X117156915Y-118824251D01*
X116728846Y-118387964D01*
X116418725Y-118173903D01*
X116023667Y-117941667D01*
X112004205Y-117899333D01*
X107984744Y-117857000D01*
X108338970Y-117596602D01*
X108951223Y-117095189D01*
X109527642Y-116526425D01*
X110033038Y-115929642D01*
X110432221Y-115344170D01*
X110555876Y-115118787D01*
X110795448Y-114608212D01*
X110969393Y-114138154D01*
X111086785Y-113664358D01*
X111156697Y-113142567D01*
X111188203Y-112528525D01*
X111192245Y-112015000D01*
X111187526Y-111481763D01*
X111175206Y-111076679D01*
X111150710Y-110758594D01*
X111109461Y-110486355D01*
X111046882Y-110218808D01*
X110958842Y-109916256D01*
X110538668Y-108816391D01*
X109986286Y-107819511D01*
X109306796Y-106929494D01*
X108505294Y-106150220D01*
X107586878Y-105485570D01*
X106556643Y-104939423D01*
X105419689Y-104515659D01*
X104181111Y-104218159D01*
X103308094Y-104092604D01*
X102334611Y-104037358D01*
X101300467Y-104067887D01*
X100260731Y-104178428D01*
X99270471Y-104363219D01*
X98420828Y-104603974D01*
X98149847Y-104694100D01*
X97945343Y-104756379D01*
X97860352Y-104776000D01*
X97801515Y-104698792D01*
X97760918Y-104495237D01*
X97739535Y-104207438D01*
X97738339Y-103877498D01*
X97758303Y-103547521D01*
X97800400Y-103259611D01*
X97823168Y-103167333D01*
X98088524Y-102349334D01*
X98364327Y-101696789D01*
X98652573Y-101206029D01*
X98955261Y-100873388D01*
X99138488Y-100751323D01*
X99538650Y-100626806D01*
X100040827Y-100616772D01*
X100650465Y-100722016D01*
X101373010Y-100943334D01*
X101926667Y-101158478D01*
X102693397Y-101476142D01*
X103323187Y-101733322D01*
X103834600Y-101936556D01*
X104246198Y-102092386D01*
X104576546Y-102207352D01*
X104844206Y-102287992D01*
X105067741Y-102340846D01*
X105265716Y-102372456D01*
X105412142Y-102386412D01*
X105721614Y-102402995D01*
X105917618Y-102388621D01*
X106055075Y-102330213D01*
X106188902Y-102214693D01*
X106206410Y-102197288D01*
X106334027Y-102053873D01*
X106396481Y-101914032D01*
X106408599Y-101717942D01*
X106389909Y-101456955D01*
X106353309Y-101172541D01*
X106305683Y-100956483D01*
X106267127Y-100869927D01*
X106152937Y-100831757D01*
X105912673Y-100794716D01*
X105589523Y-100764742D01*
X105434486Y-100755437D01*
X104594605Y-100665725D01*
X103837502Y-100479806D01*
X103155059Y-100189236D01*
X102539158Y-99785569D01*
X101981679Y-99260360D01*
X101474506Y-98605164D01*
X101009519Y-97811536D01*
X100578600Y-96871031D01*
X100173632Y-95775203D01*
X99939638Y-95039333D01*
X99709133Y-94285693D01*
X99515080Y-93675993D01*
X99349645Y-93190732D01*
X99204995Y-92810413D01*
X99073296Y-92515534D01*
X98946714Y-92286595D01*
X98817417Y-92104098D01*
X98712348Y-91984287D01*
X98489907Y-91777060D01*
X98298427Y-91677584D01*
X98083238Y-91652667D01*
X97683815Y-91717155D01*
X97362990Y-91897109D01*
X97189199Y-92111110D01*
X97071069Y-92238958D01*
X96909051Y-92322273D01*
X96759803Y-92344023D01*
X96679981Y-92287175D01*
X96677333Y-92264988D01*
X96733533Y-92117643D01*
X96874215Y-91909255D01*
X97057504Y-91691510D01*
X97241524Y-91516093D01*
X97335928Y-91452116D01*
X97806106Y-91282104D01*
X98237384Y-91276119D01*
X98637686Y-91435692D01*
X99014931Y-91762355D01*
X99030310Y-91779664D01*
X99180900Y-91969651D01*
X99322481Y-92194486D01*
X99463185Y-92474309D01*
X99611147Y-92829262D01*
X99774499Y-93279485D01*
X99961375Y-93845122D01*
X100179908Y-94546311D01*
X100278232Y-94870000D01*
X100636997Y-95973809D01*
X101002328Y-96921519D01*
X101382892Y-97726348D01*
X101787356Y-98401517D01*
X102224389Y-98960247D01*
X102702657Y-99415757D01*
X103230827Y-99781268D01*
X103635615Y-99990992D01*
X104185879Y-100195927D01*
X104777633Y-100317235D01*
X105453402Y-100361404D01*
X105990667Y-100350307D01*
X106921539Y-100240445D01*
X107753448Y-99999934D01*
X108503115Y-99621783D01*
X109187262Y-99098998D01*
X109348808Y-98946078D01*
X109969608Y-98224035D01*
X110458255Y-97408103D01*
X110816489Y-96493483D01*
X111046050Y-95475374D01*
X111148677Y-94348976D01*
X111154993Y-93963403D01*
X111111542Y-92861328D01*
X110974508Y-91837783D01*
X110732769Y-90823400D01*
X110565747Y-90287733D01*
X110276514Y-89482568D01*
X109994490Y-88831481D01*
X109709403Y-88320121D01*
X109410985Y-87934138D01*
X109088965Y-87659180D01*
X108733074Y-87480898D01*
X108511453Y-87417106D01*
X107973765Y-87376081D01*
X107469779Y-87485005D01*
X107022874Y-87724808D01*
X106656431Y-88076423D01*
X106393827Y-88520778D01*
X106258442Y-89038806D01*
X106245139Y-89265615D01*
X106278362Y-89452236D01*
X106369056Y-89750513D01*
X106503168Y-90118615D01*
X106658524Y-90496112D01*
X106965297Y-91225575D01*
X107197945Y-91842812D01*
X107366233Y-92382691D01*
X107479928Y-92880078D01*
X107548796Y-93369840D01*
X107578176Y-93779596D01*
X107577590Y-94462629D01*
X107500239Y-95009906D01*
X107338845Y-95440092D01*
X107086129Y-95771850D01*
X106734813Y-96023845D01*
X106694733Y-96044988D01*
X106378993Y-96129492D01*
X106008999Y-96117669D01*
X105666161Y-96014526D01*
X105598307Y-95977559D01*
X105398822Y-95837102D01*
X105217120Y-95661640D01*
X105043929Y-95433201D01*
X104869978Y-95133811D01*
X104685993Y-94745498D01*
X104482704Y-94250288D01*
X104250838Y-93630208D01*
X103981124Y-92867285D01*
X103955142Y-92792345D01*
X103659777Y-91955811D01*
X103399791Y-91258067D01*
X103164853Y-90674853D01*
X102944636Y-90181912D01*
X102728810Y-89754985D01*
X102507047Y-89369813D01*
X102477657Y-89322207D01*
X102078563Y-88768285D01*
X101604250Y-88251254D01*
X101094792Y-87809101D01*
X100590261Y-87479811D01*
X100471425Y-87420427D01*
X99928271Y-87220864D01*
X99316154Y-87082073D01*
X98706720Y-87016460D01*
X98218752Y-87030344D01*
X97958675Y-87056546D01*
X97827466Y-87047359D01*
X97786190Y-86990096D01*
X97793088Y-86891621D01*
X97818700Y-86796420D01*
X97885995Y-86737208D01*
X98030369Y-86703336D01*
X98287217Y-86684154D01*
X98512485Y-86675179D01*
X99406339Y-86720692D01*
X100235519Y-86922663D01*
X100999759Y-87280943D01*
X101698793Y-87795385D01*
X102332355Y-88465839D01*
X102736592Y-89027663D01*
X102977279Y-89425194D01*
X103209964Y-89866479D01*
X103444831Y-90375042D01*
X103692062Y-90974407D01*
X103961842Y-91688098D01*
X104264353Y-92539641D01*
X104294393Y-92626333D01*
X104459989Y-93102733D01*
X104606961Y-93521062D01*
X104726345Y-93856173D01*
X104809177Y-94082916D01*
X104846493Y-94176144D01*
X104847081Y-94176934D01*
X104928980Y-94154427D01*
X105122827Y-94070787D01*
X105390245Y-93942826D01*
X105452823Y-93911563D01*
X105838400Y-93724459D01*
X106261703Y-93529492D01*
X106583333Y-93389230D01*
X106858018Y-93272799D01*
X107062354Y-93183443D01*
X107154705Y-93139397D01*
X107155876Y-93138504D01*
X107152202Y-93041431D01*
X107097039Y-92817648D01*
X107000769Y-92498068D01*
X106873774Y-92113608D01*
X106726434Y-91695181D01*
X106569131Y-91273704D01*
X106412246Y-90880090D01*
X106341371Y-90712964D01*
X106176580Y-90322941D01*
X106037166Y-89972718D01*
X105937738Y-89700399D01*
X105892911Y-89544086D01*
X105892791Y-89543263D01*
X105854654Y-89433020D01*
X105754447Y-89340411D01*
X105559766Y-89245624D01*
X105238204Y-89128845D01*
X105186333Y-89111332D01*
X104483416Y-88851461D01*
X103936244Y-88590862D01*
X103531658Y-88316796D01*
X103256497Y-88016525D01*
X103097601Y-87677307D01*
X103041809Y-87286404D01*
X103050390Y-87043736D01*
X103080596Y-86776796D01*
X103129914Y-86514952D01*
X103207437Y-86232270D01*
X103322257Y-85902816D01*
X103483463Y-85500658D01*
X103700148Y-84999864D01*
X103981404Y-84374499D01*
X104002101Y-84329000D01*
X104324744Y-83603715D01*
X104570240Y-83009546D01*
X104742686Y-82529040D01*
X104846176Y-82144741D01*
X104884805Y-81839193D01*
X104862670Y-81594942D01*
X104783864Y-81394534D01*
X104714522Y-81292418D01*
X104574519Y-81152298D01*
X104401940Y-81086268D01*
X104130198Y-81069344D01*
X104119996Y-81069333D01*
X103854638Y-81091907D01*
X103558057Y-81165467D01*
X103211679Y-81298771D01*
X102796928Y-81500577D01*
X102295231Y-81779644D01*
X101688011Y-82144731D01*
X101223854Y-82434891D01*
X100554852Y-82851292D01*
X100002138Y-83179076D01*
X99544466Y-83428412D01*
X99160592Y-83609467D01*
X98829270Y-83732410D01*
X98529256Y-83807410D01*
X98286547Y-83840739D01*
X97977992Y-83857913D01*
X97763312Y-83830665D01*
X97569653Y-83744149D01*
X97453269Y-83670939D01*
X97229724Y-83491340D01*
X97009696Y-83243932D01*
X96783790Y-82912283D01*
X96542609Y-82479961D01*
X96276760Y-81930535D01*
X95976846Y-81247574D01*
X95736071Y-80667682D01*
X95392626Y-79844826D01*
X95092361Y-79172635D01*
X94826814Y-78640504D01*
X94587520Y-78237834D01*
X94366017Y-77954020D01*
X94153843Y-77778462D01*
X93942532Y-77700557D01*
X93723623Y-77709702D01*
X93488653Y-77795295D01*
X93456235Y-77811614D01*
X93290446Y-77926590D01*
X93138271Y-78101577D01*
X92993626Y-78352571D01*
X92850426Y-78695565D01*
X92702585Y-79146555D01*
X92544020Y-79721536D01*
X92368646Y-80436503D01*
X92233037Y-81027000D01*
X92115044Y-81493747D01*
X91973440Y-81967375D01*
X91827917Y-82385719D01*
X91723408Y-82635667D01*
X91442471Y-83228333D01*
X90769760Y-83201092D01*
X90338374Y-83199227D01*
X89975885Y-83243110D01*
X89586266Y-83346483D01*
X89455871Y-83389087D01*
X88814693Y-83604324D01*
X87270842Y-83138811D01*
X86516994Y-82917746D01*
X85899604Y-82752878D01*
X85396425Y-82641353D01*
X84985210Y-82580316D01*
X84643715Y-82566913D01*
X84349692Y-82598289D01*
X84080895Y-82671592D01*
X83968071Y-82715066D01*
X83775998Y-82882586D01*
X83668249Y-83175767D01*
X83654063Y-83568491D01*
X83656493Y-83595740D01*
X83708762Y-83873642D01*
X83822094Y-84212752D01*
X84004151Y-84629578D01*
X84262595Y-85140631D01*
X84605088Y-85762419D01*
X84897790Y-86270420D01*
X85293664Y-86989284D01*
X85574193Y-87603236D01*
X85740668Y-88130124D01*
X85794380Y-88587793D01*
X85736620Y-88994091D01*
X85568680Y-89366865D01*
X85291851Y-89723961D01*
X85157514Y-89860086D01*
X84976130Y-90018228D01*
X84737070Y-90195718D01*
X84423816Y-90402772D01*
X84019845Y-90649603D01*
X83508640Y-90946426D01*
X82873678Y-91303455D01*
X82395211Y-91568000D01*
X81709003Y-91974891D01*
X81162562Y-92362092D01*
X80761870Y-92724145D01*
X80512909Y-93055594D01*
X80421663Y-93350983D01*
X80421333Y-93368375D01*
X80504283Y-93710266D01*
X80746326Y-94043032D01*
X81137249Y-94354360D01*
X81336929Y-94472263D01*
X81546385Y-94568984D01*
X81884995Y-94705101D01*
X82320577Y-94868585D01*
X82820948Y-95047410D01*
X83353926Y-95229548D01*
X83438258Y-95257591D01*
X84251635Y-95535555D01*
X84916377Y-95784358D01*
X85448642Y-96013789D01*
X85864585Y-96233637D01*
X86180366Y-96453692D01*
X86412142Y-96683744D01*
X86576069Y-96933583D01*
X86688305Y-97212997D01*
X86693436Y-97229872D01*
X86738242Y-97559148D01*
X86696439Y-97973957D01*
X86564775Y-98486170D01*
X86339997Y-99107657D01*
X86018853Y-99850289D01*
X85913367Y-100077000D01*
X85560824Y-100840809D01*
X85287772Y-101472823D01*
X85090438Y-101988694D01*
X84965050Y-102404073D01*
X84907834Y-102734614D01*
X84915018Y-102995969D01*
X84982828Y-103203789D01*
X85107492Y-103373727D01*
X85116485Y-103382849D01*
X85294717Y-103518571D01*
X85515140Y-103579712D01*
X85748309Y-103590667D01*
X85971452Y-103578903D01*
X86209099Y-103538269D01*
X86481566Y-103460753D01*
X86809169Y-103338340D01*
X87212222Y-103163018D01*
X87711043Y-102926773D01*
X88325947Y-102621593D01*
X88749811Y-102406774D01*
X89252677Y-102156226D01*
X89727046Y-101930330D01*
X90144527Y-101741796D01*
X90476728Y-101603336D01*
X90695260Y-101527660D01*
X90731375Y-101519593D01*
X91028413Y-101502558D01*
X91409359Y-101526147D01*
X91687369Y-101565497D01*
X92012411Y-101631494D01*
X92234318Y-101710822D01*
X92417834Y-101838970D01*
X92627702Y-102051426D01*
X92681491Y-102110417D01*
X92927080Y-102415585D01*
X93187022Y-102792272D01*
X93402463Y-103154358D01*
X93725925Y-103760000D01*
X93434213Y-103760000D01*
X93147255Y-103775288D01*
X92895521Y-103809396D01*
X92764383Y-103842366D01*
X92692150Y-103902450D01*
X92663627Y-104030805D01*
X92663622Y-104268589D01*
X92668910Y-104423229D01*
X92674773Y-104702655D01*
X92665132Y-104823554D01*
X92638339Y-104796165D01*
X92618990Y-104733667D01*
X92568082Y-104470075D01*
X92539443Y-104173079D01*
X92538684Y-104152220D01*
X92528667Y-103824772D01*
X91872500Y-103883351D01*
X90261918Y-104065923D01*
X88801340Y-104312447D01*
X87491797Y-104622480D01*
X86334318Y-104995579D01*
X85329935Y-105431302D01*
X84479677Y-105929206D01*
X83784576Y-106488848D01*
X83245662Y-107109786D01*
X82884345Y-107744590D01*
X82649733Y-108472212D01*
X82573562Y-109213382D01*
X82647359Y-109953124D01*
X82862652Y-110676459D01*
X83210969Y-111368410D01*
X83683837Y-112013999D01*
X84272783Y-112598248D01*
X84969336Y-113106180D01*
X85765023Y-113522816D01*
X86261156Y-113714210D01*
X86632799Y-113840243D01*
X86632799Y-113435839D01*
X86211711Y-113295976D01*
X85492935Y-112983031D01*
X84815622Y-112546990D01*
X84206210Y-112013952D01*
X83691138Y-111410013D01*
X83296843Y-110761270D01*
X83079169Y-110203771D01*
X83002014Y-109749371D01*
X82991932Y-109207695D01*
X83044880Y-108645141D01*
X83156812Y-108128107D01*
X83216395Y-107951000D01*
X83453602Y-107504365D01*
X83818539Y-107036451D01*
X84278363Y-106579728D01*
X84800225Y-106166665D01*
X85351281Y-105829730D01*
X85374333Y-105817851D01*
X86271520Y-105421535D01*
X87318403Y-105071116D01*
X88500651Y-104770430D01*
X89803935Y-104523308D01*
X90691503Y-104395469D01*
X91221506Y-104327490D01*
X91607165Y-104283660D01*
X91872560Y-104270601D01*
X92041770Y-104294934D01*
X92138876Y-104363283D01*
X92187956Y-104482267D01*
X92213092Y-104658511D01*
X92229209Y-104818333D01*
X92288145Y-105368667D01*
X93144086Y-105368667D01*
X93102242Y-104783834D01*
X93060397Y-104199002D01*
X93441396Y-104141867D01*
X93681788Y-104117993D01*
X93832670Y-104154812D01*
X93922298Y-104282473D01*
X93978930Y-104531120D01*
X94008296Y-104746675D01*
X94064851Y-105199333D01*
X94479976Y-105199333D01*
X94726449Y-105194034D01*
X94843730Y-105161700D01*
X94871943Y-105077674D01*
X94858883Y-104966500D01*
X94823650Y-104726038D01*
X94783707Y-104434924D01*
X94777202Y-104385524D01*
X94731738Y-104037381D01*
X95166404Y-103985901D01*
X95427587Y-103964583D01*
X95618324Y-103966572D01*
X95673535Y-103979208D01*
X95716721Y-104083470D01*
X95743351Y-104296511D01*
X95747297Y-104421164D01*
X95763762Y-104742771D01*
X95827676Y-104925047D01*
X95934887Y-104981006D01*
X95934887Y-101980704D01*
X95686112Y-101955791D01*
X95556072Y-101863338D01*
X95523976Y-101671469D01*
X95558626Y-101403900D01*
X95595330Y-101150962D01*
X95603804Y-100973676D01*
X95592938Y-100925827D01*
X95485530Y-100895133D01*
X95285787Y-100881386D01*
X95272225Y-100881333D01*
X95111068Y-100891698D01*
X95016721Y-100950289D01*
X94955347Y-101098350D01*
X94902436Y-101332056D01*
X94808866Y-101782779D01*
X94340719Y-101697924D01*
X94076153Y-101644175D01*
X93943384Y-101590392D01*
X93906720Y-101511607D01*
X93924378Y-101406657D01*
X94005045Y-101068629D01*
X94038409Y-100861893D01*
X94023399Y-100754843D01*
X93958946Y-100715870D01*
X93900842Y-100712000D01*
X93692859Y-100688922D01*
X93603162Y-100664153D01*
X93514017Y-100681310D01*
X93434666Y-100824371D01*
X93367785Y-101048194D01*
X93297922Y-101298122D01*
X93232044Y-101419656D01*
X93134889Y-101449124D01*
X92998715Y-101428386D01*
X92697078Y-101363946D01*
X92529566Y-101305405D01*
X92463922Y-101227181D01*
X92467888Y-101103691D01*
X92485013Y-101020977D01*
X92541287Y-100738410D01*
X92541156Y-100580450D01*
X92468034Y-100507116D01*
X92305336Y-100478431D01*
X92258242Y-100474339D01*
X92049998Y-100469487D01*
X91949565Y-100532322D01*
X91896852Y-100708567D01*
X91887718Y-100756265D01*
X91818788Y-100971085D01*
X91723716Y-101102296D01*
X91706355Y-101111615D01*
X91535687Y-101116562D01*
X91251490Y-101062160D01*
X90893862Y-100960287D01*
X90502897Y-100822819D01*
X90118693Y-100661635D01*
X90005162Y-100607693D01*
X89415765Y-100235888D01*
X88966078Y-99776128D01*
X88660955Y-99242867D01*
X88505249Y-98650558D01*
X88503814Y-98013654D01*
X88661503Y-97346609D01*
X88798191Y-97013430D01*
X89016435Y-96641868D01*
X89328719Y-96228746D01*
X89688851Y-95827419D01*
X90050641Y-95491244D01*
X90237559Y-95350790D01*
X90372385Y-95243482D01*
X90406972Y-95179250D01*
X90406892Y-95179178D01*
X90313140Y-95176114D01*
X90086581Y-95192976D01*
X89762159Y-95226605D01*
X89410397Y-95269238D01*
X89025272Y-95313804D01*
X88704072Y-95341576D01*
X88482480Y-95350092D01*
X88397560Y-95339115D01*
X88371899Y-95245488D01*
X88328909Y-95017661D01*
X88273648Y-94689281D01*
X88211172Y-94293996D01*
X88146536Y-93865454D01*
X88084799Y-93437300D01*
X88031016Y-93043184D01*
X87990244Y-92716752D01*
X87967539Y-92491652D01*
X87965881Y-92466612D01*
X87972641Y-92395439D01*
X88022791Y-92352335D01*
X88146179Y-92333591D01*
X88372650Y-92335502D01*
X88732052Y-92354359D01*
X88824500Y-92359960D01*
X89118307Y-92376361D01*
X89191933Y-92380112D01*
X89191933Y-90740151D01*
X89060744Y-90680764D01*
X88645289Y-90388724D01*
X88246428Y-89967257D01*
X87892936Y-89455830D01*
X87613589Y-88893910D01*
X87485325Y-88520000D01*
X87422370Y-88174327D01*
X87385931Y-87724104D01*
X87376847Y-87232158D01*
X87395959Y-86761314D01*
X87444107Y-86374400D01*
X87455888Y-86318667D01*
X87625268Y-85803696D01*
X87887559Y-85262978D01*
X88204702Y-84766848D01*
X88461383Y-84460441D01*
X88971122Y-84045991D01*
X89552426Y-83755066D01*
X90174573Y-83591938D01*
X90806841Y-83560880D01*
X91418507Y-83666164D01*
X91978849Y-83912061D01*
X92055524Y-83960641D01*
X92197647Y-84057824D01*
X92321199Y-84155254D01*
X92441938Y-84273060D01*
X92575622Y-84431371D01*
X92738009Y-84650316D01*
X92944856Y-84950024D01*
X93211922Y-85350622D01*
X93554964Y-85872240D01*
X93570113Y-85895333D01*
X93879542Y-86348827D01*
X94159848Y-86724589D01*
X94392499Y-86999047D01*
X94552021Y-87144167D01*
X94929180Y-87307059D01*
X95309694Y-87319078D01*
X95671955Y-87196833D01*
X95994357Y-86956934D01*
X96255291Y-86615991D01*
X96433149Y-86190613D01*
X96506325Y-85697411D01*
X96507056Y-85641333D01*
X96454764Y-85168826D01*
X96309602Y-84762335D01*
X96089146Y-84448486D01*
X95810968Y-84253904D01*
X95557029Y-84202000D01*
X95229216Y-84254792D01*
X95029350Y-84416652D01*
X94951623Y-84692807D01*
X94950133Y-84748117D01*
X94996241Y-85025129D01*
X95139924Y-85165486D01*
X95389228Y-85176260D01*
X95428570Y-85168774D01*
X95638026Y-85172233D01*
X95729761Y-85271997D01*
X95695153Y-85434864D01*
X95543790Y-85612342D01*
X95237097Y-85780056D01*
X94913061Y-85799166D01*
X94607536Y-85681830D01*
X94356373Y-85440204D01*
X94217716Y-85162687D01*
X94159769Y-84823032D01*
X94170760Y-84429217D01*
X94243210Y-84056225D01*
X94353420Y-83802372D01*
X94612338Y-83550711D01*
X94979254Y-83380841D01*
X95411382Y-83297492D01*
X95865940Y-83305392D01*
X96300143Y-83409270D01*
X96589970Y-83555166D01*
X96906571Y-83858883D01*
X97159757Y-84290412D01*
X97344935Y-84818772D01*
X97457511Y-85412985D01*
X97492890Y-86042075D01*
X97446481Y-86675061D01*
X97313688Y-87280965D01*
X97192035Y-87615365D01*
X96963915Y-88013995D01*
X96638628Y-88414145D01*
X96265689Y-88763210D01*
X95894615Y-89008590D01*
X95868811Y-89021079D01*
X95388899Y-89166321D01*
X94846015Y-89201403D01*
X94305005Y-89127231D01*
X93925667Y-88993939D01*
X93663975Y-88856698D01*
X93425048Y-88697619D01*
X93181885Y-88492402D01*
X92907485Y-88216745D01*
X92574848Y-87846349D01*
X92317210Y-87546333D01*
X91959676Y-87131706D01*
X91678448Y-86824639D01*
X91445031Y-86599686D01*
X91230932Y-86431399D01*
X91007658Y-86294332D01*
X90793000Y-86185103D01*
X90285265Y-86018289D01*
X89765615Y-85985341D01*
X89282431Y-86087314D01*
X89142280Y-86149191D01*
X88780963Y-86420694D01*
X88530344Y-86791465D01*
X88387825Y-87234923D01*
X88350808Y-87724488D01*
X88416695Y-88233577D01*
X88582890Y-88735612D01*
X88846794Y-89204009D01*
X89205809Y-89612189D01*
X89503157Y-89841932D01*
X89879458Y-90086333D01*
X89586981Y-90443990D01*
X89414151Y-90646894D01*
X89298418Y-90738437D01*
X89191933Y-90740151D01*
X89191933Y-92380112D01*
X89554252Y-92398575D01*
X90105289Y-92425327D01*
X90744372Y-92455341D01*
X91444455Y-92487341D01*
X91477302Y-92488804D01*
X91477302Y-90467333D01*
X91064137Y-90395751D01*
X90727146Y-90201587D01*
X90483702Y-89915723D01*
X90351179Y-89569036D01*
X90346952Y-89192405D01*
X90488394Y-88816708D01*
X90520375Y-88766588D01*
X90818255Y-88456453D01*
X91177030Y-88288603D01*
X91564790Y-88263683D01*
X91949629Y-88382340D01*
X92299636Y-88645218D01*
X92374268Y-88729063D01*
X92545935Y-89054700D01*
X92578210Y-89410075D01*
X92488607Y-89761251D01*
X92294638Y-90074287D01*
X92013817Y-90315244D01*
X91663656Y-90450184D01*
X91477302Y-90467333D01*
X91477302Y-92488804D01*
X92178491Y-92520050D01*
X92698000Y-92542685D01*
X92858835Y-92549800D01*
X92858835Y-92160667D01*
X92755098Y-92128744D01*
X92706763Y-92018440D01*
X92713828Y-91807956D01*
X92776292Y-91475491D01*
X92858795Y-91135717D01*
X92950530Y-90822073D01*
X93072440Y-90466287D01*
X93210059Y-90103589D01*
X93348920Y-89769210D01*
X93474554Y-89498377D01*
X93572496Y-89326321D01*
X93619503Y-89283297D01*
X93728769Y-89324379D01*
X93788990Y-89358895D01*
X93834598Y-89422409D01*
X93827841Y-89544804D01*
X93761751Y-89755840D01*
X93629358Y-90085277D01*
X93605889Y-90140765D01*
X93443181Y-90563860D01*
X93289527Y-91031094D01*
X93174682Y-91450927D01*
X93162567Y-91504500D01*
X93082000Y-91842106D01*
X93011990Y-92043257D01*
X92938173Y-92138986D01*
X92858835Y-92160667D01*
X92858835Y-92549800D01*
X93416480Y-92574473D01*
X94099598Y-92606202D01*
X94724312Y-92636688D01*
X95267579Y-92664747D01*
X95706356Y-92689197D01*
X96017599Y-92708855D01*
X96160154Y-92720427D01*
X96616640Y-92768513D01*
X96568641Y-93573047D01*
X96545088Y-93922664D01*
X96521179Y-94202084D01*
X96500476Y-94372817D01*
X96491481Y-94406742D01*
X96402862Y-94423789D01*
X96168816Y-94456481D01*
X95812231Y-94501963D01*
X95356001Y-94557380D01*
X94823015Y-94619879D01*
X94347326Y-94674118D01*
X92232333Y-94912333D01*
X91639667Y-95300025D01*
X91047829Y-95732818D01*
X90573454Y-96174220D01*
X90221832Y-96612006D01*
X89998253Y-97033949D01*
X89908007Y-97427824D01*
X89956385Y-97781406D01*
X90148678Y-98082470D01*
X90363038Y-98250165D01*
X90550794Y-98350377D01*
X90762394Y-98430236D01*
X91016737Y-98491230D01*
X91332722Y-98534848D01*
X91729246Y-98562578D01*
X91853411Y-98565914D01*
X91853411Y-97833333D01*
X91792154Y-97764290D01*
X91699233Y-97597063D01*
X91603789Y-97391509D01*
X91534964Y-97207483D01*
X91520895Y-97150366D01*
X91592833Y-97111570D01*
X91789684Y-97055071D01*
X92069639Y-96992780D01*
X92084167Y-96989904D01*
X92601032Y-96869176D01*
X92970130Y-96765099D01*
X92970130Y-96377444D01*
X92965273Y-96376537D01*
X92865079Y-96292690D01*
X92782173Y-96071125D01*
X92733350Y-95842683D01*
X92681381Y-95520712D01*
X92674055Y-95330216D01*
X92717928Y-95237672D01*
X92819559Y-95209559D01*
X92857386Y-95208667D01*
X92950774Y-95247964D01*
X93023254Y-95386864D01*
X93089730Y-95656878D01*
X93103595Y-95729273D01*
X93156474Y-96072095D01*
X93155419Y-96277721D01*
X93095087Y-96371165D01*
X92970130Y-96377444D01*
X92970130Y-96765099D01*
X93214400Y-96696219D01*
X93866877Y-96489442D01*
X94501072Y-96267255D01*
X95059590Y-96048069D01*
X95174413Y-95998653D01*
X95513112Y-95855096D01*
X95739117Y-95777562D01*
X95891714Y-95757406D01*
X96010193Y-95785986D01*
X96050760Y-95805843D01*
X96179413Y-95909934D01*
X96197566Y-95993483D01*
X96084425Y-96083127D01*
X95838769Y-96221104D01*
X95486664Y-96396374D01*
X95054176Y-96597897D01*
X94567374Y-96814633D01*
X94052323Y-97035542D01*
X93535092Y-97249584D01*
X93041746Y-97445718D01*
X92598354Y-97612906D01*
X92230982Y-97740107D01*
X91965697Y-97816280D01*
X91853411Y-97833333D01*
X91853411Y-98565914D01*
X92225208Y-98575906D01*
X92839508Y-98576321D01*
X93591044Y-98565312D01*
X93599296Y-98565130D01*
X93599296Y-98172000D01*
X93422195Y-98149918D01*
X93347111Y-98115556D01*
X93289836Y-97959362D01*
X93339164Y-97789692D01*
X93429785Y-97713399D01*
X93554236Y-97679020D01*
X93581975Y-97683174D01*
X93620995Y-97768863D01*
X93695042Y-97939167D01*
X93752724Y-98102341D01*
X93714167Y-98163463D01*
X93599296Y-98172000D01*
X93599296Y-98565130D01*
X94195727Y-98551923D01*
X94936583Y-98535047D01*
X95524605Y-98524455D01*
X95976189Y-98520494D01*
X96307731Y-98523510D01*
X96535626Y-98533849D01*
X96676270Y-98551857D01*
X96746057Y-98577881D01*
X96761917Y-98606087D01*
X96747752Y-98719740D01*
X96709107Y-98967173D01*
X96651676Y-99315542D01*
X96581155Y-99732003D01*
X96503241Y-100183715D01*
X96423628Y-100637832D01*
X96348012Y-101061512D01*
X96282088Y-101421912D01*
X96231553Y-101686188D01*
X96209511Y-101791500D01*
X96123492Y-101939858D01*
X95934887Y-101980704D01*
X95934887Y-104981006D01*
X95964742Y-104996590D01*
X96200665Y-104986002D01*
X96248405Y-104978741D01*
X96609783Y-104920954D01*
X96552153Y-104382811D01*
X96494522Y-103844667D01*
X96764754Y-103844667D01*
X96764754Y-101694157D01*
X96689919Y-101642412D01*
X96677333Y-101514217D01*
X96717303Y-101349900D01*
X96850040Y-101304667D01*
X97169637Y-101232201D01*
X97512496Y-101038473D01*
X97837863Y-100758987D01*
X98104984Y-100429247D01*
X98273103Y-100084755D01*
X98280909Y-100058148D01*
X98346639Y-99775576D01*
X98367808Y-99520471D01*
X98336463Y-99259599D01*
X98244654Y-98959729D01*
X98084429Y-98587630D01*
X97847837Y-98110071D01*
X97786107Y-97990182D01*
X97364224Y-97121622D01*
X97022011Y-96306216D01*
X96768740Y-95568462D01*
X96613680Y-94932857D01*
X96601172Y-94858708D01*
X96664050Y-94797694D01*
X96767179Y-94759447D01*
X96918096Y-94762369D01*
X96970140Y-94813072D01*
X97004043Y-94935734D01*
X97070106Y-95177900D01*
X97156347Y-95495598D01*
X97193275Y-95632000D01*
X97318997Y-96015923D01*
X97513003Y-96505660D01*
X97758254Y-97060760D01*
X98037708Y-97640773D01*
X98048648Y-97662514D01*
X98290489Y-98146288D01*
X98465017Y-98510257D01*
X98583118Y-98784807D01*
X98655679Y-99000329D01*
X98693587Y-99187210D01*
X98707727Y-99375840D01*
X98709333Y-99506733D01*
X98639220Y-100130385D01*
X98429921Y-100659411D01*
X98082999Y-101091042D01*
X97640015Y-101401673D01*
X97349796Y-101538512D01*
X97070374Y-101642104D01*
X96952500Y-101672553D01*
X96764754Y-101694157D01*
X96764754Y-103844667D01*
X97325698Y-103844667D01*
X97475133Y-105008833D01*
X97533439Y-105454729D01*
X97588118Y-105857902D01*
X97633771Y-106179538D01*
X97664996Y-106380821D01*
X97669534Y-106405833D01*
X97714500Y-106638667D01*
X97026583Y-106638667D01*
X96709385Y-106645868D01*
X96469612Y-106665027D01*
X96346995Y-106692473D01*
X96338983Y-106702167D01*
X96379551Y-106810939D01*
X96478416Y-106993448D01*
X96494496Y-107020154D01*
X96827515Y-107723501D01*
X97020251Y-108491068D01*
X97071655Y-109290704D01*
X96980680Y-110090260D01*
X96746279Y-110857586D01*
X96628004Y-111116903D01*
X96329306Y-111594192D01*
X95920976Y-112081761D01*
X95451377Y-112528968D01*
X94968872Y-112885171D01*
X94899333Y-112927062D01*
X94256729Y-113210098D01*
X93537538Y-113370031D01*
X92781206Y-113407087D01*
X92027180Y-113321493D01*
X91314906Y-113113474D01*
X90877724Y-112904033D01*
X90444466Y-112598624D01*
X89999722Y-112187543D01*
X89590340Y-111721519D01*
X89263172Y-111251279D01*
X89142715Y-111025425D01*
X88888548Y-110314220D01*
X88758578Y-109561934D01*
X88753243Y-108807624D01*
X88872979Y-108090348D01*
X89103110Y-107478538D01*
X89326006Y-107038675D01*
X88720188Y-107098371D01*
X87905122Y-107221866D01*
X87150389Y-107420429D01*
X86475650Y-107684098D01*
X85900562Y-108002910D01*
X85444785Y-108366904D01*
X85127977Y-108766117D01*
X85030808Y-108967939D01*
X84930309Y-109412812D01*
X84920969Y-109929661D01*
X84998491Y-110450603D01*
X85152913Y-110896230D01*
X85410511Y-111314774D01*
X85770929Y-111754345D01*
X86185037Y-112161242D01*
X86603038Y-112481333D01*
X86829164Y-112641671D01*
X86982249Y-112779380D01*
X87024913Y-112849326D01*
X86975437Y-112974934D01*
X86854326Y-113158162D01*
X86828646Y-113191086D01*
X86632799Y-113435839D01*
X86632799Y-113840243D01*
X86813667Y-113901581D01*
X87223582Y-113269428D01*
X87402113Y-112987071D01*
X87534401Y-112764236D01*
X87601201Y-112634014D01*
X87604582Y-112614275D01*
X87520335Y-112565580D01*
X87330006Y-112461864D01*
X87112196Y-112345471D01*
X86689730Y-112070217D01*
X86261567Y-111704152D01*
X85874997Y-111294260D01*
X85577307Y-110887525D01*
X85494807Y-110738473D01*
X85359781Y-110394773D01*
X85298580Y-110028748D01*
X85289667Y-109757460D01*
X85325475Y-109316327D01*
X85446576Y-108957596D01*
X85673481Y-108653673D01*
X86026702Y-108376966D01*
X86519063Y-108103682D01*
X86822815Y-107969816D01*
X87185003Y-107834917D01*
X87569305Y-107709394D01*
X87939402Y-107603655D01*
X88258974Y-107528110D01*
X88491702Y-107493167D01*
X88599633Y-107507411D01*
X88595033Y-107597494D01*
X88553840Y-107800891D01*
X88504887Y-107997271D01*
X88423028Y-108461878D01*
X88387484Y-109019745D01*
X88398117Y-109601296D01*
X88454789Y-110136952D01*
X88509641Y-110402815D01*
X88767985Y-111103698D01*
X89158759Y-111781145D01*
X89653019Y-112399124D01*
X90221821Y-112921600D01*
X90836218Y-113312540D01*
X90854034Y-113321359D01*
X91285892Y-113499833D01*
X91787185Y-113655543D01*
X92291391Y-113771316D01*
X92731990Y-113829979D01*
X92839362Y-113833863D01*
X92998469Y-113848492D01*
X93100841Y-113916931D01*
X93183700Y-114079300D01*
X93253136Y-114279833D01*
X93370106Y-114604325D01*
X93500987Y-114920557D01*
X93557994Y-115041833D01*
X93717442Y-115359333D01*
X93440554Y-115358004D01*
X93290247Y-115351362D01*
X92993654Y-115333151D01*
X92573311Y-115304942D01*
X92051757Y-115268304D01*
X91451528Y-115224807D01*
X90795160Y-115176022D01*
X90412000Y-115147018D01*
X89565463Y-115082564D01*
X88872663Y-115030620D01*
X88318473Y-114991095D01*
X87887765Y-114963895D01*
X87565413Y-114948928D01*
X87336289Y-114946102D01*
X87185267Y-114955322D01*
X87097219Y-114976498D01*
X87057019Y-115009536D01*
X87049540Y-115054343D01*
X87059654Y-115110827D01*
X87063103Y-115126500D01*
X87084741Y-115260504D01*
X87124097Y-115537502D01*
X87177808Y-115932473D01*
X87242509Y-116420395D01*
X87314836Y-116976248D01*
X87376158Y-117454833D01*
X87648218Y-119592667D01*
X87865942Y-119589309D01*
X88000415Y-119575164D01*
X88030030Y-119571085D01*
X88030030Y-119163074D01*
X88007283Y-119162843D01*
X87986057Y-119071964D01*
X87948041Y-118842380D01*
X87897158Y-118503446D01*
X87837331Y-118084521D01*
X87772480Y-117614959D01*
X87706530Y-117124118D01*
X87643401Y-116641355D01*
X87587018Y-116196024D01*
X87541300Y-115817484D01*
X87510173Y-115535090D01*
X87497556Y-115378200D01*
X87498746Y-115356740D01*
X87584729Y-115354634D01*
X87824337Y-115364709D01*
X88202376Y-115385959D01*
X88703652Y-115417381D01*
X89312972Y-115457970D01*
X90015140Y-115506722D01*
X90794962Y-115562632D01*
X91637245Y-115624696D01*
X92247018Y-115670593D01*
X93123714Y-115737171D01*
X93948500Y-115799868D01*
X94706167Y-115857523D01*
X95381505Y-115908977D01*
X95959307Y-115953068D01*
X96424364Y-115988638D01*
X96761466Y-116014525D01*
X96955405Y-116029569D01*
X96997795Y-116033020D01*
X97005627Y-116113322D01*
X97007690Y-116327243D01*
X97003982Y-116639169D01*
X96997795Y-116902477D01*
X96973667Y-117768287D01*
X92508065Y-118483486D01*
X91660281Y-118618511D01*
X90863855Y-118743898D01*
X90134255Y-118857313D01*
X89486950Y-118956419D01*
X88937406Y-119038883D01*
X88501093Y-119102370D01*
X88193479Y-119144546D01*
X88030030Y-119163074D01*
X88030030Y-119571085D01*
X88280248Y-119536615D01*
X88683748Y-119476966D01*
X89189225Y-119399519D01*
X89774986Y-119307578D01*
X90419341Y-119204446D01*
X90814167Y-119140346D01*
X91470548Y-119034064D01*
X92070245Y-118938569D01*
X92593698Y-118856850D01*
X93021348Y-118791894D01*
X93333633Y-118746690D01*
X93510995Y-118724227D01*
X93544667Y-118723186D01*
X93509684Y-118808110D01*
X93419823Y-118995766D01*
X93340968Y-119153610D01*
X93123435Y-119746246D01*
X93065904Y-120339196D01*
X93114030Y-120706100D01*
X93160028Y-121025300D01*
X93124363Y-121295336D01*
X93081233Y-121425767D01*
X92959513Y-121751667D01*
X93006823Y-121404892D01*
X93054133Y-121058118D01*
X92473900Y-121003327D01*
X92061912Y-120967281D01*
X91787909Y-120953759D01*
X91621688Y-120965579D01*
X91533052Y-121005559D01*
X91491801Y-121076520D01*
X91486363Y-121095500D01*
X91456292Y-121146370D01*
X91438648Y-121033703D01*
X91437822Y-121016539D01*
X91428777Y-120910360D01*
X91394769Y-120832507D01*
X91309425Y-120772678D01*
X91146375Y-120720570D01*
X90879247Y-120665880D01*
X90481671Y-120598305D01*
X90285000Y-120566142D01*
X89841854Y-120490025D01*
X89383816Y-120405149D01*
X88986722Y-120325764D01*
X88860866Y-120298501D01*
X88572489Y-120238350D01*
X88358577Y-120202222D01*
X88262885Y-120197433D01*
X88261817Y-120198357D01*
X88247124Y-120286871D01*
X88216633Y-120521622D01*
X88172979Y-120880516D01*
X88118797Y-121341462D01*
X88056722Y-121882370D01*
X87989391Y-122481146D01*
X87987991Y-122493719D01*
X87735747Y-124759772D01*
X90761783Y-124755150D01*
X91589367Y-124754974D01*
X92264607Y-124757637D01*
X92804480Y-124763758D01*
X93225960Y-124773958D01*
X93546023Y-124788854D01*
X93781645Y-124809069D01*
X93949801Y-124835219D01*
X94067466Y-124867927D01*
X94089576Y-124876611D01*
X94319490Y-125011306D01*
X94397724Y-125164054D01*
X94321340Y-125339872D01*
X94087401Y-125543778D01*
X93692969Y-125780790D01*
X93502333Y-125879605D01*
X93248277Y-125993015D01*
X92912213Y-126124000D01*
X92537852Y-126257805D01*
X92168903Y-126379675D01*
X91849075Y-126474855D01*
X91622077Y-126528591D01*
X91559808Y-126535333D01*
X91456330Y-126463226D01*
X91393637Y-126325281D01*
X91256289Y-126057490D01*
X91004364Y-125790231D01*
X90687102Y-125566909D01*
X90389588Y-125440244D01*
X89900442Y-125379544D01*
X89450167Y-125463253D01*
X89056253Y-125667802D01*
X88736190Y-125969625D01*
X88507468Y-126345151D01*
X88387578Y-126770812D01*
X88394010Y-127223041D01*
X88544254Y-127678267D01*
X88624398Y-127818889D01*
X88951191Y-128195124D01*
X89349038Y-128438827D01*
X89787336Y-128552076D01*
X89999910Y-128544901D01*
X89999910Y-128159272D01*
X89677663Y-128156768D01*
X89455856Y-128077135D01*
X89204354Y-127894707D01*
X88975637Y-127654745D01*
X88833336Y-127428531D01*
X88753571Y-127080135D01*
X88781196Y-126691111D01*
X88909101Y-126345589D01*
X88927310Y-126316399D01*
X89227017Y-125998928D01*
X89613917Y-125826163D01*
X90052818Y-125796807D01*
X90484544Y-125893191D01*
X90809786Y-126117689D01*
X91045091Y-126482067D01*
X91057912Y-126511447D01*
X91157294Y-126834561D01*
X91146406Y-127131660D01*
X91021578Y-127473666D01*
X91006465Y-127505285D01*
X90765375Y-127852135D01*
X90434419Y-128067894D01*
X89999910Y-128159272D01*
X89999910Y-128544901D01*
X90235478Y-128536948D01*
X90662859Y-128395521D01*
X91038876Y-128129870D01*
X91332922Y-127742074D01*
X91387762Y-127631353D01*
X91499531Y-127426962D01*
X91601972Y-127309045D01*
X91631359Y-127297572D01*
X91874006Y-127312926D01*
X92228665Y-127352812D01*
X92641161Y-127409261D01*
X93057321Y-127474305D01*
X93422969Y-127539975D01*
X93683933Y-127598304D01*
X93693023Y-127600818D01*
X94137713Y-127725507D01*
X93835752Y-127990632D01*
X93480631Y-128407734D01*
X93228008Y-128922289D01*
X93091467Y-129487641D01*
X93084589Y-130057132D01*
X93144113Y-130366500D01*
X93209226Y-130599333D01*
X91874113Y-130588128D01*
X91269774Y-130579919D01*
X90586827Y-130565627D01*
X89905452Y-130547197D01*
X89305828Y-130526574D01*
X89257408Y-130524628D01*
X87975816Y-130472333D01*
X87122947Y-129442571D01*
X86502770Y-128713295D01*
X85961521Y-128121491D01*
X85489625Y-127660265D01*
X85077511Y-127322722D01*
X84715604Y-127101969D01*
X84394332Y-126991111D01*
X84104121Y-126983254D01*
X83835399Y-127071504D01*
X83832522Y-127072986D01*
X83604733Y-127255060D01*
X83430846Y-127543601D01*
X83309677Y-127947888D01*
X83240046Y-128477201D01*
X83220771Y-129140821D01*
X83250669Y-129948028D01*
X83328558Y-130908101D01*
X83335335Y-130976826D01*
X83413363Y-131881660D01*
X83450438Y-132639518D01*
X83445016Y-133268105D01*
X83395551Y-133785130D01*
X83300500Y-134208298D01*
X83158319Y-134555316D01*
X83001902Y-134800173D01*
X82829639Y-135003749D01*
X82639210Y-135174248D01*
X82413551Y-135315523D01*
X82135598Y-135431429D01*
X81788286Y-135525819D01*
X81354551Y-135602546D01*
X80817327Y-135665465D01*
X80159551Y-135718429D01*
X79364157Y-135765291D01*
X78558667Y-135803579D01*
X77713661Y-135843185D01*
X77018245Y-135882035D01*
X76452711Y-135922981D01*
X75997356Y-135968881D01*
X75632472Y-136022587D01*
X75338355Y-136086956D01*
X75095299Y-136164843D01*
X74883597Y-136259101D01*
X74699705Y-136362660D01*
X74423456Y-136623812D01*
X74270107Y-136974149D01*
X74249696Y-137376616D01*
X74334943Y-137709013D01*
X74525552Y-138047366D01*
X74861666Y-138471908D01*
X75343133Y-138982472D01*
X75969799Y-139578888D01*
X76314327Y-139888708D01*
X77047729Y-140554715D01*
X77647483Y-141139877D01*
X78120846Y-141657259D01*
X78475076Y-142119928D01*
X78717430Y-142540949D01*
X78855166Y-142933390D01*
X78895541Y-143310316D01*
X78845812Y-143684794D01*
X78713238Y-144069890D01*
X78678973Y-144146000D01*
X78539171Y-144421216D01*
X78369528Y-144701339D01*
X78155247Y-145004937D01*
X77881526Y-145350580D01*
X77533569Y-145756837D01*
X77096574Y-146242276D01*
X76555744Y-146825466D01*
X76473844Y-146912832D01*
X75968903Y-147455353D01*
X75566573Y-147899488D01*
X75249749Y-148266606D01*
X75001324Y-148578076D01*
X74804192Y-148855269D01*
X74641247Y-149119554D01*
X74506253Y-149370794D01*
X74354439Y-149813782D01*
X74347705Y-150233052D01*
X74480392Y-150601327D01*
X74746841Y-150891334D01*
X74833573Y-150948340D01*
X75028287Y-151051407D01*
X75243429Y-151136711D01*
X75497835Y-151206502D01*
X75810341Y-151263025D01*
X76199783Y-151308528D01*
X76684999Y-151345258D01*
X77284824Y-151375462D01*
X78018094Y-151401388D01*
X78812667Y-151423043D01*
X79580559Y-151442873D01*
X80199719Y-151461279D01*
X80690720Y-151479841D01*
X81074136Y-151500136D01*
X81370541Y-151523744D01*
X81600509Y-151552243D01*
X81784614Y-151587214D01*
X81943430Y-151630234D01*
X82070439Y-151673063D01*
X82607447Y-151939183D01*
X83008079Y-152304084D01*
X83275575Y-152770725D01*
X83277786Y-152776427D01*
X83362413Y-153123738D01*
X83409122Y-153613263D01*
X83418218Y-154222252D01*
X83390000Y-154927955D01*
X83324772Y-155707621D01*
X83228359Y-156499252D01*
X83114031Y-157430146D01*
X83054610Y-158210357D01*
X83051955Y-158850009D01*
X83107921Y-159359228D01*
X83224367Y-159748140D01*
X83403150Y-160026869D01*
X83646128Y-160205540D01*
X83923692Y-160289566D01*
X84136161Y-160299287D01*
X84368420Y-160247953D01*
X84672780Y-160121932D01*
X84797659Y-160061778D01*
X84979027Y-159963990D01*
X85169448Y-159840682D01*
X85385066Y-159677820D01*
X85642026Y-159461365D01*
X85956472Y-159177282D01*
X86344546Y-158811535D01*
X86822392Y-158350088D01*
X87273327Y-157909290D01*
X87909217Y-157290832D01*
X88443834Y-156784427D01*
X88891945Y-156378804D01*
X89268315Y-156062691D01*
X89587712Y-155824817D01*
X89864900Y-155653912D01*
X90114646Y-155538703D01*
X90351716Y-155467920D01*
X90508150Y-155440101D01*
X90750667Y-155425479D01*
X90750667Y-150196006D01*
X90224654Y-150193085D01*
X89828638Y-150184242D01*
X89523286Y-150164606D01*
X89269264Y-150129309D01*
X89027240Y-150073480D01*
X88757880Y-149992250D01*
X88549333Y-149923465D01*
X87564819Y-149510362D01*
X86653865Y-148961702D01*
X85830564Y-148293943D01*
X85109008Y-147523544D01*
X84503289Y-146666963D01*
X84027498Y-145740658D01*
X83695728Y-144761088D01*
X83563512Y-144100372D01*
X83520442Y-143761925D01*
X83489165Y-143437375D01*
X83479658Y-143278167D01*
X83469333Y-142960667D01*
X84757051Y-142960667D01*
X84757051Y-142087463D01*
X84637300Y-142086418D01*
X84628128Y-142084231D01*
X84438140Y-142047167D01*
X84159170Y-142003086D01*
X83992267Y-141979999D01*
X83732659Y-141938922D01*
X83605463Y-141889671D01*
X83574267Y-141810951D01*
X83586052Y-141742432D01*
X83627731Y-141544904D01*
X83675941Y-141276372D01*
X83687773Y-141203833D01*
X83734579Y-140984633D01*
X83784944Y-140857142D01*
X83802381Y-140844000D01*
X83958670Y-140874272D01*
X84197760Y-140951430D01*
X84468710Y-141054992D01*
X84720578Y-141164472D01*
X84902423Y-141259386D01*
X84963133Y-141310754D01*
X84968121Y-141454848D01*
X84930714Y-141685758D01*
X84908948Y-141774289D01*
X84836353Y-141995835D01*
X84757051Y-142087463D01*
X84757051Y-142960667D01*
X84799804Y-142960667D01*
X84844982Y-143619809D01*
X84988075Y-144505541D01*
X85243970Y-145241249D01*
X85243970Y-140484208D01*
X85147075Y-140446807D01*
X84935251Y-140368308D01*
X84652838Y-140265131D01*
X84630013Y-140256843D01*
X84351837Y-140151039D01*
X84149360Y-140064795D01*
X84062744Y-140015344D01*
X84062000Y-140013149D01*
X84100357Y-139925686D01*
X84200542Y-139734096D01*
X84329829Y-139499640D01*
X84471641Y-139249658D01*
X84578452Y-139065164D01*
X84624629Y-138989923D01*
X84704769Y-139015817D01*
X84888149Y-139127091D01*
X85145134Y-139304155D01*
X85446088Y-139527420D01*
X85496452Y-139566206D01*
X85703236Y-139726296D01*
X85496575Y-140115856D01*
X85372657Y-140330749D01*
X85277229Y-140462656D01*
X85243970Y-140484208D01*
X85243970Y-145241249D01*
X85283902Y-145356056D01*
X85716914Y-146154956D01*
X86198339Y-146789355D01*
X86198339Y-139080151D01*
X85084851Y-138346333D01*
X85546513Y-137882167D01*
X85780239Y-137651332D01*
X85927142Y-137526332D01*
X86018192Y-137491352D01*
X86084361Y-137530578D01*
X86126901Y-137585834D01*
X86251138Y-137752905D01*
X86427308Y-137980341D01*
X86508481Y-138082809D01*
X86660306Y-138283356D01*
X86755251Y-138428845D01*
X86771333Y-138468367D01*
X86715652Y-138555656D01*
X86574436Y-138712780D01*
X86484836Y-138802467D01*
X86198339Y-139080151D01*
X86198339Y-146789355D01*
X86271563Y-146885847D01*
X86932299Y-147532330D01*
X87683573Y-148078009D01*
X88509835Y-148506489D01*
X89395537Y-148801371D01*
X89844553Y-148891815D01*
X90835611Y-148967146D01*
X91802790Y-148883013D01*
X92730684Y-148649071D01*
X93603886Y-148274976D01*
X94406989Y-147770385D01*
X95124587Y-147144954D01*
X95741273Y-146408339D01*
X96241640Y-145570195D01*
X96286865Y-145456487D01*
X96286865Y-143690297D01*
X96232833Y-143675313D01*
X95877026Y-143533294D01*
X95651791Y-143372235D01*
X95576667Y-143212493D01*
X95603260Y-143075968D01*
X95639277Y-143045333D01*
X95749217Y-143075102D01*
X95954541Y-143150323D01*
X96062293Y-143193500D01*
X96299559Y-143313619D01*
X96406379Y-143438389D01*
X96423016Y-143537872D01*
X96397355Y-143677996D01*
X96286865Y-143690297D01*
X96286865Y-145456487D01*
X96606037Y-144654000D01*
X96740142Y-144043946D01*
X96807718Y-143340071D01*
X96808766Y-142604274D01*
X96743285Y-141898450D01*
X96611275Y-141284497D01*
X96606037Y-141267333D01*
X96233664Y-140337051D01*
X95723530Y-139490613D01*
X95090526Y-138741689D01*
X94349546Y-138103952D01*
X93515484Y-137591071D01*
X92603231Y-137216717D01*
X92027988Y-137065011D01*
X91315642Y-136914545D01*
X90959869Y-137318854D01*
X90775585Y-137550025D01*
X90558947Y-137854717D01*
X90331251Y-138198611D01*
X90113792Y-138547391D01*
X89927867Y-138866743D01*
X89794772Y-139122348D01*
X89735803Y-139279891D01*
X89734667Y-139293141D01*
X89812367Y-139375980D01*
X90023552Y-139404667D01*
X90359495Y-139430542D01*
X90805071Y-139501193D01*
X91309839Y-139606157D01*
X91823363Y-139734975D01*
X92284567Y-139873630D01*
X93085177Y-140203935D01*
X93183618Y-140263079D01*
X93183618Y-139791125D01*
X93099659Y-139778538D01*
X92980282Y-139738825D01*
X92852749Y-139642256D01*
X92761464Y-139442174D01*
X92708221Y-139219527D01*
X92618969Y-138713694D01*
X92562394Y-138278069D01*
X92539993Y-137936088D01*
X92553263Y-137711183D01*
X92603704Y-137626789D01*
X92606409Y-137626667D01*
X92800533Y-137663838D01*
X92908874Y-137795448D01*
X92950869Y-138051638D01*
X92953470Y-138164892D01*
X92973168Y-138484407D01*
X93022855Y-138874269D01*
X93079255Y-139187160D01*
X93137744Y-139477716D01*
X93175278Y-139692969D01*
X93184397Y-139789742D01*
X93183618Y-139791125D01*
X93183618Y-140263079D01*
X93779812Y-140621282D01*
X94351953Y-141112644D01*
X94785079Y-141664992D01*
X94952463Y-141977654D01*
X95135693Y-142570111D01*
X95194804Y-143236862D01*
X95134329Y-143942096D01*
X94958801Y-144650002D01*
X94672750Y-145324772D01*
X94488964Y-145639673D01*
X94262849Y-145947438D01*
X93997636Y-146245057D01*
X93726339Y-146501732D01*
X93481972Y-146686664D01*
X93297548Y-146769055D01*
X93276621Y-146770667D01*
X93143386Y-146713418D01*
X92964220Y-146570906D01*
X92912749Y-146519884D01*
X92672483Y-146269101D01*
X92989802Y-145917867D01*
X93394032Y-145360875D01*
X93636031Y-144766734D01*
X93713173Y-144170113D01*
X93703618Y-143859766D01*
X93659466Y-143650734D01*
X93559297Y-143475512D01*
X93451229Y-143344613D01*
X93217718Y-143120965D01*
X93038320Y-143054043D01*
X92900255Y-143145014D01*
X92790742Y-143395045D01*
X92787720Y-143405167D01*
X92594177Y-143911491D01*
X92308992Y-144470116D01*
X91967105Y-145020868D01*
X91603454Y-145503573D01*
X91502911Y-145617883D01*
X90968656Y-146110174D01*
X90413778Y-146454495D01*
X89853628Y-146650637D01*
X89303558Y-146698392D01*
X88778921Y-146597551D01*
X88295068Y-146347906D01*
X87867351Y-145949248D01*
X87663892Y-145670000D01*
X87380121Y-145074164D01*
X87213974Y-144371567D01*
X87165163Y-143576983D01*
X87233397Y-142705185D01*
X87418388Y-141770944D01*
X87719848Y-140789034D01*
X87761621Y-140674667D01*
X88331683Y-139346150D01*
X88755962Y-138564149D01*
X88755962Y-134220851D01*
X88742579Y-134132631D01*
X88720923Y-133903886D01*
X88693338Y-133563090D01*
X88662168Y-133138716D01*
X88639006Y-132800166D01*
X88605151Y-132312574D01*
X88571577Y-131868066D01*
X88541109Y-131501321D01*
X88516572Y-131247021D01*
X88505416Y-131160076D01*
X88464597Y-130916486D01*
X90941132Y-130955296D01*
X91662638Y-130965828D01*
X92235774Y-130971698D01*
X92681459Y-130972048D01*
X93020614Y-130966020D01*
X93274158Y-130952756D01*
X93463011Y-130931400D01*
X93608093Y-130901094D01*
X93730324Y-130860980D01*
X93785279Y-130838727D01*
X94384231Y-130520738D01*
X94847729Y-130135062D01*
X95167001Y-129692488D01*
X95333273Y-129203809D01*
X95356196Y-128906653D01*
X95302738Y-128444983D01*
X95148710Y-128060980D01*
X94882243Y-127745940D01*
X94491465Y-127491158D01*
X93964505Y-127287930D01*
X93289492Y-127127552D01*
X92825000Y-127050668D01*
X91809000Y-126902676D01*
X92416312Y-126717361D01*
X92794741Y-126585280D01*
X93234747Y-126407163D01*
X93649471Y-126218468D01*
X93702118Y-126192451D01*
X94213389Y-125899707D01*
X94569171Y-125613056D01*
X94766609Y-125336867D01*
X94802845Y-125075505D01*
X94675024Y-124833338D01*
X94624167Y-124782672D01*
X94504901Y-124676349D01*
X94392102Y-124590455D01*
X94267165Y-124522932D01*
X94111485Y-124471725D01*
X93906458Y-124434776D01*
X93633478Y-124410028D01*
X93273940Y-124395425D01*
X92809241Y-124388911D01*
X92220775Y-124388428D01*
X91489938Y-124391919D01*
X91110500Y-124394234D01*
X88210667Y-124412134D01*
X88210667Y-124153141D01*
X88220052Y-123986801D01*
X88246098Y-123684874D01*
X88285641Y-123279940D01*
X88335517Y-122804581D01*
X88385061Y-122357241D01*
X88442441Y-121861128D01*
X88495432Y-121420682D01*
X88540422Y-121064566D01*
X88573796Y-120821444D01*
X88591242Y-120721873D01*
X88655976Y-120670981D01*
X88820152Y-120680390D01*
X89030680Y-120727829D01*
X89438333Y-120832246D01*
X89413383Y-121249623D01*
X89389488Y-121547719D01*
X89358443Y-121810860D01*
X89345572Y-121888831D01*
X89358950Y-122061763D01*
X89492593Y-122165954D01*
X89759837Y-122211029D01*
X89759837Y-121741136D01*
X89748035Y-121624667D01*
X89761341Y-121504471D01*
X89790740Y-121518833D01*
X89801923Y-121692176D01*
X89790740Y-121730500D01*
X89759837Y-121741136D01*
X89759837Y-122211029D01*
X89764594Y-122211832D01*
X89913659Y-122216177D01*
X90051508Y-122199049D01*
X90128061Y-122116387D01*
X90174310Y-121924075D01*
X90188825Y-121824516D01*
X90222385Y-121526302D01*
X90241200Y-121255544D01*
X90242667Y-121188516D01*
X90252151Y-121038223D01*
X90311551Y-120977073D01*
X90467286Y-120980806D01*
X90602500Y-121000448D01*
X90830658Y-121040485D01*
X90975655Y-121075475D01*
X90996243Y-121084747D01*
X91000429Y-121176386D01*
X90979073Y-121389112D01*
X90936782Y-121677381D01*
X90935474Y-121685296D01*
X90896222Y-121979676D01*
X90883911Y-122204827D01*
X90901145Y-122312546D01*
X90901565Y-122312951D01*
X91017215Y-122360812D01*
X91232143Y-122411869D01*
X91278909Y-122420151D01*
X91278909Y-122011279D01*
X91265351Y-121928056D01*
X91280918Y-121818242D01*
X91309820Y-121816931D01*
X91330031Y-121930248D01*
X91316504Y-121979208D01*
X91278909Y-122011279D01*
X91278909Y-122420151D01*
X91311702Y-122425960D01*
X91375056Y-122436245D01*
X91375056Y-121636416D01*
X91360398Y-121523959D01*
X91359839Y-121497667D01*
X91368991Y-121353071D01*
X91395495Y-121340340D01*
X91398869Y-121347889D01*
X91415618Y-121515968D01*
X91402007Y-121601889D01*
X91375056Y-121636416D01*
X91375056Y-122436245D01*
X91661071Y-122482682D01*
X91721620Y-121998068D01*
X91760613Y-121717612D01*
X91797729Y-121502179D01*
X91817886Y-121420374D01*
X91908523Y-121376988D01*
X92095475Y-121358078D01*
X92316023Y-121361877D01*
X92507443Y-121386618D01*
X92607014Y-121430536D01*
X92610359Y-121442692D01*
X92592298Y-121547901D01*
X92547940Y-121769667D01*
X92489606Y-122047191D01*
X92432527Y-122327692D01*
X92396728Y-122531877D01*
X92389926Y-122614814D01*
X92476517Y-122638053D01*
X92671964Y-122674651D01*
X92758757Y-122688997D01*
X92918280Y-122714315D01*
X93027551Y-122711458D01*
X93105015Y-122653740D01*
X93169120Y-122514474D01*
X93238313Y-122266976D01*
X93331041Y-121884557D01*
X93339745Y-121848508D01*
X93390013Y-121696345D01*
X93477512Y-121638511D01*
X93658185Y-121648746D01*
X93738895Y-121661160D01*
X94098875Y-121752074D01*
X94544858Y-121913529D01*
X95022106Y-122121907D01*
X95475881Y-122353588D01*
X95803524Y-122552053D01*
X96344806Y-122997988D01*
X96727230Y-123493654D01*
X96949321Y-124026596D01*
X97009603Y-124584358D01*
X96906602Y-125154485D01*
X96638842Y-125724521D01*
X96240708Y-126243614D01*
X95900778Y-126612394D01*
X96193698Y-126869581D01*
X96526202Y-127268154D01*
X96753954Y-127766144D01*
X96870567Y-128325132D01*
X96869650Y-128906700D01*
X96744814Y-129472426D01*
X96661171Y-129680446D01*
X96480617Y-129998703D01*
X96232242Y-130346694D01*
X96008677Y-130606761D01*
X95799691Y-130826870D01*
X95646301Y-130994693D01*
X95577812Y-131078051D01*
X95576667Y-131081149D01*
X95653455Y-131096390D01*
X95852304Y-131108925D01*
X96063500Y-131114751D01*
X96431721Y-131129948D01*
X96813537Y-131160098D01*
X96972482Y-131178251D01*
X97394630Y-131234333D01*
X97538933Y-132163660D01*
X97595377Y-132537085D01*
X97638467Y-132841507D01*
X97663548Y-133042671D01*
X97667118Y-133107018D01*
X97580585Y-133121922D01*
X97345209Y-133154943D01*
X96979890Y-133203719D01*
X96503531Y-133265885D01*
X95935032Y-133339081D01*
X95293294Y-133420943D01*
X94597219Y-133509109D01*
X93865708Y-133601216D01*
X93117662Y-133694903D01*
X92371982Y-133787805D01*
X91647570Y-133877562D01*
X90963326Y-133961810D01*
X90338152Y-134038186D01*
X89790949Y-134104329D01*
X89340618Y-134157876D01*
X89006061Y-134196464D01*
X88806178Y-134217731D01*
X88755962Y-134220851D01*
X88755962Y-138564149D01*
X89045283Y-138030893D01*
X89878969Y-136770217D01*
X90273750Y-136248580D01*
X90793000Y-135590160D01*
X91428000Y-135643793D01*
X92511719Y-135817403D01*
X93163539Y-136024221D01*
X93163539Y-135568840D01*
X93072075Y-135561392D01*
X92913418Y-135515789D01*
X92864459Y-135510000D01*
X92842685Y-135437184D01*
X92880516Y-135238010D01*
X92969995Y-134941393D01*
X93103164Y-134576248D01*
X93161534Y-134430500D01*
X93259956Y-134216329D01*
X93339916Y-134086876D01*
X93363360Y-134069511D01*
X93480414Y-134048807D01*
X93603055Y-134018639D01*
X93688720Y-134003075D01*
X93723721Y-134033688D01*
X93703296Y-134138421D01*
X93622685Y-134345214D01*
X93498255Y-134633629D01*
X93364769Y-134956830D01*
X93263418Y-135235395D01*
X93210843Y-135422362D01*
X93207034Y-135455559D01*
X93163539Y-135568840D01*
X93163539Y-136024221D01*
X93541182Y-136144046D01*
X94502507Y-136612748D01*
X95381809Y-137212535D01*
X96165203Y-137932431D01*
X96838806Y-138761463D01*
X97388733Y-139688654D01*
X97791692Y-140673978D01*
X97981226Y-141438943D01*
X98091115Y-142292252D01*
X98117959Y-143171049D01*
X98058359Y-144012482D01*
X97993599Y-144406892D01*
X97700420Y-145439116D01*
X97257867Y-146411475D01*
X96679858Y-147308935D01*
X95980310Y-148116463D01*
X95173140Y-148819027D01*
X94272266Y-149401593D01*
X93291604Y-149849128D01*
X92807998Y-150008284D01*
X92529392Y-150082655D01*
X92264954Y-150135032D01*
X91975900Y-150168954D01*
X91623443Y-150187959D01*
X91168798Y-150195587D01*
X90750667Y-150196006D01*
X90750667Y-155425479D01*
X90816992Y-155421480D01*
X91124058Y-155458175D01*
X91444152Y-155559636D01*
X91792077Y-155735311D01*
X92182636Y-155994649D01*
X92630633Y-156347099D01*
X93150871Y-156802110D01*
X93758154Y-157369131D01*
X94202303Y-157798069D01*
X94797475Y-158373113D01*
X95292408Y-158837106D01*
X95703380Y-159201869D01*
X96046669Y-159479225D01*
X96338552Y-159680994D01*
X96595308Y-159818999D01*
X96833213Y-159905062D01*
X97068547Y-159951002D01*
X97181956Y-159962029D01*
X97466743Y-159973969D01*
X97649785Y-159944724D01*
X97797335Y-159854335D01*
X97919021Y-159739954D01*
X98042939Y-159603104D01*
X98146152Y-159451818D01*
X98230084Y-159270757D01*
X98296158Y-159044580D01*
X98345797Y-158757949D01*
X98380426Y-158395524D01*
X98401469Y-157941965D01*
X98410347Y-157381933D01*
X98408486Y-156700087D01*
X98397309Y-155881089D01*
X98378240Y-154909599D01*
X98376182Y-154814000D01*
X98368627Y-154303726D01*
X98368325Y-153841728D01*
X98374778Y-153458783D01*
X98387491Y-153185667D01*
X98404511Y-153057167D01*
X98466744Y-152866667D01*
X96746539Y-152866195D01*
X96178866Y-152861474D01*
X95658825Y-152848538D01*
X95216794Y-152828750D01*
X94883153Y-152803470D01*
X94688281Y-152774062D01*
X94687667Y-152773896D01*
X94126016Y-152539430D01*
X93617210Y-152170936D01*
X93195157Y-151701610D01*
X92893762Y-151164650D01*
X92815271Y-150940730D01*
X92738332Y-150665744D01*
X92715182Y-150512419D01*
X92752534Y-150439761D01*
X92857099Y-150406774D01*
X92904087Y-150398216D01*
X93022087Y-150414681D01*
X93097982Y-150541517D01*
X93136169Y-150689252D01*
X93330624Y-151215728D01*
X93665036Y-151695536D01*
X94110432Y-152093699D01*
X94476000Y-152306646D01*
X94857000Y-152485667D01*
X115854333Y-152485667D01*
X116242902Y-152305943D01*
X116766038Y-151977125D01*
X117179647Y-151539598D01*
X117471043Y-151020734D01*
X117627537Y-150447905D01*
X117636443Y-149848483D01*
X117559428Y-149465594D01*
X117336369Y-148968360D01*
X116986314Y-148510355D01*
X116551339Y-148140239D01*
X116280893Y-147986954D01*
X115854333Y-147788321D01*
X96826013Y-147786667D01*
X96952469Y-147596167D01*
X97078926Y-147405667D01*
X98188670Y-147394373D01*
X98188670Y-139050495D01*
X97748246Y-138957928D01*
X97391524Y-138757219D01*
X97122053Y-138482280D01*
X96898972Y-138208571D01*
X96670935Y-137941302D01*
X96564226Y-137822088D01*
X96385900Y-137568284D01*
X96236368Y-137254512D01*
X96199890Y-137144755D01*
X96133762Y-136761331D01*
X96109347Y-136268403D01*
X96124068Y-135719906D01*
X96175346Y-135169772D01*
X96260605Y-134671937D01*
X96330636Y-134409333D01*
X96446623Y-134060658D01*
X96538042Y-133839625D01*
X96628325Y-133711490D01*
X96740907Y-133641509D01*
X96876025Y-133600691D01*
X97115354Y-133540623D01*
X96936894Y-133890434D01*
X96707563Y-134477921D01*
X96555257Y-135159322D01*
X96485334Y-135877585D01*
X96503154Y-136575660D01*
X96614076Y-137196496D01*
X96623325Y-137228416D01*
X96844116Y-137729364D01*
X97171643Y-138150826D01*
X97576294Y-138462931D01*
X98015893Y-138633227D01*
X98629664Y-138688390D01*
X99184298Y-138588575D01*
X99672618Y-138339968D01*
X100087443Y-137948755D01*
X100421594Y-137421124D01*
X100667892Y-136763261D01*
X100780503Y-136250833D01*
X100804981Y-136043670D01*
X100769914Y-135953420D01*
X100654044Y-135932047D01*
X100639337Y-135931863D01*
X100459544Y-135913884D01*
X100176559Y-135868216D01*
X99858410Y-135806128D01*
X99293555Y-135639298D01*
X98857310Y-135396432D01*
X98538229Y-135061698D01*
X98324871Y-134619259D01*
X98205793Y-134053283D01*
X98170246Y-133470114D01*
X98157777Y-133053495D01*
X98132055Y-132787837D01*
X98090563Y-132655105D01*
X98053167Y-132631559D01*
X97972563Y-132559322D01*
X97947333Y-132427626D01*
X98029750Y-132252123D01*
X98273096Y-132107778D01*
X98671520Y-131996477D01*
X99219166Y-131920106D01*
X99609432Y-131892219D01*
X100467197Y-131848033D01*
X100653559Y-132345516D01*
X100824471Y-132822041D01*
X100948499Y-133231185D01*
X101032910Y-133618149D01*
X101084973Y-134028138D01*
X101111953Y-134506353D01*
X101121119Y-135097997D01*
X101121472Y-135256000D01*
X101119373Y-135796321D01*
X101109973Y-136202951D01*
X101089768Y-136511490D01*
X101055250Y-136757537D01*
X101002914Y-136976692D01*
X100929682Y-137203333D01*
X100629424Y-137860336D01*
X100238947Y-138374755D01*
X99759101Y-138745876D01*
X99190732Y-138972984D01*
X98743676Y-139045650D01*
X98188670Y-139050495D01*
X98188670Y-147394373D01*
X101238632Y-147363333D01*
X105398338Y-147321000D01*
X104710218Y-146728333D01*
X104017598Y-146093247D01*
X103440582Y-145483263D01*
X102986782Y-144908870D01*
X102663813Y-144380555D01*
X102479287Y-143908806D01*
X102436321Y-143595667D01*
X102468536Y-143273689D01*
X102571900Y-142942199D01*
X102756488Y-142587962D01*
X103032376Y-142197747D01*
X103409640Y-141758319D01*
X103898356Y-141256447D01*
X104508601Y-140678897D01*
X104986403Y-140246642D01*
X105446681Y-139834284D01*
X105796288Y-139515055D01*
X106051921Y-139270492D01*
X106230274Y-139082136D01*
X106348044Y-138931526D01*
X106421924Y-138800201D01*
X106468611Y-138669702D01*
X106490715Y-138583275D01*
X106586052Y-138093644D01*
X106667503Y-137520682D01*
X106725348Y-136945264D01*
X106749867Y-136448261D01*
X106750053Y-136425355D01*
X106752667Y-135943709D01*
X106392833Y-135891388D01*
X106150363Y-135871276D01*
X105796631Y-135860489D01*
X105389517Y-135860274D01*
X105166385Y-135865034D01*
X104299771Y-135891000D01*
X104258198Y-136949333D01*
X104151889Y-138241624D01*
X103939324Y-139402830D01*
X103619988Y-140434129D01*
X103193370Y-141336696D01*
X102658953Y-142111707D01*
X102016225Y-142760336D01*
X101572502Y-143093277D01*
X100761482Y-143544016D01*
X99918192Y-143831209D01*
X99111500Y-143954418D01*
X98782140Y-143975063D01*
X98586697Y-143974471D01*
X98490341Y-143945477D01*
X98458242Y-143880916D01*
X98455333Y-143819432D01*
X98489941Y-143688589D01*
X98624953Y-143641067D01*
X98712903Y-143638000D01*
X99086924Y-143605255D01*
X99553689Y-143517208D01*
X100052021Y-143389146D01*
X100520741Y-143236353D01*
X100826000Y-143110044D01*
X101255456Y-142861918D01*
X101700204Y-142509413D01*
X102019325Y-142206747D01*
X102533493Y-141617749D01*
X102953409Y-140963505D01*
X103296509Y-140211581D01*
X103580233Y-139329543D01*
X103594181Y-139277667D01*
X103669930Y-138982698D01*
X103726729Y-138722849D01*
X103767391Y-138465699D01*
X103794731Y-138178827D01*
X103811565Y-137829812D01*
X103820707Y-137386233D01*
X103824972Y-136815670D01*
X103825735Y-136610667D01*
X103818820Y-135766721D01*
X103788612Y-135052966D01*
X103729927Y-134431234D01*
X103637583Y-133863354D01*
X103506395Y-133311155D01*
X103331181Y-132736468D01*
X103278481Y-132580709D01*
X103189604Y-132309456D01*
X103129203Y-132100372D01*
X103112000Y-132013668D01*
X103188755Y-131967975D01*
X103393905Y-131951747D01*
X103689776Y-131961352D01*
X104038698Y-131993155D01*
X104402997Y-132043526D01*
X104745001Y-132108830D01*
X105027038Y-132185435D01*
X105076405Y-132203104D01*
X105649360Y-132508555D01*
X106149951Y-132951631D01*
X106560331Y-133509638D01*
X106862649Y-134159881D01*
X106998055Y-134646334D01*
X107074768Y-135210176D01*
X107103003Y-135892113D01*
X107085762Y-136648922D01*
X107026046Y-137437379D01*
X106926856Y-138214262D01*
X106791193Y-138936345D01*
X106666760Y-139417810D01*
X106536707Y-139959875D01*
X106507367Y-140412262D01*
X106580484Y-140822697D01*
X106731500Y-141188127D01*
X107036236Y-141648136D01*
X107416846Y-141960722D01*
X107890677Y-142137361D01*
X108236206Y-142183470D01*
X108582321Y-142191761D01*
X108849885Y-142152591D01*
X109126886Y-142049121D01*
X109254782Y-141988532D01*
X109558838Y-141812205D01*
X109801534Y-141596945D01*
X110005308Y-141311044D01*
X110192593Y-140922797D01*
X110385827Y-140400495D01*
X110392583Y-140380555D01*
X110642336Y-139508309D01*
X110847858Y-138521184D01*
X111002855Y-137469330D01*
X111101034Y-136402896D01*
X111136101Y-135372032D01*
X111115358Y-134621000D01*
X110983046Y-133355280D01*
X110745306Y-132220417D01*
X110400570Y-131213529D01*
X109947269Y-130331732D01*
X109383837Y-129572142D01*
X108708704Y-128931877D01*
X107920304Y-128408053D01*
X107664626Y-128274737D01*
X107269239Y-128089258D01*
X106883162Y-127930846D01*
X106489531Y-127797443D01*
X106071481Y-127686994D01*
X105612149Y-127597443D01*
X105094669Y-127526735D01*
X104502178Y-127472813D01*
X103817810Y-127433621D01*
X103024701Y-127407103D01*
X102105988Y-127391205D01*
X101044804Y-127383868D01*
X100347530Y-127382724D01*
X97032726Y-127382000D01*
X96856980Y-127106833D01*
X96713796Y-126887817D01*
X96593449Y-126712050D01*
X96581246Y-126695173D01*
X96539414Y-126586372D01*
X96585548Y-126450015D01*
X96735405Y-126241236D01*
X96744769Y-126229507D01*
X97115753Y-125647273D01*
X97328287Y-125031061D01*
X97380052Y-124551465D01*
X97337850Y-123991478D01*
X97188319Y-123514161D01*
X96911113Y-123056902D01*
X96881763Y-123017938D01*
X96593785Y-122640667D01*
X100776818Y-122640667D01*
X100776818Y-118974695D01*
X100651395Y-118964137D01*
X100518194Y-118833218D01*
X100378779Y-118626837D01*
X100225667Y-118404693D01*
X100086979Y-118289586D01*
X99895231Y-118240348D01*
X99719799Y-118224821D01*
X99462278Y-118215597D01*
X99306514Y-118253704D01*
X99185779Y-118369515D01*
X99086318Y-118513167D01*
X98945836Y-118704414D01*
X98835783Y-118817522D01*
X98807557Y-118830667D01*
X98707572Y-118774647D01*
X98558671Y-118638781D01*
X98548966Y-118628544D01*
X98359081Y-118426421D01*
X98620691Y-118128463D01*
X98882301Y-117830506D01*
X98708966Y-117536725D01*
X98540565Y-117320529D01*
X98322331Y-117214127D01*
X98199149Y-117189138D01*
X97983362Y-117143122D01*
X97887519Y-117064194D01*
X97863233Y-116901005D01*
X97862667Y-116832055D01*
X97862667Y-116528777D01*
X98264833Y-116579257D01*
X98512272Y-116602172D01*
X98659319Y-116570903D01*
X98773113Y-116455935D01*
X98865596Y-116315139D01*
X99064191Y-116000541D01*
X98882889Y-115627366D01*
X98782969Y-115408408D01*
X98729218Y-115263871D01*
X98726627Y-115233564D01*
X98854311Y-115157200D01*
X99033825Y-115073951D01*
X99177244Y-115023511D01*
X99198216Y-115020667D01*
X99268999Y-115093370D01*
X99356501Y-115276253D01*
X99389636Y-115368330D01*
X99462189Y-115571126D01*
X99542299Y-115690254D01*
X99675940Y-115756277D01*
X99909084Y-115799761D01*
X100071808Y-115821864D01*
X100307392Y-115845333D01*
X100452783Y-115814182D01*
X100572940Y-115696999D01*
X100694028Y-115520995D01*
X100927439Y-115168287D01*
X101143841Y-115384690D01*
X101360244Y-115601093D01*
X101107946Y-115915590D01*
X100958465Y-116112168D01*
X100901944Y-116253029D01*
X100925062Y-116414283D01*
X100988323Y-116599044D01*
X101120999Y-116968000D01*
X102096000Y-116968000D01*
X102096000Y-117571042D01*
X101693833Y-117516404D01*
X101427296Y-117477511D01*
X101219258Y-117442472D01*
X101164667Y-117431161D01*
X101039092Y-117478477D01*
X100885054Y-117642903D01*
X100843478Y-117703705D01*
X100649289Y-118006854D01*
X100864644Y-118332278D01*
X101010409Y-118561781D01*
X101065878Y-118698906D01*
X101036803Y-118790731D01*
X100931833Y-118882140D01*
X100776818Y-118974695D01*
X100776818Y-122640667D01*
X101383389Y-122640667D01*
X101383389Y-117892649D01*
X101273575Y-117877083D01*
X101272264Y-117848181D01*
X101385581Y-117827969D01*
X101434542Y-117841497D01*
X101466612Y-117879091D01*
X101383389Y-117892649D01*
X101383389Y-122640667D01*
X102519333Y-122640667D01*
X102519333Y-117899333D01*
X102519333Y-116629333D01*
X102201833Y-116619316D01*
X101785710Y-116582858D01*
X101500207Y-116506742D01*
X101361746Y-116395808D01*
X101353008Y-116369174D01*
X101387558Y-116229389D01*
X101504053Y-116023907D01*
X101584808Y-115913684D01*
X101733398Y-115724454D01*
X101826294Y-115601817D01*
X101842000Y-115577874D01*
X101786354Y-115517219D01*
X101638215Y-115366389D01*
X101425784Y-115153982D01*
X101346666Y-115075533D01*
X100851331Y-114585367D01*
X100575839Y-115014684D01*
X100397933Y-115266886D01*
X100253186Y-115398668D01*
X100102605Y-115442799D01*
X100065008Y-115444000D01*
X99923282Y-115424348D01*
X99818162Y-115340552D01*
X99715698Y-115155356D01*
X99640667Y-114978333D01*
X99537618Y-114731206D01*
X99461952Y-114562352D01*
X99433764Y-114512667D01*
X99332021Y-114544442D01*
X99126439Y-114625438D01*
X98867038Y-114734160D01*
X98603841Y-114849117D01*
X98386867Y-114948812D01*
X98266139Y-115011754D01*
X98258192Y-115017800D01*
X98255836Y-115122934D01*
X98321477Y-115326989D01*
X98413407Y-115529470D01*
X98536247Y-115787754D01*
X98581982Y-115944763D01*
X98558857Y-116045473D01*
X98517202Y-116095751D01*
X98322284Y-116183346D01*
X98077946Y-116139825D01*
X97820362Y-115980180D01*
X97585707Y-115719403D01*
X97576519Y-115705907D01*
X97253253Y-115088317D01*
X97035708Y-114377826D01*
X96929594Y-113618175D01*
X96940621Y-112853108D01*
X97074498Y-112126365D01*
X97098692Y-112045085D01*
X97418938Y-111294238D01*
X97882992Y-110614539D01*
X98475329Y-110019815D01*
X99180424Y-109523889D01*
X99982749Y-109140587D01*
X100572000Y-108952353D01*
X101147044Y-108849658D01*
X101817870Y-108804679D01*
X102521399Y-108816502D01*
X103194553Y-108884217D01*
X103744027Y-108998232D01*
X104623357Y-109322194D01*
X105395077Y-109764830D01*
X106049821Y-110317935D01*
X106578226Y-110973308D01*
X106970928Y-111722745D01*
X107030032Y-111876764D01*
X107141598Y-112304193D01*
X107216050Y-112832790D01*
X107249369Y-113397654D01*
X107237533Y-113933885D01*
X107183065Y-114347271D01*
X106944207Y-115076195D01*
X106559135Y-115769515D01*
X106050830Y-116398520D01*
X105442269Y-116934499D01*
X104796361Y-117329314D01*
X104285205Y-117549940D01*
X103746423Y-117728884D01*
X103236156Y-117850194D01*
X102810541Y-117897921D01*
X102794500Y-117898082D01*
X102519333Y-117899333D01*
X102519333Y-122640667D01*
X106060526Y-122640667D01*
X107570207Y-122640775D01*
X108920116Y-122640781D01*
X110119812Y-122640208D01*
X111178855Y-122638576D01*
X112106807Y-122635408D01*
X112913226Y-122630226D01*
X113607673Y-122622552D01*
X114199708Y-122611908D01*
X114698892Y-122597816D01*
X115114785Y-122579797D01*
X115456945Y-122557375D01*
X115734935Y-122530070D01*
X115958314Y-122497405D01*
X116136642Y-122458902D01*
X116279479Y-122414083D01*
X116396386Y-122362470D01*
X116496922Y-122303584D01*
X116590648Y-122236948D01*
X116687124Y-122162084D01*
X116759885Y-122105693D01*
X117105266Y-121753482D01*
X117390704Y-121291977D01*
X117585051Y-120778752D01*
X117645027Y-120469538D01*
X117630537Y-119894114D01*
X117630537Y-119894114D01*
G37*
X117630537Y-119894114D02*
X117462655Y-119335993D01*
X117156915Y-118824251D01*
X116728846Y-118387964D01*
X116418725Y-118173903D01*
X116023667Y-117941667D01*
X112004205Y-117899333D01*
X107984744Y-117857000D01*
X108338970Y-117596602D01*
X108951223Y-117095189D01*
X109527642Y-116526425D01*
X110033038Y-115929642D01*
X110432221Y-115344170D01*
X110555876Y-115118787D01*
X110795448Y-114608212D01*
X110969393Y-114138154D01*
X111086785Y-113664358D01*
X111156697Y-113142567D01*
X111188203Y-112528525D01*
X111192245Y-112015000D01*
X111187526Y-111481763D01*
X111175206Y-111076679D01*
X111150710Y-110758594D01*
X111109461Y-110486355D01*
X111046882Y-110218808D01*
X110958842Y-109916256D01*
X110538668Y-108816391D01*
X109986286Y-107819511D01*
X109306796Y-106929494D01*
X108505294Y-106150220D01*
X107586878Y-105485570D01*
X106556643Y-104939423D01*
X105419689Y-104515659D01*
X104181111Y-104218159D01*
X103308094Y-104092604D01*
X102334611Y-104037358D01*
X101300467Y-104067887D01*
X100260731Y-104178428D01*
X99270471Y-104363219D01*
X98420828Y-104603974D01*
X98149847Y-104694100D01*
X97945343Y-104756379D01*
X97860352Y-104776000D01*
X97801515Y-104698792D01*
X97760918Y-104495237D01*
X97739535Y-104207438D01*
X97738339Y-103877498D01*
X97758303Y-103547521D01*
X97800400Y-103259611D01*
X97823168Y-103167333D01*
X98088524Y-102349334D01*
X98364327Y-101696789D01*
X98652573Y-101206029D01*
X98955261Y-100873388D01*
X99138488Y-100751323D01*
X99538650Y-100626806D01*
X100040827Y-100616772D01*
X100650465Y-100722016D01*
X101373010Y-100943334D01*
X101926667Y-101158478D01*
X102693397Y-101476142D01*
X103323187Y-101733322D01*
X103834600Y-101936556D01*
X104246198Y-102092386D01*
X104576546Y-102207352D01*
X104844206Y-102287992D01*
X105067741Y-102340846D01*
X105265716Y-102372456D01*
X105412142Y-102386412D01*
X105721614Y-102402995D01*
X105917618Y-102388621D01*
X106055075Y-102330213D01*
X106188902Y-102214693D01*
X106206410Y-102197288D01*
X106334027Y-102053873D01*
X106396481Y-101914032D01*
X106408599Y-101717942D01*
X106389909Y-101456955D01*
X106353309Y-101172541D01*
X106305683Y-100956483D01*
X106267127Y-100869927D01*
X106152937Y-100831757D01*
X105912673Y-100794716D01*
X105589523Y-100764742D01*
X105434486Y-100755437D01*
X104594605Y-100665725D01*
X103837502Y-100479806D01*
X103155059Y-100189236D01*
X102539158Y-99785569D01*
X101981679Y-99260360D01*
X101474506Y-98605164D01*
X101009519Y-97811536D01*
X100578600Y-96871031D01*
X100173632Y-95775203D01*
X99939638Y-95039333D01*
X99709133Y-94285693D01*
X99515080Y-93675993D01*
X99349645Y-93190732D01*
X99204995Y-92810413D01*
X99073296Y-92515534D01*
X98946714Y-92286595D01*
X98817417Y-92104098D01*
X98712348Y-91984287D01*
X98489907Y-91777060D01*
X98298427Y-91677584D01*
X98083238Y-91652667D01*
X97683815Y-91717155D01*
X97362990Y-91897109D01*
X97189199Y-92111110D01*
X97071069Y-92238958D01*
X96909051Y-92322273D01*
X96759803Y-92344023D01*
X96679981Y-92287175D01*
X96677333Y-92264988D01*
X96733533Y-92117643D01*
X96874215Y-91909255D01*
X97057504Y-91691510D01*
X97241524Y-91516093D01*
X97335928Y-91452116D01*
X97806106Y-91282104D01*
X98237384Y-91276119D01*
X98637686Y-91435692D01*
X99014931Y-91762355D01*
X99030310Y-91779664D01*
X99180900Y-91969651D01*
X99322481Y-92194486D01*
X99463185Y-92474309D01*
X99611147Y-92829262D01*
X99774499Y-93279485D01*
X99961375Y-93845122D01*
X100179908Y-94546311D01*
X100278232Y-94870000D01*
X100636997Y-95973809D01*
X101002328Y-96921519D01*
X101382892Y-97726348D01*
X101787356Y-98401517D01*
X102224389Y-98960247D01*
X102702657Y-99415757D01*
X103230827Y-99781268D01*
X103635615Y-99990992D01*
X104185879Y-100195927D01*
X104777633Y-100317235D01*
X105453402Y-100361404D01*
X105990667Y-100350307D01*
X106921539Y-100240445D01*
X107753448Y-99999934D01*
X108503115Y-99621783D01*
X109187262Y-99098998D01*
X109348808Y-98946078D01*
X109969608Y-98224035D01*
X110458255Y-97408103D01*
X110816489Y-96493483D01*
X111046050Y-95475374D01*
X111148677Y-94348976D01*
X111154993Y-93963403D01*
X111111542Y-92861328D01*
X110974508Y-91837783D01*
X110732769Y-90823400D01*
X110565747Y-90287733D01*
X110276514Y-89482568D01*
X109994490Y-88831481D01*
X109709403Y-88320121D01*
X109410985Y-87934138D01*
X109088965Y-87659180D01*
X108733074Y-87480898D01*
X108511453Y-87417106D01*
X107973765Y-87376081D01*
X107469779Y-87485005D01*
X107022874Y-87724808D01*
X106656431Y-88076423D01*
X106393827Y-88520778D01*
X106258442Y-89038806D01*
X106245139Y-89265615D01*
X106278362Y-89452236D01*
X106369056Y-89750513D01*
X106503168Y-90118615D01*
X106658524Y-90496112D01*
X106965297Y-91225575D01*
X107197945Y-91842812D01*
X107366233Y-92382691D01*
X107479928Y-92880078D01*
X107548796Y-93369840D01*
X107578176Y-93779596D01*
X107577590Y-94462629D01*
X107500239Y-95009906D01*
X107338845Y-95440092D01*
X107086129Y-95771850D01*
X106734813Y-96023845D01*
X106694733Y-96044988D01*
X106378993Y-96129492D01*
X106008999Y-96117669D01*
X105666161Y-96014526D01*
X105598307Y-95977559D01*
X105398822Y-95837102D01*
X105217120Y-95661640D01*
X105043929Y-95433201D01*
X104869978Y-95133811D01*
X104685993Y-94745498D01*
X104482704Y-94250288D01*
X104250838Y-93630208D01*
X103981124Y-92867285D01*
X103955142Y-92792345D01*
X103659777Y-91955811D01*
X103399791Y-91258067D01*
X103164853Y-90674853D01*
X102944636Y-90181912D01*
X102728810Y-89754985D01*
X102507047Y-89369813D01*
X102477657Y-89322207D01*
X102078563Y-88768285D01*
X101604250Y-88251254D01*
X101094792Y-87809101D01*
X100590261Y-87479811D01*
X100471425Y-87420427D01*
X99928271Y-87220864D01*
X99316154Y-87082073D01*
X98706720Y-87016460D01*
X98218752Y-87030344D01*
X97958675Y-87056546D01*
X97827466Y-87047359D01*
X97786190Y-86990096D01*
X97793088Y-86891621D01*
X97818700Y-86796420D01*
X97885995Y-86737208D01*
X98030369Y-86703336D01*
X98287217Y-86684154D01*
X98512485Y-86675179D01*
X99406339Y-86720692D01*
X100235519Y-86922663D01*
X100999759Y-87280943D01*
X101698793Y-87795385D01*
X102332355Y-88465839D01*
X102736592Y-89027663D01*
X102977279Y-89425194D01*
X103209964Y-89866479D01*
X103444831Y-90375042D01*
X103692062Y-90974407D01*
X103961842Y-91688098D01*
X104264353Y-92539641D01*
X104294393Y-92626333D01*
X104459989Y-93102733D01*
X104606961Y-93521062D01*
X104726345Y-93856173D01*
X104809177Y-94082916D01*
X104846493Y-94176144D01*
X104847081Y-94176934D01*
X104928980Y-94154427D01*
X105122827Y-94070787D01*
X105390245Y-93942826D01*
X105452823Y-93911563D01*
X105838400Y-93724459D01*
X106261703Y-93529492D01*
X106583333Y-93389230D01*
X106858018Y-93272799D01*
X107062354Y-93183443D01*
X107154705Y-93139397D01*
X107155876Y-93138504D01*
X107152202Y-93041431D01*
X107097039Y-92817648D01*
X107000769Y-92498068D01*
X106873774Y-92113608D01*
X106726434Y-91695181D01*
X106569131Y-91273704D01*
X106412246Y-90880090D01*
X106341371Y-90712964D01*
X106176580Y-90322941D01*
X106037166Y-89972718D01*
X105937738Y-89700399D01*
X105892911Y-89544086D01*
X105892791Y-89543263D01*
X105854654Y-89433020D01*
X105754447Y-89340411D01*
X105559766Y-89245624D01*
X105238204Y-89128845D01*
X105186333Y-89111332D01*
X104483416Y-88851461D01*
X103936244Y-88590862D01*
X103531658Y-88316796D01*
X103256497Y-88016525D01*
X103097601Y-87677307D01*
X103041809Y-87286404D01*
X103050390Y-87043736D01*
X103080596Y-86776796D01*
X103129914Y-86514952D01*
X103207437Y-86232270D01*
X103322257Y-85902816D01*
X103483463Y-85500658D01*
X103700148Y-84999864D01*
X103981404Y-84374499D01*
X104002101Y-84329000D01*
X104324744Y-83603715D01*
X104570240Y-83009546D01*
X104742686Y-82529040D01*
X104846176Y-82144741D01*
X104884805Y-81839193D01*
X104862670Y-81594942D01*
X104783864Y-81394534D01*
X104714522Y-81292418D01*
X104574519Y-81152298D01*
X104401940Y-81086268D01*
X104130198Y-81069344D01*
X104119996Y-81069333D01*
X103854638Y-81091907D01*
X103558057Y-81165467D01*
X103211679Y-81298771D01*
X102796928Y-81500577D01*
X102295231Y-81779644D01*
X101688011Y-82144731D01*
X101223854Y-82434891D01*
X100554852Y-82851292D01*
X100002138Y-83179076D01*
X99544466Y-83428412D01*
X99160592Y-83609467D01*
X98829270Y-83732410D01*
X98529256Y-83807410D01*
X98286547Y-83840739D01*
X97977992Y-83857913D01*
X97763312Y-83830665D01*
X97569653Y-83744149D01*
X97453269Y-83670939D01*
X97229724Y-83491340D01*
X97009696Y-83243932D01*
X96783790Y-82912283D01*
X96542609Y-82479961D01*
X96276760Y-81930535D01*
X95976846Y-81247574D01*
X95736071Y-80667682D01*
X95392626Y-79844826D01*
X95092361Y-79172635D01*
X94826814Y-78640504D01*
X94587520Y-78237834D01*
X94366017Y-77954020D01*
X94153843Y-77778462D01*
X93942532Y-77700557D01*
X93723623Y-77709702D01*
X93488653Y-77795295D01*
X93456235Y-77811614D01*
X93290446Y-77926590D01*
X93138271Y-78101577D01*
X92993626Y-78352571D01*
X92850426Y-78695565D01*
X92702585Y-79146555D01*
X92544020Y-79721536D01*
X92368646Y-80436503D01*
X92233037Y-81027000D01*
X92115044Y-81493747D01*
X91973440Y-81967375D01*
X91827917Y-82385719D01*
X91723408Y-82635667D01*
X91442471Y-83228333D01*
X90769760Y-83201092D01*
X90338374Y-83199227D01*
X89975885Y-83243110D01*
X89586266Y-83346483D01*
X89455871Y-83389087D01*
X88814693Y-83604324D01*
X87270842Y-83138811D01*
X86516994Y-82917746D01*
X85899604Y-82752878D01*
X85396425Y-82641353D01*
X84985210Y-82580316D01*
X84643715Y-82566913D01*
X84349692Y-82598289D01*
X84080895Y-82671592D01*
X83968071Y-82715066D01*
X83775998Y-82882586D01*
X83668249Y-83175767D01*
X83654063Y-83568491D01*
X83656493Y-83595740D01*
X83708762Y-83873642D01*
X83822094Y-84212752D01*
X84004151Y-84629578D01*
X84262595Y-85140631D01*
X84605088Y-85762419D01*
X84897790Y-86270420D01*
X85293664Y-86989284D01*
X85574193Y-87603236D01*
X85740668Y-88130124D01*
X85794380Y-88587793D01*
X85736620Y-88994091D01*
X85568680Y-89366865D01*
X85291851Y-89723961D01*
X85157514Y-89860086D01*
X84976130Y-90018228D01*
X84737070Y-90195718D01*
X84423816Y-90402772D01*
X84019845Y-90649603D01*
X83508640Y-90946426D01*
X82873678Y-91303455D01*
X82395211Y-91568000D01*
X81709003Y-91974891D01*
X81162562Y-92362092D01*
X80761870Y-92724145D01*
X80512909Y-93055594D01*
X80421663Y-93350983D01*
X80421333Y-93368375D01*
X80504283Y-93710266D01*
X80746326Y-94043032D01*
X81137249Y-94354360D01*
X81336929Y-94472263D01*
X81546385Y-94568984D01*
X81884995Y-94705101D01*
X82320577Y-94868585D01*
X82820948Y-95047410D01*
X83353926Y-95229548D01*
X83438258Y-95257591D01*
X84251635Y-95535555D01*
X84916377Y-95784358D01*
X85448642Y-96013789D01*
X85864585Y-96233637D01*
X86180366Y-96453692D01*
X86412142Y-96683744D01*
X86576069Y-96933583D01*
X86688305Y-97212997D01*
X86693436Y-97229872D01*
X86738242Y-97559148D01*
X86696439Y-97973957D01*
X86564775Y-98486170D01*
X86339997Y-99107657D01*
X86018853Y-99850289D01*
X85913367Y-100077000D01*
X85560824Y-100840809D01*
X85287772Y-101472823D01*
X85090438Y-101988694D01*
X84965050Y-102404073D01*
X84907834Y-102734614D01*
X84915018Y-102995969D01*
X84982828Y-103203789D01*
X85107492Y-103373727D01*
X85116485Y-103382849D01*
X85294717Y-103518571D01*
X85515140Y-103579712D01*
X85748309Y-103590667D01*
X85971452Y-103578903D01*
X86209099Y-103538269D01*
X86481566Y-103460753D01*
X86809169Y-103338340D01*
X87212222Y-103163018D01*
X87711043Y-102926773D01*
X88325947Y-102621593D01*
X88749811Y-102406774D01*
X89252677Y-102156226D01*
X89727046Y-101930330D01*
X90144527Y-101741796D01*
X90476728Y-101603336D01*
X90695260Y-101527660D01*
X90731375Y-101519593D01*
X91028413Y-101502558D01*
X91409359Y-101526147D01*
X91687369Y-101565497D01*
X92012411Y-101631494D01*
X92234318Y-101710822D01*
X92417834Y-101838970D01*
X92627702Y-102051426D01*
X92681491Y-102110417D01*
X92927080Y-102415585D01*
X93187022Y-102792272D01*
X93402463Y-103154358D01*
X93725925Y-103760000D01*
X93434213Y-103760000D01*
X93147255Y-103775288D01*
X92895521Y-103809396D01*
X92764383Y-103842366D01*
X92692150Y-103902450D01*
X92663627Y-104030805D01*
X92663622Y-104268589D01*
X92668910Y-104423229D01*
X92674773Y-104702655D01*
X92665132Y-104823554D01*
X92638339Y-104796165D01*
X92618990Y-104733667D01*
X92568082Y-104470075D01*
X92539443Y-104173079D01*
X92538684Y-104152220D01*
X92528667Y-103824772D01*
X91872500Y-103883351D01*
X90261918Y-104065923D01*
X88801340Y-104312447D01*
X87491797Y-104622480D01*
X86334318Y-104995579D01*
X85329935Y-105431302D01*
X84479677Y-105929206D01*
X83784576Y-106488848D01*
X83245662Y-107109786D01*
X82884345Y-107744590D01*
X82649733Y-108472212D01*
X82573562Y-109213382D01*
X82647359Y-109953124D01*
X82862652Y-110676459D01*
X83210969Y-111368410D01*
X83683837Y-112013999D01*
X84272783Y-112598248D01*
X84969336Y-113106180D01*
X85765023Y-113522816D01*
X86261156Y-113714210D01*
X86632799Y-113840243D01*
X86632799Y-113435839D01*
X86211711Y-113295976D01*
X85492935Y-112983031D01*
X84815622Y-112546990D01*
X84206210Y-112013952D01*
X83691138Y-111410013D01*
X83296843Y-110761270D01*
X83079169Y-110203771D01*
X83002014Y-109749371D01*
X82991932Y-109207695D01*
X83044880Y-108645141D01*
X83156812Y-108128107D01*
X83216395Y-107951000D01*
X83453602Y-107504365D01*
X83818539Y-107036451D01*
X84278363Y-106579728D01*
X84800225Y-106166665D01*
X85351281Y-105829730D01*
X85374333Y-105817851D01*
X86271520Y-105421535D01*
X87318403Y-105071116D01*
X88500651Y-104770430D01*
X89803935Y-104523308D01*
X90691503Y-104395469D01*
X91221506Y-104327490D01*
X91607165Y-104283660D01*
X91872560Y-104270601D01*
X92041770Y-104294934D01*
X92138876Y-104363283D01*
X92187956Y-104482267D01*
X92213092Y-104658511D01*
X92229209Y-104818333D01*
X92288145Y-105368667D01*
X93144086Y-105368667D01*
X93102242Y-104783834D01*
X93060397Y-104199002D01*
X93441396Y-104141867D01*
X93681788Y-104117993D01*
X93832670Y-104154812D01*
X93922298Y-104282473D01*
X93978930Y-104531120D01*
X94008296Y-104746675D01*
X94064851Y-105199333D01*
X94479976Y-105199333D01*
X94726449Y-105194034D01*
X94843730Y-105161700D01*
X94871943Y-105077674D01*
X94858883Y-104966500D01*
X94823650Y-104726038D01*
X94783707Y-104434924D01*
X94777202Y-104385524D01*
X94731738Y-104037381D01*
X95166404Y-103985901D01*
X95427587Y-103964583D01*
X95618324Y-103966572D01*
X95673535Y-103979208D01*
X95716721Y-104083470D01*
X95743351Y-104296511D01*
X95747297Y-104421164D01*
X95763762Y-104742771D01*
X95827676Y-104925047D01*
X95934887Y-104981006D01*
X95934887Y-101980704D01*
X95686112Y-101955791D01*
X95556072Y-101863338D01*
X95523976Y-101671469D01*
X95558626Y-101403900D01*
X95595330Y-101150962D01*
X95603804Y-100973676D01*
X95592938Y-100925827D01*
X95485530Y-100895133D01*
X95285787Y-100881386D01*
X95272225Y-100881333D01*
X95111068Y-100891698D01*
X95016721Y-100950289D01*
X94955347Y-101098350D01*
X94902436Y-101332056D01*
X94808866Y-101782779D01*
X94340719Y-101697924D01*
X94076153Y-101644175D01*
X93943384Y-101590392D01*
X93906720Y-101511607D01*
X93924378Y-101406657D01*
X94005045Y-101068629D01*
X94038409Y-100861893D01*
X94023399Y-100754843D01*
X93958946Y-100715870D01*
X93900842Y-100712000D01*
X93692859Y-100688922D01*
X93603162Y-100664153D01*
X93514017Y-100681310D01*
X93434666Y-100824371D01*
X93367785Y-101048194D01*
X93297922Y-101298122D01*
X93232044Y-101419656D01*
X93134889Y-101449124D01*
X92998715Y-101428386D01*
X92697078Y-101363946D01*
X92529566Y-101305405D01*
X92463922Y-101227181D01*
X92467888Y-101103691D01*
X92485013Y-101020977D01*
X92541287Y-100738410D01*
X92541156Y-100580450D01*
X92468034Y-100507116D01*
X92305336Y-100478431D01*
X92258242Y-100474339D01*
X92049998Y-100469487D01*
X91949565Y-100532322D01*
X91896852Y-100708567D01*
X91887718Y-100756265D01*
X91818788Y-100971085D01*
X91723716Y-101102296D01*
X91706355Y-101111615D01*
X91535687Y-101116562D01*
X91251490Y-101062160D01*
X90893862Y-100960287D01*
X90502897Y-100822819D01*
X90118693Y-100661635D01*
X90005162Y-100607693D01*
X89415765Y-100235888D01*
X88966078Y-99776128D01*
X88660955Y-99242867D01*
X88505249Y-98650558D01*
X88503814Y-98013654D01*
X88661503Y-97346609D01*
X88798191Y-97013430D01*
X89016435Y-96641868D01*
X89328719Y-96228746D01*
X89688851Y-95827419D01*
X90050641Y-95491244D01*
X90237559Y-95350790D01*
X90372385Y-95243482D01*
X90406972Y-95179250D01*
X90406892Y-95179178D01*
X90313140Y-95176114D01*
X90086581Y-95192976D01*
X89762159Y-95226605D01*
X89410397Y-95269238D01*
X89025272Y-95313804D01*
X88704072Y-95341576D01*
X88482480Y-95350092D01*
X88397560Y-95339115D01*
X88371899Y-95245488D01*
X88328909Y-95017661D01*
X88273648Y-94689281D01*
X88211172Y-94293996D01*
X88146536Y-93865454D01*
X88084799Y-93437300D01*
X88031016Y-93043184D01*
X87990244Y-92716752D01*
X87967539Y-92491652D01*
X87965881Y-92466612D01*
X87972641Y-92395439D01*
X88022791Y-92352335D01*
X88146179Y-92333591D01*
X88372650Y-92335502D01*
X88732052Y-92354359D01*
X88824500Y-92359960D01*
X89118307Y-92376361D01*
X89191933Y-92380112D01*
X89191933Y-90740151D01*
X89060744Y-90680764D01*
X88645289Y-90388724D01*
X88246428Y-89967257D01*
X87892936Y-89455830D01*
X87613589Y-88893910D01*
X87485325Y-88520000D01*
X87422370Y-88174327D01*
X87385931Y-87724104D01*
X87376847Y-87232158D01*
X87395959Y-86761314D01*
X87444107Y-86374400D01*
X87455888Y-86318667D01*
X87625268Y-85803696D01*
X87887559Y-85262978D01*
X88204702Y-84766848D01*
X88461383Y-84460441D01*
X88971122Y-84045991D01*
X89552426Y-83755066D01*
X90174573Y-83591938D01*
X90806841Y-83560880D01*
X91418507Y-83666164D01*
X91978849Y-83912061D01*
X92055524Y-83960641D01*
X92197647Y-84057824D01*
X92321199Y-84155254D01*
X92441938Y-84273060D01*
X92575622Y-84431371D01*
X92738009Y-84650316D01*
X92944856Y-84950024D01*
X93211922Y-85350622D01*
X93554964Y-85872240D01*
X93570113Y-85895333D01*
X93879542Y-86348827D01*
X94159848Y-86724589D01*
X94392499Y-86999047D01*
X94552021Y-87144167D01*
X94929180Y-87307059D01*
X95309694Y-87319078D01*
X95671955Y-87196833D01*
X95994357Y-86956934D01*
X96255291Y-86615991D01*
X96433149Y-86190613D01*
X96506325Y-85697411D01*
X96507056Y-85641333D01*
X96454764Y-85168826D01*
X96309602Y-84762335D01*
X96089146Y-84448486D01*
X95810968Y-84253904D01*
X95557029Y-84202000D01*
X95229216Y-84254792D01*
X95029350Y-84416652D01*
X94951623Y-84692807D01*
X94950133Y-84748117D01*
X94996241Y-85025129D01*
X95139924Y-85165486D01*
X95389228Y-85176260D01*
X95428570Y-85168774D01*
X95638026Y-85172233D01*
X95729761Y-85271997D01*
X95695153Y-85434864D01*
X95543790Y-85612342D01*
X95237097Y-85780056D01*
X94913061Y-85799166D01*
X94607536Y-85681830D01*
X94356373Y-85440204D01*
X94217716Y-85162687D01*
X94159769Y-84823032D01*
X94170760Y-84429217D01*
X94243210Y-84056225D01*
X94353420Y-83802372D01*
X94612338Y-83550711D01*
X94979254Y-83380841D01*
X95411382Y-83297492D01*
X95865940Y-83305392D01*
X96300143Y-83409270D01*
X96589970Y-83555166D01*
X96906571Y-83858883D01*
X97159757Y-84290412D01*
X97344935Y-84818772D01*
X97457511Y-85412985D01*
X97492890Y-86042075D01*
X97446481Y-86675061D01*
X97313688Y-87280965D01*
X97192035Y-87615365D01*
X96963915Y-88013995D01*
X96638628Y-88414145D01*
X96265689Y-88763210D01*
X95894615Y-89008590D01*
X95868811Y-89021079D01*
X95388899Y-89166321D01*
X94846015Y-89201403D01*
X94305005Y-89127231D01*
X93925667Y-88993939D01*
X93663975Y-88856698D01*
X93425048Y-88697619D01*
X93181885Y-88492402D01*
X92907485Y-88216745D01*
X92574848Y-87846349D01*
X92317210Y-87546333D01*
X91959676Y-87131706D01*
X91678448Y-86824639D01*
X91445031Y-86599686D01*
X91230932Y-86431399D01*
X91007658Y-86294332D01*
X90793000Y-86185103D01*
X90285265Y-86018289D01*
X89765615Y-85985341D01*
X89282431Y-86087314D01*
X89142280Y-86149191D01*
X88780963Y-86420694D01*
X88530344Y-86791465D01*
X88387825Y-87234923D01*
X88350808Y-87724488D01*
X88416695Y-88233577D01*
X88582890Y-88735612D01*
X88846794Y-89204009D01*
X89205809Y-89612189D01*
X89503157Y-89841932D01*
X89879458Y-90086333D01*
X89586981Y-90443990D01*
X89414151Y-90646894D01*
X89298418Y-90738437D01*
X89191933Y-90740151D01*
X89191933Y-92380112D01*
X89554252Y-92398575D01*
X90105289Y-92425327D01*
X90744372Y-92455341D01*
X91444455Y-92487341D01*
X91477302Y-92488804D01*
X91477302Y-90467333D01*
X91064137Y-90395751D01*
X90727146Y-90201587D01*
X90483702Y-89915723D01*
X90351179Y-89569036D01*
X90346952Y-89192405D01*
X90488394Y-88816708D01*
X90520375Y-88766588D01*
X90818255Y-88456453D01*
X91177030Y-88288603D01*
X91564790Y-88263683D01*
X91949629Y-88382340D01*
X92299636Y-88645218D01*
X92374268Y-88729063D01*
X92545935Y-89054700D01*
X92578210Y-89410075D01*
X92488607Y-89761251D01*
X92294638Y-90074287D01*
X92013817Y-90315244D01*
X91663656Y-90450184D01*
X91477302Y-90467333D01*
X91477302Y-92488804D01*
X92178491Y-92520050D01*
X92698000Y-92542685D01*
X92858835Y-92549800D01*
X92858835Y-92160667D01*
X92755098Y-92128744D01*
X92706763Y-92018440D01*
X92713828Y-91807956D01*
X92776292Y-91475491D01*
X92858795Y-91135717D01*
X92950530Y-90822073D01*
X93072440Y-90466287D01*
X93210059Y-90103589D01*
X93348920Y-89769210D01*
X93474554Y-89498377D01*
X93572496Y-89326321D01*
X93619503Y-89283297D01*
X93728769Y-89324379D01*
X93788990Y-89358895D01*
X93834598Y-89422409D01*
X93827841Y-89544804D01*
X93761751Y-89755840D01*
X93629358Y-90085277D01*
X93605889Y-90140765D01*
X93443181Y-90563860D01*
X93289527Y-91031094D01*
X93174682Y-91450927D01*
X93162567Y-91504500D01*
X93082000Y-91842106D01*
X93011990Y-92043257D01*
X92938173Y-92138986D01*
X92858835Y-92160667D01*
X92858835Y-92549800D01*
X93416480Y-92574473D01*
X94099598Y-92606202D01*
X94724312Y-92636688D01*
X95267579Y-92664747D01*
X95706356Y-92689197D01*
X96017599Y-92708855D01*
X96160154Y-92720427D01*
X96616640Y-92768513D01*
X96568641Y-93573047D01*
X96545088Y-93922664D01*
X96521179Y-94202084D01*
X96500476Y-94372817D01*
X96491481Y-94406742D01*
X96402862Y-94423789D01*
X96168816Y-94456481D01*
X95812231Y-94501963D01*
X95356001Y-94557380D01*
X94823015Y-94619879D01*
X94347326Y-94674118D01*
X92232333Y-94912333D01*
X91639667Y-95300025D01*
X91047829Y-95732818D01*
X90573454Y-96174220D01*
X90221832Y-96612006D01*
X89998253Y-97033949D01*
X89908007Y-97427824D01*
X89956385Y-97781406D01*
X90148678Y-98082470D01*
X90363038Y-98250165D01*
X90550794Y-98350377D01*
X90762394Y-98430236D01*
X91016737Y-98491230D01*
X91332722Y-98534848D01*
X91729246Y-98562578D01*
X91853411Y-98565914D01*
X91853411Y-97833333D01*
X91792154Y-97764290D01*
X91699233Y-97597063D01*
X91603789Y-97391509D01*
X91534964Y-97207483D01*
X91520895Y-97150366D01*
X91592833Y-97111570D01*
X91789684Y-97055071D01*
X92069639Y-96992780D01*
X92084167Y-96989904D01*
X92601032Y-96869176D01*
X92970130Y-96765099D01*
X92970130Y-96377444D01*
X92965273Y-96376537D01*
X92865079Y-96292690D01*
X92782173Y-96071125D01*
X92733350Y-95842683D01*
X92681381Y-95520712D01*
X92674055Y-95330216D01*
X92717928Y-95237672D01*
X92819559Y-95209559D01*
X92857386Y-95208667D01*
X92950774Y-95247964D01*
X93023254Y-95386864D01*
X93089730Y-95656878D01*
X93103595Y-95729273D01*
X93156474Y-96072095D01*
X93155419Y-96277721D01*
X93095087Y-96371165D01*
X92970130Y-96377444D01*
X92970130Y-96765099D01*
X93214400Y-96696219D01*
X93866877Y-96489442D01*
X94501072Y-96267255D01*
X95059590Y-96048069D01*
X95174413Y-95998653D01*
X95513112Y-95855096D01*
X95739117Y-95777562D01*
X95891714Y-95757406D01*
X96010193Y-95785986D01*
X96050760Y-95805843D01*
X96179413Y-95909934D01*
X96197566Y-95993483D01*
X96084425Y-96083127D01*
X95838769Y-96221104D01*
X95486664Y-96396374D01*
X95054176Y-96597897D01*
X94567374Y-96814633D01*
X94052323Y-97035542D01*
X93535092Y-97249584D01*
X93041746Y-97445718D01*
X92598354Y-97612906D01*
X92230982Y-97740107D01*
X91965697Y-97816280D01*
X91853411Y-97833333D01*
X91853411Y-98565914D01*
X92225208Y-98575906D01*
X92839508Y-98576321D01*
X93591044Y-98565312D01*
X93599296Y-98565130D01*
X93599296Y-98172000D01*
X93422195Y-98149918D01*
X93347111Y-98115556D01*
X93289836Y-97959362D01*
X93339164Y-97789692D01*
X93429785Y-97713399D01*
X93554236Y-97679020D01*
X93581975Y-97683174D01*
X93620995Y-97768863D01*
X93695042Y-97939167D01*
X93752724Y-98102341D01*
X93714167Y-98163463D01*
X93599296Y-98172000D01*
X93599296Y-98565130D01*
X94195727Y-98551923D01*
X94936583Y-98535047D01*
X95524605Y-98524455D01*
X95976189Y-98520494D01*
X96307731Y-98523510D01*
X96535626Y-98533849D01*
X96676270Y-98551857D01*
X96746057Y-98577881D01*
X96761917Y-98606087D01*
X96747752Y-98719740D01*
X96709107Y-98967173D01*
X96651676Y-99315542D01*
X96581155Y-99732003D01*
X96503241Y-100183715D01*
X96423628Y-100637832D01*
X96348012Y-101061512D01*
X96282088Y-101421912D01*
X96231553Y-101686188D01*
X96209511Y-101791500D01*
X96123492Y-101939858D01*
X95934887Y-101980704D01*
X95934887Y-104981006D01*
X95964742Y-104996590D01*
X96200665Y-104986002D01*
X96248405Y-104978741D01*
X96609783Y-104920954D01*
X96552153Y-104382811D01*
X96494522Y-103844667D01*
X96764754Y-103844667D01*
X96764754Y-101694157D01*
X96689919Y-101642412D01*
X96677333Y-101514217D01*
X96717303Y-101349900D01*
X96850040Y-101304667D01*
X97169637Y-101232201D01*
X97512496Y-101038473D01*
X97837863Y-100758987D01*
X98104984Y-100429247D01*
X98273103Y-100084755D01*
X98280909Y-100058148D01*
X98346639Y-99775576D01*
X98367808Y-99520471D01*
X98336463Y-99259599D01*
X98244654Y-98959729D01*
X98084429Y-98587630D01*
X97847837Y-98110071D01*
X97786107Y-97990182D01*
X97364224Y-97121622D01*
X97022011Y-96306216D01*
X96768740Y-95568462D01*
X96613680Y-94932857D01*
X96601172Y-94858708D01*
X96664050Y-94797694D01*
X96767179Y-94759447D01*
X96918096Y-94762369D01*
X96970140Y-94813072D01*
X97004043Y-94935734D01*
X97070106Y-95177900D01*
X97156347Y-95495598D01*
X97193275Y-95632000D01*
X97318997Y-96015923D01*
X97513003Y-96505660D01*
X97758254Y-97060760D01*
X98037708Y-97640773D01*
X98048648Y-97662514D01*
X98290489Y-98146288D01*
X98465017Y-98510257D01*
X98583118Y-98784807D01*
X98655679Y-99000329D01*
X98693587Y-99187210D01*
X98707727Y-99375840D01*
X98709333Y-99506733D01*
X98639220Y-100130385D01*
X98429921Y-100659411D01*
X98082999Y-101091042D01*
X97640015Y-101401673D01*
X97349796Y-101538512D01*
X97070374Y-101642104D01*
X96952500Y-101672553D01*
X96764754Y-101694157D01*
X96764754Y-103844667D01*
X97325698Y-103844667D01*
X97475133Y-105008833D01*
X97533439Y-105454729D01*
X97588118Y-105857902D01*
X97633771Y-106179538D01*
X97664996Y-106380821D01*
X97669534Y-106405833D01*
X97714500Y-106638667D01*
X97026583Y-106638667D01*
X96709385Y-106645868D01*
X96469612Y-106665027D01*
X96346995Y-106692473D01*
X96338983Y-106702167D01*
X96379551Y-106810939D01*
X96478416Y-106993448D01*
X96494496Y-107020154D01*
X96827515Y-107723501D01*
X97020251Y-108491068D01*
X97071655Y-109290704D01*
X96980680Y-110090260D01*
X96746279Y-110857586D01*
X96628004Y-111116903D01*
X96329306Y-111594192D01*
X95920976Y-112081761D01*
X95451377Y-112528968D01*
X94968872Y-112885171D01*
X94899333Y-112927062D01*
X94256729Y-113210098D01*
X93537538Y-113370031D01*
X92781206Y-113407087D01*
X92027180Y-113321493D01*
X91314906Y-113113474D01*
X90877724Y-112904033D01*
X90444466Y-112598624D01*
X89999722Y-112187543D01*
X89590340Y-111721519D01*
X89263172Y-111251279D01*
X89142715Y-111025425D01*
X88888548Y-110314220D01*
X88758578Y-109561934D01*
X88753243Y-108807624D01*
X88872979Y-108090348D01*
X89103110Y-107478538D01*
X89326006Y-107038675D01*
X88720188Y-107098371D01*
X87905122Y-107221866D01*
X87150389Y-107420429D01*
X86475650Y-107684098D01*
X85900562Y-108002910D01*
X85444785Y-108366904D01*
X85127977Y-108766117D01*
X85030808Y-108967939D01*
X84930309Y-109412812D01*
X84920969Y-109929661D01*
X84998491Y-110450603D01*
X85152913Y-110896230D01*
X85410511Y-111314774D01*
X85770929Y-111754345D01*
X86185037Y-112161242D01*
X86603038Y-112481333D01*
X86829164Y-112641671D01*
X86982249Y-112779380D01*
X87024913Y-112849326D01*
X86975437Y-112974934D01*
X86854326Y-113158162D01*
X86828646Y-113191086D01*
X86632799Y-113435839D01*
X86632799Y-113840243D01*
X86813667Y-113901581D01*
X87223582Y-113269428D01*
X87402113Y-112987071D01*
X87534401Y-112764236D01*
X87601201Y-112634014D01*
X87604582Y-112614275D01*
X87520335Y-112565580D01*
X87330006Y-112461864D01*
X87112196Y-112345471D01*
X86689730Y-112070217D01*
X86261567Y-111704152D01*
X85874997Y-111294260D01*
X85577307Y-110887525D01*
X85494807Y-110738473D01*
X85359781Y-110394773D01*
X85298580Y-110028748D01*
X85289667Y-109757460D01*
X85325475Y-109316327D01*
X85446576Y-108957596D01*
X85673481Y-108653673D01*
X86026702Y-108376966D01*
X86519063Y-108103682D01*
X86822815Y-107969816D01*
X87185003Y-107834917D01*
X87569305Y-107709394D01*
X87939402Y-107603655D01*
X88258974Y-107528110D01*
X88491702Y-107493167D01*
X88599633Y-107507411D01*
X88595033Y-107597494D01*
X88553840Y-107800891D01*
X88504887Y-107997271D01*
X88423028Y-108461878D01*
X88387484Y-109019745D01*
X88398117Y-109601296D01*
X88454789Y-110136952D01*
X88509641Y-110402815D01*
X88767985Y-111103698D01*
X89158759Y-111781145D01*
X89653019Y-112399124D01*
X90221821Y-112921600D01*
X90836218Y-113312540D01*
X90854034Y-113321359D01*
X91285892Y-113499833D01*
X91787185Y-113655543D01*
X92291391Y-113771316D01*
X92731990Y-113829979D01*
X92839362Y-113833863D01*
X92998469Y-113848492D01*
X93100841Y-113916931D01*
X93183700Y-114079300D01*
X93253136Y-114279833D01*
X93370106Y-114604325D01*
X93500987Y-114920557D01*
X93557994Y-115041833D01*
X93717442Y-115359333D01*
X93440554Y-115358004D01*
X93290247Y-115351362D01*
X92993654Y-115333151D01*
X92573311Y-115304942D01*
X92051757Y-115268304D01*
X91451528Y-115224807D01*
X90795160Y-115176022D01*
X90412000Y-115147018D01*
X89565463Y-115082564D01*
X88872663Y-115030620D01*
X88318473Y-114991095D01*
X87887765Y-114963895D01*
X87565413Y-114948928D01*
X87336289Y-114946102D01*
X87185267Y-114955322D01*
X87097219Y-114976498D01*
X87057019Y-115009536D01*
X87049540Y-115054343D01*
X87059654Y-115110827D01*
X87063103Y-115126500D01*
X87084741Y-115260504D01*
X87124097Y-115537502D01*
X87177808Y-115932473D01*
X87242509Y-116420395D01*
X87314836Y-116976248D01*
X87376158Y-117454833D01*
X87648218Y-119592667D01*
X87865942Y-119589309D01*
X88000415Y-119575164D01*
X88030030Y-119571085D01*
X88030030Y-119163074D01*
X88007283Y-119162843D01*
X87986057Y-119071964D01*
X87948041Y-118842380D01*
X87897158Y-118503446D01*
X87837331Y-118084521D01*
X87772480Y-117614959D01*
X87706530Y-117124118D01*
X87643401Y-116641355D01*
X87587018Y-116196024D01*
X87541300Y-115817484D01*
X87510173Y-115535090D01*
X87497556Y-115378200D01*
X87498746Y-115356740D01*
X87584729Y-115354634D01*
X87824337Y-115364709D01*
X88202376Y-115385959D01*
X88703652Y-115417381D01*
X89312972Y-115457970D01*
X90015140Y-115506722D01*
X90794962Y-115562632D01*
X91637245Y-115624696D01*
X92247018Y-115670593D01*
X93123714Y-115737171D01*
X93948500Y-115799868D01*
X94706167Y-115857523D01*
X95381505Y-115908977D01*
X95959307Y-115953068D01*
X96424364Y-115988638D01*
X96761466Y-116014525D01*
X96955405Y-116029569D01*
X96997795Y-116033020D01*
X97005627Y-116113322D01*
X97007690Y-116327243D01*
X97003982Y-116639169D01*
X96997795Y-116902477D01*
X96973667Y-117768287D01*
X92508065Y-118483486D01*
X91660281Y-118618511D01*
X90863855Y-118743898D01*
X90134255Y-118857313D01*
X89486950Y-118956419D01*
X88937406Y-119038883D01*
X88501093Y-119102370D01*
X88193479Y-119144546D01*
X88030030Y-119163074D01*
X88030030Y-119571085D01*
X88280248Y-119536615D01*
X88683748Y-119476966D01*
X89189225Y-119399519D01*
X89774986Y-119307578D01*
X90419341Y-119204446D01*
X90814167Y-119140346D01*
X91470548Y-119034064D01*
X92070245Y-118938569D01*
X92593698Y-118856850D01*
X93021348Y-118791894D01*
X93333633Y-118746690D01*
X93510995Y-118724227D01*
X93544667Y-118723186D01*
X93509684Y-118808110D01*
X93419823Y-118995766D01*
X93340968Y-119153610D01*
X93123435Y-119746246D01*
X93065904Y-120339196D01*
X93114030Y-120706100D01*
X93160028Y-121025300D01*
X93124363Y-121295336D01*
X93081233Y-121425767D01*
X92959513Y-121751667D01*
X93006823Y-121404892D01*
X93054133Y-121058118D01*
X92473900Y-121003327D01*
X92061912Y-120967281D01*
X91787909Y-120953759D01*
X91621688Y-120965579D01*
X91533052Y-121005559D01*
X91491801Y-121076520D01*
X91486363Y-121095500D01*
X91456292Y-121146370D01*
X91438648Y-121033703D01*
X91437822Y-121016539D01*
X91428777Y-120910360D01*
X91394769Y-120832507D01*
X91309425Y-120772678D01*
X91146375Y-120720570D01*
X90879247Y-120665880D01*
X90481671Y-120598305D01*
X90285000Y-120566142D01*
X89841854Y-120490025D01*
X89383816Y-120405149D01*
X88986722Y-120325764D01*
X88860866Y-120298501D01*
X88572489Y-120238350D01*
X88358577Y-120202222D01*
X88262885Y-120197433D01*
X88261817Y-120198357D01*
X88247124Y-120286871D01*
X88216633Y-120521622D01*
X88172979Y-120880516D01*
X88118797Y-121341462D01*
X88056722Y-121882370D01*
X87989391Y-122481146D01*
X87987991Y-122493719D01*
X87735747Y-124759772D01*
X90761783Y-124755150D01*
X91589367Y-124754974D01*
X92264607Y-124757637D01*
X92804480Y-124763758D01*
X93225960Y-124773958D01*
X93546023Y-124788854D01*
X93781645Y-124809069D01*
X93949801Y-124835219D01*
X94067466Y-124867927D01*
X94089576Y-124876611D01*
X94319490Y-125011306D01*
X94397724Y-125164054D01*
X94321340Y-125339872D01*
X94087401Y-125543778D01*
X93692969Y-125780790D01*
X93502333Y-125879605D01*
X93248277Y-125993015D01*
X92912213Y-126124000D01*
X92537852Y-126257805D01*
X92168903Y-126379675D01*
X91849075Y-126474855D01*
X91622077Y-126528591D01*
X91559808Y-126535333D01*
X91456330Y-126463226D01*
X91393637Y-126325281D01*
X91256289Y-126057490D01*
X91004364Y-125790231D01*
X90687102Y-125566909D01*
X90389588Y-125440244D01*
X89900442Y-125379544D01*
X89450167Y-125463253D01*
X89056253Y-125667802D01*
X88736190Y-125969625D01*
X88507468Y-126345151D01*
X88387578Y-126770812D01*
X88394010Y-127223041D01*
X88544254Y-127678267D01*
X88624398Y-127818889D01*
X88951191Y-128195124D01*
X89349038Y-128438827D01*
X89787336Y-128552076D01*
X89999910Y-128544901D01*
X89999910Y-128159272D01*
X89677663Y-128156768D01*
X89455856Y-128077135D01*
X89204354Y-127894707D01*
X88975637Y-127654745D01*
X88833336Y-127428531D01*
X88753571Y-127080135D01*
X88781196Y-126691111D01*
X88909101Y-126345589D01*
X88927310Y-126316399D01*
X89227017Y-125998928D01*
X89613917Y-125826163D01*
X90052818Y-125796807D01*
X90484544Y-125893191D01*
X90809786Y-126117689D01*
X91045091Y-126482067D01*
X91057912Y-126511447D01*
X91157294Y-126834561D01*
X91146406Y-127131660D01*
X91021578Y-127473666D01*
X91006465Y-127505285D01*
X90765375Y-127852135D01*
X90434419Y-128067894D01*
X89999910Y-128159272D01*
X89999910Y-128544901D01*
X90235478Y-128536948D01*
X90662859Y-128395521D01*
X91038876Y-128129870D01*
X91332922Y-127742074D01*
X91387762Y-127631353D01*
X91499531Y-127426962D01*
X91601972Y-127309045D01*
X91631359Y-127297572D01*
X91874006Y-127312926D01*
X92228665Y-127352812D01*
X92641161Y-127409261D01*
X93057321Y-127474305D01*
X93422969Y-127539975D01*
X93683933Y-127598304D01*
X93693023Y-127600818D01*
X94137713Y-127725507D01*
X93835752Y-127990632D01*
X93480631Y-128407734D01*
X93228008Y-128922289D01*
X93091467Y-129487641D01*
X93084589Y-130057132D01*
X93144113Y-130366500D01*
X93209226Y-130599333D01*
X91874113Y-130588128D01*
X91269774Y-130579919D01*
X90586827Y-130565627D01*
X89905452Y-130547197D01*
X89305828Y-130526574D01*
X89257408Y-130524628D01*
X87975816Y-130472333D01*
X87122947Y-129442571D01*
X86502770Y-128713295D01*
X85961521Y-128121491D01*
X85489625Y-127660265D01*
X85077511Y-127322722D01*
X84715604Y-127101969D01*
X84394332Y-126991111D01*
X84104121Y-126983254D01*
X83835399Y-127071504D01*
X83832522Y-127072986D01*
X83604733Y-127255060D01*
X83430846Y-127543601D01*
X83309677Y-127947888D01*
X83240046Y-128477201D01*
X83220771Y-129140821D01*
X83250669Y-129948028D01*
X83328558Y-130908101D01*
X83335335Y-130976826D01*
X83413363Y-131881660D01*
X83450438Y-132639518D01*
X83445016Y-133268105D01*
X83395551Y-133785130D01*
X83300500Y-134208298D01*
X83158319Y-134555316D01*
X83001902Y-134800173D01*
X82829639Y-135003749D01*
X82639210Y-135174248D01*
X82413551Y-135315523D01*
X82135598Y-135431429D01*
X81788286Y-135525819D01*
X81354551Y-135602546D01*
X80817327Y-135665465D01*
X80159551Y-135718429D01*
X79364157Y-135765291D01*
X78558667Y-135803579D01*
X77713661Y-135843185D01*
X77018245Y-135882035D01*
X76452711Y-135922981D01*
X75997356Y-135968881D01*
X75632472Y-136022587D01*
X75338355Y-136086956D01*
X75095299Y-136164843D01*
X74883597Y-136259101D01*
X74699705Y-136362660D01*
X74423456Y-136623812D01*
X74270107Y-136974149D01*
X74249696Y-137376616D01*
X74334943Y-137709013D01*
X74525552Y-138047366D01*
X74861666Y-138471908D01*
X75343133Y-138982472D01*
X75969799Y-139578888D01*
X76314327Y-139888708D01*
X77047729Y-140554715D01*
X77647483Y-141139877D01*
X78120846Y-141657259D01*
X78475076Y-142119928D01*
X78717430Y-142540949D01*
X78855166Y-142933390D01*
X78895541Y-143310316D01*
X78845812Y-143684794D01*
X78713238Y-144069890D01*
X78678973Y-144146000D01*
X78539171Y-144421216D01*
X78369528Y-144701339D01*
X78155247Y-145004937D01*
X77881526Y-145350580D01*
X77533569Y-145756837D01*
X77096574Y-146242276D01*
X76555744Y-146825466D01*
X76473844Y-146912832D01*
X75968903Y-147455353D01*
X75566573Y-147899488D01*
X75249749Y-148266606D01*
X75001324Y-148578076D01*
X74804192Y-148855269D01*
X74641247Y-149119554D01*
X74506253Y-149370794D01*
X74354439Y-149813782D01*
X74347705Y-150233052D01*
X74480392Y-150601327D01*
X74746841Y-150891334D01*
X74833573Y-150948340D01*
X75028287Y-151051407D01*
X75243429Y-151136711D01*
X75497835Y-151206502D01*
X75810341Y-151263025D01*
X76199783Y-151308528D01*
X76684999Y-151345258D01*
X77284824Y-151375462D01*
X78018094Y-151401388D01*
X78812667Y-151423043D01*
X79580559Y-151442873D01*
X80199719Y-151461279D01*
X80690720Y-151479841D01*
X81074136Y-151500136D01*
X81370541Y-151523744D01*
X81600509Y-151552243D01*
X81784614Y-151587214D01*
X81943430Y-151630234D01*
X82070439Y-151673063D01*
X82607447Y-151939183D01*
X83008079Y-152304084D01*
X83275575Y-152770725D01*
X83277786Y-152776427D01*
X83362413Y-153123738D01*
X83409122Y-153613263D01*
X83418218Y-154222252D01*
X83390000Y-154927955D01*
X83324772Y-155707621D01*
X83228359Y-156499252D01*
X83114031Y-157430146D01*
X83054610Y-158210357D01*
X83051955Y-158850009D01*
X83107921Y-159359228D01*
X83224367Y-159748140D01*
X83403150Y-160026869D01*
X83646128Y-160205540D01*
X83923692Y-160289566D01*
X84136161Y-160299287D01*
X84368420Y-160247953D01*
X84672780Y-160121932D01*
X84797659Y-160061778D01*
X84979027Y-159963990D01*
X85169448Y-159840682D01*
X85385066Y-159677820D01*
X85642026Y-159461365D01*
X85956472Y-159177282D01*
X86344546Y-158811535D01*
X86822392Y-158350088D01*
X87273327Y-157909290D01*
X87909217Y-157290832D01*
X88443834Y-156784427D01*
X88891945Y-156378804D01*
X89268315Y-156062691D01*
X89587712Y-155824817D01*
X89864900Y-155653912D01*
X90114646Y-155538703D01*
X90351716Y-155467920D01*
X90508150Y-155440101D01*
X90750667Y-155425479D01*
X90750667Y-150196006D01*
X90224654Y-150193085D01*
X89828638Y-150184242D01*
X89523286Y-150164606D01*
X89269264Y-150129309D01*
X89027240Y-150073480D01*
X88757880Y-149992250D01*
X88549333Y-149923465D01*
X87564819Y-149510362D01*
X86653865Y-148961702D01*
X85830564Y-148293943D01*
X85109008Y-147523544D01*
X84503289Y-146666963D01*
X84027498Y-145740658D01*
X83695728Y-144761088D01*
X83563512Y-144100372D01*
X83520442Y-143761925D01*
X83489165Y-143437375D01*
X83479658Y-143278167D01*
X83469333Y-142960667D01*
X84757051Y-142960667D01*
X84757051Y-142087463D01*
X84637300Y-142086418D01*
X84628128Y-142084231D01*
X84438140Y-142047167D01*
X84159170Y-142003086D01*
X83992267Y-141979999D01*
X83732659Y-141938922D01*
X83605463Y-141889671D01*
X83574267Y-141810951D01*
X83586052Y-141742432D01*
X83627731Y-141544904D01*
X83675941Y-141276372D01*
X83687773Y-141203833D01*
X83734579Y-140984633D01*
X83784944Y-140857142D01*
X83802381Y-140844000D01*
X83958670Y-140874272D01*
X84197760Y-140951430D01*
X84468710Y-141054992D01*
X84720578Y-141164472D01*
X84902423Y-141259386D01*
X84963133Y-141310754D01*
X84968121Y-141454848D01*
X84930714Y-141685758D01*
X84908948Y-141774289D01*
X84836353Y-141995835D01*
X84757051Y-142087463D01*
X84757051Y-142960667D01*
X84799804Y-142960667D01*
X84844982Y-143619809D01*
X84988075Y-144505541D01*
X85243970Y-145241249D01*
X85243970Y-140484208D01*
X85147075Y-140446807D01*
X84935251Y-140368308D01*
X84652838Y-140265131D01*
X84630013Y-140256843D01*
X84351837Y-140151039D01*
X84149360Y-140064795D01*
X84062744Y-140015344D01*
X84062000Y-140013149D01*
X84100357Y-139925686D01*
X84200542Y-139734096D01*
X84329829Y-139499640D01*
X84471641Y-139249658D01*
X84578452Y-139065164D01*
X84624629Y-138989923D01*
X84704769Y-139015817D01*
X84888149Y-139127091D01*
X85145134Y-139304155D01*
X85446088Y-139527420D01*
X85496452Y-139566206D01*
X85703236Y-139726296D01*
X85496575Y-140115856D01*
X85372657Y-140330749D01*
X85277229Y-140462656D01*
X85243970Y-140484208D01*
X85243970Y-145241249D01*
X85283902Y-145356056D01*
X85716914Y-146154956D01*
X86198339Y-146789355D01*
X86198339Y-139080151D01*
X85084851Y-138346333D01*
X85546513Y-137882167D01*
X85780239Y-137651332D01*
X85927142Y-137526332D01*
X86018192Y-137491352D01*
X86084361Y-137530578D01*
X86126901Y-137585834D01*
X86251138Y-137752905D01*
X86427308Y-137980341D01*
X86508481Y-138082809D01*
X86660306Y-138283356D01*
X86755251Y-138428845D01*
X86771333Y-138468367D01*
X86715652Y-138555656D01*
X86574436Y-138712780D01*
X86484836Y-138802467D01*
X86198339Y-139080151D01*
X86198339Y-146789355D01*
X86271563Y-146885847D01*
X86932299Y-147532330D01*
X87683573Y-148078009D01*
X88509835Y-148506489D01*
X89395537Y-148801371D01*
X89844553Y-148891815D01*
X90835611Y-148967146D01*
X91802790Y-148883013D01*
X92730684Y-148649071D01*
X93603886Y-148274976D01*
X94406989Y-147770385D01*
X95124587Y-147144954D01*
X95741273Y-146408339D01*
X96241640Y-145570195D01*
X96286865Y-145456487D01*
X96286865Y-143690297D01*
X96232833Y-143675313D01*
X95877026Y-143533294D01*
X95651791Y-143372235D01*
X95576667Y-143212493D01*
X95603260Y-143075968D01*
X95639277Y-143045333D01*
X95749217Y-143075102D01*
X95954541Y-143150323D01*
X96062293Y-143193500D01*
X96299559Y-143313619D01*
X96406379Y-143438389D01*
X96423016Y-143537872D01*
X96397355Y-143677996D01*
X96286865Y-143690297D01*
X96286865Y-145456487D01*
X96606037Y-144654000D01*
X96740142Y-144043946D01*
X96807718Y-143340071D01*
X96808766Y-142604274D01*
X96743285Y-141898450D01*
X96611275Y-141284497D01*
X96606037Y-141267333D01*
X96233664Y-140337051D01*
X95723530Y-139490613D01*
X95090526Y-138741689D01*
X94349546Y-138103952D01*
X93515484Y-137591071D01*
X92603231Y-137216717D01*
X92027988Y-137065011D01*
X91315642Y-136914545D01*
X90959869Y-137318854D01*
X90775585Y-137550025D01*
X90558947Y-137854717D01*
X90331251Y-138198611D01*
X90113792Y-138547391D01*
X89927867Y-138866743D01*
X89794772Y-139122348D01*
X89735803Y-139279891D01*
X89734667Y-139293141D01*
X89812367Y-139375980D01*
X90023552Y-139404667D01*
X90359495Y-139430542D01*
X90805071Y-139501193D01*
X91309839Y-139606157D01*
X91823363Y-139734975D01*
X92284567Y-139873630D01*
X93085177Y-140203935D01*
X93183618Y-140263079D01*
X93183618Y-139791125D01*
X93099659Y-139778538D01*
X92980282Y-139738825D01*
X92852749Y-139642256D01*
X92761464Y-139442174D01*
X92708221Y-139219527D01*
X92618969Y-138713694D01*
X92562394Y-138278069D01*
X92539993Y-137936088D01*
X92553263Y-137711183D01*
X92603704Y-137626789D01*
X92606409Y-137626667D01*
X92800533Y-137663838D01*
X92908874Y-137795448D01*
X92950869Y-138051638D01*
X92953470Y-138164892D01*
X92973168Y-138484407D01*
X93022855Y-138874269D01*
X93079255Y-139187160D01*
X93137744Y-139477716D01*
X93175278Y-139692969D01*
X93184397Y-139789742D01*
X93183618Y-139791125D01*
X93183618Y-140263079D01*
X93779812Y-140621282D01*
X94351953Y-141112644D01*
X94785079Y-141664992D01*
X94952463Y-141977654D01*
X95135693Y-142570111D01*
X95194804Y-143236862D01*
X95134329Y-143942096D01*
X94958801Y-144650002D01*
X94672750Y-145324772D01*
X94488964Y-145639673D01*
X94262849Y-145947438D01*
X93997636Y-146245057D01*
X93726339Y-146501732D01*
X93481972Y-146686664D01*
X93297548Y-146769055D01*
X93276621Y-146770667D01*
X93143386Y-146713418D01*
X92964220Y-146570906D01*
X92912749Y-146519884D01*
X92672483Y-146269101D01*
X92989802Y-145917867D01*
X93394032Y-145360875D01*
X93636031Y-144766734D01*
X93713173Y-144170113D01*
X93703618Y-143859766D01*
X93659466Y-143650734D01*
X93559297Y-143475512D01*
X93451229Y-143344613D01*
X93217718Y-143120965D01*
X93038320Y-143054043D01*
X92900255Y-143145014D01*
X92790742Y-143395045D01*
X92787720Y-143405167D01*
X92594177Y-143911491D01*
X92308992Y-144470116D01*
X91967105Y-145020868D01*
X91603454Y-145503573D01*
X91502911Y-145617883D01*
X90968656Y-146110174D01*
X90413778Y-146454495D01*
X89853628Y-146650637D01*
X89303558Y-146698392D01*
X88778921Y-146597551D01*
X88295068Y-146347906D01*
X87867351Y-145949248D01*
X87663892Y-145670000D01*
X87380121Y-145074164D01*
X87213974Y-144371567D01*
X87165163Y-143576983D01*
X87233397Y-142705185D01*
X87418388Y-141770944D01*
X87719848Y-140789034D01*
X87761621Y-140674667D01*
X88331683Y-139346150D01*
X88755962Y-138564149D01*
X88755962Y-134220851D01*
X88742579Y-134132631D01*
X88720923Y-133903886D01*
X88693338Y-133563090D01*
X88662168Y-133138716D01*
X88639006Y-132800166D01*
X88605151Y-132312574D01*
X88571577Y-131868066D01*
X88541109Y-131501321D01*
X88516572Y-131247021D01*
X88505416Y-131160076D01*
X88464597Y-130916486D01*
X90941132Y-130955296D01*
X91662638Y-130965828D01*
X92235774Y-130971698D01*
X92681459Y-130972048D01*
X93020614Y-130966020D01*
X93274158Y-130952756D01*
X93463011Y-130931400D01*
X93608093Y-130901094D01*
X93730324Y-130860980D01*
X93785279Y-130838727D01*
X94384231Y-130520738D01*
X94847729Y-130135062D01*
X95167001Y-129692488D01*
X95333273Y-129203809D01*
X95356196Y-128906653D01*
X95302738Y-128444983D01*
X95148710Y-128060980D01*
X94882243Y-127745940D01*
X94491465Y-127491158D01*
X93964505Y-127287930D01*
X93289492Y-127127552D01*
X92825000Y-127050668D01*
X91809000Y-126902676D01*
X92416312Y-126717361D01*
X92794741Y-126585280D01*
X93234747Y-126407163D01*
X93649471Y-126218468D01*
X93702118Y-126192451D01*
X94213389Y-125899707D01*
X94569171Y-125613056D01*
X94766609Y-125336867D01*
X94802845Y-125075505D01*
X94675024Y-124833338D01*
X94624167Y-124782672D01*
X94504901Y-124676349D01*
X94392102Y-124590455D01*
X94267165Y-124522932D01*
X94111485Y-124471725D01*
X93906458Y-124434776D01*
X93633478Y-124410028D01*
X93273940Y-124395425D01*
X92809241Y-124388911D01*
X92220775Y-124388428D01*
X91489938Y-124391919D01*
X91110500Y-124394234D01*
X88210667Y-124412134D01*
X88210667Y-124153141D01*
X88220052Y-123986801D01*
X88246098Y-123684874D01*
X88285641Y-123279940D01*
X88335517Y-122804581D01*
X88385061Y-122357241D01*
X88442441Y-121861128D01*
X88495432Y-121420682D01*
X88540422Y-121064566D01*
X88573796Y-120821444D01*
X88591242Y-120721873D01*
X88655976Y-120670981D01*
X88820152Y-120680390D01*
X89030680Y-120727829D01*
X89438333Y-120832246D01*
X89413383Y-121249623D01*
X89389488Y-121547719D01*
X89358443Y-121810860D01*
X89345572Y-121888831D01*
X89358950Y-122061763D01*
X89492593Y-122165954D01*
X89759837Y-122211029D01*
X89759837Y-121741136D01*
X89748035Y-121624667D01*
X89761341Y-121504471D01*
X89790740Y-121518833D01*
X89801923Y-121692176D01*
X89790740Y-121730500D01*
X89759837Y-121741136D01*
X89759837Y-122211029D01*
X89764594Y-122211832D01*
X89913659Y-122216177D01*
X90051508Y-122199049D01*
X90128061Y-122116387D01*
X90174310Y-121924075D01*
X90188825Y-121824516D01*
X90222385Y-121526302D01*
X90241200Y-121255544D01*
X90242667Y-121188516D01*
X90252151Y-121038223D01*
X90311551Y-120977073D01*
X90467286Y-120980806D01*
X90602500Y-121000448D01*
X90830658Y-121040485D01*
X90975655Y-121075475D01*
X90996243Y-121084747D01*
X91000429Y-121176386D01*
X90979073Y-121389112D01*
X90936782Y-121677381D01*
X90935474Y-121685296D01*
X90896222Y-121979676D01*
X90883911Y-122204827D01*
X90901145Y-122312546D01*
X90901565Y-122312951D01*
X91017215Y-122360812D01*
X91232143Y-122411869D01*
X91278909Y-122420151D01*
X91278909Y-122011279D01*
X91265351Y-121928056D01*
X91280918Y-121818242D01*
X91309820Y-121816931D01*
X91330031Y-121930248D01*
X91316504Y-121979208D01*
X91278909Y-122011279D01*
X91278909Y-122420151D01*
X91311702Y-122425960D01*
X91375056Y-122436245D01*
X91375056Y-121636416D01*
X91360398Y-121523959D01*
X91359839Y-121497667D01*
X91368991Y-121353071D01*
X91395495Y-121340340D01*
X91398869Y-121347889D01*
X91415618Y-121515968D01*
X91402007Y-121601889D01*
X91375056Y-121636416D01*
X91375056Y-122436245D01*
X91661071Y-122482682D01*
X91721620Y-121998068D01*
X91760613Y-121717612D01*
X91797729Y-121502179D01*
X91817886Y-121420374D01*
X91908523Y-121376988D01*
X92095475Y-121358078D01*
X92316023Y-121361877D01*
X92507443Y-121386618D01*
X92607014Y-121430536D01*
X92610359Y-121442692D01*
X92592298Y-121547901D01*
X92547940Y-121769667D01*
X92489606Y-122047191D01*
X92432527Y-122327692D01*
X92396728Y-122531877D01*
X92389926Y-122614814D01*
X92476517Y-122638053D01*
X92671964Y-122674651D01*
X92758757Y-122688997D01*
X92918280Y-122714315D01*
X93027551Y-122711458D01*
X93105015Y-122653740D01*
X93169120Y-122514474D01*
X93238313Y-122266976D01*
X93331041Y-121884557D01*
X93339745Y-121848508D01*
X93390013Y-121696345D01*
X93477512Y-121638511D01*
X93658185Y-121648746D01*
X93738895Y-121661160D01*
X94098875Y-121752074D01*
X94544858Y-121913529D01*
X95022106Y-122121907D01*
X95475881Y-122353588D01*
X95803524Y-122552053D01*
X96344806Y-122997988D01*
X96727230Y-123493654D01*
X96949321Y-124026596D01*
X97009603Y-124584358D01*
X96906602Y-125154485D01*
X96638842Y-125724521D01*
X96240708Y-126243614D01*
X95900778Y-126612394D01*
X96193698Y-126869581D01*
X96526202Y-127268154D01*
X96753954Y-127766144D01*
X96870567Y-128325132D01*
X96869650Y-128906700D01*
X96744814Y-129472426D01*
X96661171Y-129680446D01*
X96480617Y-129998703D01*
X96232242Y-130346694D01*
X96008677Y-130606761D01*
X95799691Y-130826870D01*
X95646301Y-130994693D01*
X95577812Y-131078051D01*
X95576667Y-131081149D01*
X95653455Y-131096390D01*
X95852304Y-131108925D01*
X96063500Y-131114751D01*
X96431721Y-131129948D01*
X96813537Y-131160098D01*
X96972482Y-131178251D01*
X97394630Y-131234333D01*
X97538933Y-132163660D01*
X97595377Y-132537085D01*
X97638467Y-132841507D01*
X97663548Y-133042671D01*
X97667118Y-133107018D01*
X97580585Y-133121922D01*
X97345209Y-133154943D01*
X96979890Y-133203719D01*
X96503531Y-133265885D01*
X95935032Y-133339081D01*
X95293294Y-133420943D01*
X94597219Y-133509109D01*
X93865708Y-133601216D01*
X93117662Y-133694903D01*
X92371982Y-133787805D01*
X91647570Y-133877562D01*
X90963326Y-133961810D01*
X90338152Y-134038186D01*
X89790949Y-134104329D01*
X89340618Y-134157876D01*
X89006061Y-134196464D01*
X88806178Y-134217731D01*
X88755962Y-134220851D01*
X88755962Y-138564149D01*
X89045283Y-138030893D01*
X89878969Y-136770217D01*
X90273750Y-136248580D01*
X90793000Y-135590160D01*
X91428000Y-135643793D01*
X92511719Y-135817403D01*
X93163539Y-136024221D01*
X93163539Y-135568840D01*
X93072075Y-135561392D01*
X92913418Y-135515789D01*
X92864459Y-135510000D01*
X92842685Y-135437184D01*
X92880516Y-135238010D01*
X92969995Y-134941393D01*
X93103164Y-134576248D01*
X93161534Y-134430500D01*
X93259956Y-134216329D01*
X93339916Y-134086876D01*
X93363360Y-134069511D01*
X93480414Y-134048807D01*
X93603055Y-134018639D01*
X93688720Y-134003075D01*
X93723721Y-134033688D01*
X93703296Y-134138421D01*
X93622685Y-134345214D01*
X93498255Y-134633629D01*
X93364769Y-134956830D01*
X93263418Y-135235395D01*
X93210843Y-135422362D01*
X93207034Y-135455559D01*
X93163539Y-135568840D01*
X93163539Y-136024221D01*
X93541182Y-136144046D01*
X94502507Y-136612748D01*
X95381809Y-137212535D01*
X96165203Y-137932431D01*
X96838806Y-138761463D01*
X97388733Y-139688654D01*
X97791692Y-140673978D01*
X97981226Y-141438943D01*
X98091115Y-142292252D01*
X98117959Y-143171049D01*
X98058359Y-144012482D01*
X97993599Y-144406892D01*
X97700420Y-145439116D01*
X97257867Y-146411475D01*
X96679858Y-147308935D01*
X95980310Y-148116463D01*
X95173140Y-148819027D01*
X94272266Y-149401593D01*
X93291604Y-149849128D01*
X92807998Y-150008284D01*
X92529392Y-150082655D01*
X92264954Y-150135032D01*
X91975900Y-150168954D01*
X91623443Y-150187959D01*
X91168798Y-150195587D01*
X90750667Y-150196006D01*
X90750667Y-155425479D01*
X90816992Y-155421480D01*
X91124058Y-155458175D01*
X91444152Y-155559636D01*
X91792077Y-155735311D01*
X92182636Y-155994649D01*
X92630633Y-156347099D01*
X93150871Y-156802110D01*
X93758154Y-157369131D01*
X94202303Y-157798069D01*
X94797475Y-158373113D01*
X95292408Y-158837106D01*
X95703380Y-159201869D01*
X96046669Y-159479225D01*
X96338552Y-159680994D01*
X96595308Y-159818999D01*
X96833213Y-159905062D01*
X97068547Y-159951002D01*
X97181956Y-159962029D01*
X97466743Y-159973969D01*
X97649785Y-159944724D01*
X97797335Y-159854335D01*
X97919021Y-159739954D01*
X98042939Y-159603104D01*
X98146152Y-159451818D01*
X98230084Y-159270757D01*
X98296158Y-159044580D01*
X98345797Y-158757949D01*
X98380426Y-158395524D01*
X98401469Y-157941965D01*
X98410347Y-157381933D01*
X98408486Y-156700087D01*
X98397309Y-155881089D01*
X98378240Y-154909599D01*
X98376182Y-154814000D01*
X98368627Y-154303726D01*
X98368325Y-153841728D01*
X98374778Y-153458783D01*
X98387491Y-153185667D01*
X98404511Y-153057167D01*
X98466744Y-152866667D01*
X96746539Y-152866195D01*
X96178866Y-152861474D01*
X95658825Y-152848538D01*
X95216794Y-152828750D01*
X94883153Y-152803470D01*
X94688281Y-152774062D01*
X94687667Y-152773896D01*
X94126016Y-152539430D01*
X93617210Y-152170936D01*
X93195157Y-151701610D01*
X92893762Y-151164650D01*
X92815271Y-150940730D01*
X92738332Y-150665744D01*
X92715182Y-150512419D01*
X92752534Y-150439761D01*
X92857099Y-150406774D01*
X92904087Y-150398216D01*
X93022087Y-150414681D01*
X93097982Y-150541517D01*
X93136169Y-150689252D01*
X93330624Y-151215728D01*
X93665036Y-151695536D01*
X94110432Y-152093699D01*
X94476000Y-152306646D01*
X94857000Y-152485667D01*
X115854333Y-152485667D01*
X116242902Y-152305943D01*
X116766038Y-151977125D01*
X117179647Y-151539598D01*
X117471043Y-151020734D01*
X117627537Y-150447905D01*
X117636443Y-149848483D01*
X117559428Y-149465594D01*
X117336369Y-148968360D01*
X116986314Y-148510355D01*
X116551339Y-148140239D01*
X116280893Y-147986954D01*
X115854333Y-147788321D01*
X96826013Y-147786667D01*
X96952469Y-147596167D01*
X97078926Y-147405667D01*
X98188670Y-147394373D01*
X98188670Y-139050495D01*
X97748246Y-138957928D01*
X97391524Y-138757219D01*
X97122053Y-138482280D01*
X96898972Y-138208571D01*
X96670935Y-137941302D01*
X96564226Y-137822088D01*
X96385900Y-137568284D01*
X96236368Y-137254512D01*
X96199890Y-137144755D01*
X96133762Y-136761331D01*
X96109347Y-136268403D01*
X96124068Y-135719906D01*
X96175346Y-135169772D01*
X96260605Y-134671937D01*
X96330636Y-134409333D01*
X96446623Y-134060658D01*
X96538042Y-133839625D01*
X96628325Y-133711490D01*
X96740907Y-133641509D01*
X96876025Y-133600691D01*
X97115354Y-133540623D01*
X96936894Y-133890434D01*
X96707563Y-134477921D01*
X96555257Y-135159322D01*
X96485334Y-135877585D01*
X96503154Y-136575660D01*
X96614076Y-137196496D01*
X96623325Y-137228416D01*
X96844116Y-137729364D01*
X97171643Y-138150826D01*
X97576294Y-138462931D01*
X98015893Y-138633227D01*
X98629664Y-138688390D01*
X99184298Y-138588575D01*
X99672618Y-138339968D01*
X100087443Y-137948755D01*
X100421594Y-137421124D01*
X100667892Y-136763261D01*
X100780503Y-136250833D01*
X100804981Y-136043670D01*
X100769914Y-135953420D01*
X100654044Y-135932047D01*
X100639337Y-135931863D01*
X100459544Y-135913884D01*
X100176559Y-135868216D01*
X99858410Y-135806128D01*
X99293555Y-135639298D01*
X98857310Y-135396432D01*
X98538229Y-135061698D01*
X98324871Y-134619259D01*
X98205793Y-134053283D01*
X98170246Y-133470114D01*
X98157777Y-133053495D01*
X98132055Y-132787837D01*
X98090563Y-132655105D01*
X98053167Y-132631559D01*
X97972563Y-132559322D01*
X97947333Y-132427626D01*
X98029750Y-132252123D01*
X98273096Y-132107778D01*
X98671520Y-131996477D01*
X99219166Y-131920106D01*
X99609432Y-131892219D01*
X100467197Y-131848033D01*
X100653559Y-132345516D01*
X100824471Y-132822041D01*
X100948499Y-133231185D01*
X101032910Y-133618149D01*
X101084973Y-134028138D01*
X101111953Y-134506353D01*
X101121119Y-135097997D01*
X101121472Y-135256000D01*
X101119373Y-135796321D01*
X101109973Y-136202951D01*
X101089768Y-136511490D01*
X101055250Y-136757537D01*
X101002914Y-136976692D01*
X100929682Y-137203333D01*
X100629424Y-137860336D01*
X100238947Y-138374755D01*
X99759101Y-138745876D01*
X99190732Y-138972984D01*
X98743676Y-139045650D01*
X98188670Y-139050495D01*
X98188670Y-147394373D01*
X101238632Y-147363333D01*
X105398338Y-147321000D01*
X104710218Y-146728333D01*
X104017598Y-146093247D01*
X103440582Y-145483263D01*
X102986782Y-144908870D01*
X102663813Y-144380555D01*
X102479287Y-143908806D01*
X102436321Y-143595667D01*
X102468536Y-143273689D01*
X102571900Y-142942199D01*
X102756488Y-142587962D01*
X103032376Y-142197747D01*
X103409640Y-141758319D01*
X103898356Y-141256447D01*
X104508601Y-140678897D01*
X104986403Y-140246642D01*
X105446681Y-139834284D01*
X105796288Y-139515055D01*
X106051921Y-139270492D01*
X106230274Y-139082136D01*
X106348044Y-138931526D01*
X106421924Y-138800201D01*
X106468611Y-138669702D01*
X106490715Y-138583275D01*
X106586052Y-138093644D01*
X106667503Y-137520682D01*
X106725348Y-136945264D01*
X106749867Y-136448261D01*
X106750053Y-136425355D01*
X106752667Y-135943709D01*
X106392833Y-135891388D01*
X106150363Y-135871276D01*
X105796631Y-135860489D01*
X105389517Y-135860274D01*
X105166385Y-135865034D01*
X104299771Y-135891000D01*
X104258198Y-136949333D01*
X104151889Y-138241624D01*
X103939324Y-139402830D01*
X103619988Y-140434129D01*
X103193370Y-141336696D01*
X102658953Y-142111707D01*
X102016225Y-142760336D01*
X101572502Y-143093277D01*
X100761482Y-143544016D01*
X99918192Y-143831209D01*
X99111500Y-143954418D01*
X98782140Y-143975063D01*
X98586697Y-143974471D01*
X98490341Y-143945477D01*
X98458242Y-143880916D01*
X98455333Y-143819432D01*
X98489941Y-143688589D01*
X98624953Y-143641067D01*
X98712903Y-143638000D01*
X99086924Y-143605255D01*
X99553689Y-143517208D01*
X100052021Y-143389146D01*
X100520741Y-143236353D01*
X100826000Y-143110044D01*
X101255456Y-142861918D01*
X101700204Y-142509413D01*
X102019325Y-142206747D01*
X102533493Y-141617749D01*
X102953409Y-140963505D01*
X103296509Y-140211581D01*
X103580233Y-139329543D01*
X103594181Y-139277667D01*
X103669930Y-138982698D01*
X103726729Y-138722849D01*
X103767391Y-138465699D01*
X103794731Y-138178827D01*
X103811565Y-137829812D01*
X103820707Y-137386233D01*
X103824972Y-136815670D01*
X103825735Y-136610667D01*
X103818820Y-135766721D01*
X103788612Y-135052966D01*
X103729927Y-134431234D01*
X103637583Y-133863354D01*
X103506395Y-133311155D01*
X103331181Y-132736468D01*
X103278481Y-132580709D01*
X103189604Y-132309456D01*
X103129203Y-132100372D01*
X103112000Y-132013668D01*
X103188755Y-131967975D01*
X103393905Y-131951747D01*
X103689776Y-131961352D01*
X104038698Y-131993155D01*
X104402997Y-132043526D01*
X104745001Y-132108830D01*
X105027038Y-132185435D01*
X105076405Y-132203104D01*
X105649360Y-132508555D01*
X106149951Y-132951631D01*
X106560331Y-133509638D01*
X106862649Y-134159881D01*
X106998055Y-134646334D01*
X107074768Y-135210176D01*
X107103003Y-135892113D01*
X107085762Y-136648922D01*
X107026046Y-137437379D01*
X106926856Y-138214262D01*
X106791193Y-138936345D01*
X106666760Y-139417810D01*
X106536707Y-139959875D01*
X106507367Y-140412262D01*
X106580484Y-140822697D01*
X106731500Y-141188127D01*
X107036236Y-141648136D01*
X107416846Y-141960722D01*
X107890677Y-142137361D01*
X108236206Y-142183470D01*
X108582321Y-142191761D01*
X108849885Y-142152591D01*
X109126886Y-142049121D01*
X109254782Y-141988532D01*
X109558838Y-141812205D01*
X109801534Y-141596945D01*
X110005308Y-141311044D01*
X110192593Y-140922797D01*
X110385827Y-140400495D01*
X110392583Y-140380555D01*
X110642336Y-139508309D01*
X110847858Y-138521184D01*
X111002855Y-137469330D01*
X111101034Y-136402896D01*
X111136101Y-135372032D01*
X111115358Y-134621000D01*
X110983046Y-133355280D01*
X110745306Y-132220417D01*
X110400570Y-131213529D01*
X109947269Y-130331732D01*
X109383837Y-129572142D01*
X108708704Y-128931877D01*
X107920304Y-128408053D01*
X107664626Y-128274737D01*
X107269239Y-128089258D01*
X106883162Y-127930846D01*
X106489531Y-127797443D01*
X106071481Y-127686994D01*
X105612149Y-127597443D01*
X105094669Y-127526735D01*
X104502178Y-127472813D01*
X103817810Y-127433621D01*
X103024701Y-127407103D01*
X102105988Y-127391205D01*
X101044804Y-127383868D01*
X100347530Y-127382724D01*
X97032726Y-127382000D01*
X96856980Y-127106833D01*
X96713796Y-126887817D01*
X96593449Y-126712050D01*
X96581246Y-126695173D01*
X96539414Y-126586372D01*
X96585548Y-126450015D01*
X96735405Y-126241236D01*
X96744769Y-126229507D01*
X97115753Y-125647273D01*
X97328287Y-125031061D01*
X97380052Y-124551465D01*
X97337850Y-123991478D01*
X97188319Y-123514161D01*
X96911113Y-123056902D01*
X96881763Y-123017938D01*
X96593785Y-122640667D01*
X100776818Y-122640667D01*
X100776818Y-118974695D01*
X100651395Y-118964137D01*
X100518194Y-118833218D01*
X100378779Y-118626837D01*
X100225667Y-118404693D01*
X100086979Y-118289586D01*
X99895231Y-118240348D01*
X99719799Y-118224821D01*
X99462278Y-118215597D01*
X99306514Y-118253704D01*
X99185779Y-118369515D01*
X99086318Y-118513167D01*
X98945836Y-118704414D01*
X98835783Y-118817522D01*
X98807557Y-118830667D01*
X98707572Y-118774647D01*
X98558671Y-118638781D01*
X98548966Y-118628544D01*
X98359081Y-118426421D01*
X98620691Y-118128463D01*
X98882301Y-117830506D01*
X98708966Y-117536725D01*
X98540565Y-117320529D01*
X98322331Y-117214127D01*
X98199149Y-117189138D01*
X97983362Y-117143122D01*
X97887519Y-117064194D01*
X97863233Y-116901005D01*
X97862667Y-116832055D01*
X97862667Y-116528777D01*
X98264833Y-116579257D01*
X98512272Y-116602172D01*
X98659319Y-116570903D01*
X98773113Y-116455935D01*
X98865596Y-116315139D01*
X99064191Y-116000541D01*
X98882889Y-115627366D01*
X98782969Y-115408408D01*
X98729218Y-115263871D01*
X98726627Y-115233564D01*
X98854311Y-115157200D01*
X99033825Y-115073951D01*
X99177244Y-115023511D01*
X99198216Y-115020667D01*
X99268999Y-115093370D01*
X99356501Y-115276253D01*
X99389636Y-115368330D01*
X99462189Y-115571126D01*
X99542299Y-115690254D01*
X99675940Y-115756277D01*
X99909084Y-115799761D01*
X100071808Y-115821864D01*
X100307392Y-115845333D01*
X100452783Y-115814182D01*
X100572940Y-115696999D01*
X100694028Y-115520995D01*
X100927439Y-115168287D01*
X101143841Y-115384690D01*
X101360244Y-115601093D01*
X101107946Y-115915590D01*
X100958465Y-116112168D01*
X100901944Y-116253029D01*
X100925062Y-116414283D01*
X100988323Y-116599044D01*
X101120999Y-116968000D01*
X102096000Y-116968000D01*
X102096000Y-117571042D01*
X101693833Y-117516404D01*
X101427296Y-117477511D01*
X101219258Y-117442472D01*
X101164667Y-117431161D01*
X101039092Y-117478477D01*
X100885054Y-117642903D01*
X100843478Y-117703705D01*
X100649289Y-118006854D01*
X100864644Y-118332278D01*
X101010409Y-118561781D01*
X101065878Y-118698906D01*
X101036803Y-118790731D01*
X100931833Y-118882140D01*
X100776818Y-118974695D01*
X100776818Y-122640667D01*
X101383389Y-122640667D01*
X101383389Y-117892649D01*
X101273575Y-117877083D01*
X101272264Y-117848181D01*
X101385581Y-117827969D01*
X101434542Y-117841497D01*
X101466612Y-117879091D01*
X101383389Y-117892649D01*
X101383389Y-122640667D01*
X102519333Y-122640667D01*
X102519333Y-117899333D01*
X102519333Y-116629333D01*
X102201833Y-116619316D01*
X101785710Y-116582858D01*
X101500207Y-116506742D01*
X101361746Y-116395808D01*
X101353008Y-116369174D01*
X101387558Y-116229389D01*
X101504053Y-116023907D01*
X101584808Y-115913684D01*
X101733398Y-115724454D01*
X101826294Y-115601817D01*
X101842000Y-115577874D01*
X101786354Y-115517219D01*
X101638215Y-115366389D01*
X101425784Y-115153982D01*
X101346666Y-115075533D01*
X100851331Y-114585367D01*
X100575839Y-115014684D01*
X100397933Y-115266886D01*
X100253186Y-115398668D01*
X100102605Y-115442799D01*
X100065008Y-115444000D01*
X99923282Y-115424348D01*
X99818162Y-115340552D01*
X99715698Y-115155356D01*
X99640667Y-114978333D01*
X99537618Y-114731206D01*
X99461952Y-114562352D01*
X99433764Y-114512667D01*
X99332021Y-114544442D01*
X99126439Y-114625438D01*
X98867038Y-114734160D01*
X98603841Y-114849117D01*
X98386867Y-114948812D01*
X98266139Y-115011754D01*
X98258192Y-115017800D01*
X98255836Y-115122934D01*
X98321477Y-115326989D01*
X98413407Y-115529470D01*
X98536247Y-115787754D01*
X98581982Y-115944763D01*
X98558857Y-116045473D01*
X98517202Y-116095751D01*
X98322284Y-116183346D01*
X98077946Y-116139825D01*
X97820362Y-115980180D01*
X97585707Y-115719403D01*
X97576519Y-115705907D01*
X97253253Y-115088317D01*
X97035708Y-114377826D01*
X96929594Y-113618175D01*
X96940621Y-112853108D01*
X97074498Y-112126365D01*
X97098692Y-112045085D01*
X97418938Y-111294238D01*
X97882992Y-110614539D01*
X98475329Y-110019815D01*
X99180424Y-109523889D01*
X99982749Y-109140587D01*
X100572000Y-108952353D01*
X101147044Y-108849658D01*
X101817870Y-108804679D01*
X102521399Y-108816502D01*
X103194553Y-108884217D01*
X103744027Y-108998232D01*
X104623357Y-109322194D01*
X105395077Y-109764830D01*
X106049821Y-110317935D01*
X106578226Y-110973308D01*
X106970928Y-111722745D01*
X107030032Y-111876764D01*
X107141598Y-112304193D01*
X107216050Y-112832790D01*
X107249369Y-113397654D01*
X107237533Y-113933885D01*
X107183065Y-114347271D01*
X106944207Y-115076195D01*
X106559135Y-115769515D01*
X106050830Y-116398520D01*
X105442269Y-116934499D01*
X104796361Y-117329314D01*
X104285205Y-117549940D01*
X103746423Y-117728884D01*
X103236156Y-117850194D01*
X102810541Y-117897921D01*
X102794500Y-117898082D01*
X102519333Y-117899333D01*
X102519333Y-122640667D01*
X106060526Y-122640667D01*
X107570207Y-122640775D01*
X108920116Y-122640781D01*
X110119812Y-122640208D01*
X111178855Y-122638576D01*
X112106807Y-122635408D01*
X112913226Y-122630226D01*
X113607673Y-122622552D01*
X114199708Y-122611908D01*
X114698892Y-122597816D01*
X115114785Y-122579797D01*
X115456945Y-122557375D01*
X115734935Y-122530070D01*
X115958314Y-122497405D01*
X116136642Y-122458902D01*
X116279479Y-122414083D01*
X116396386Y-122362470D01*
X116496922Y-122303584D01*
X116590648Y-122236948D01*
X116687124Y-122162084D01*
X116759885Y-122105693D01*
X117105266Y-121753482D01*
X117390704Y-121291977D01*
X117585051Y-120778752D01*
X117645027Y-120469538D01*
X117630537Y-119894114D01*
G36*
X97862667Y-126958667D02*
X97669927Y-126888018D01*
X97566333Y-126876593D01*
X97358008Y-126917025D01*
X97270000Y-126958667D01*
X97241083Y-127008646D01*
X97357926Y-127034734D01*
X97566333Y-127040741D01*
X97809596Y-127031353D01*
X97896996Y-127000874D01*
X97862667Y-126958667D01*
X97862667Y-126958667D01*
G37*
X97862667Y-126958667D02*
X97669927Y-126888018D01*
X97566333Y-126876593D01*
X97358008Y-126917025D01*
X97270000Y-126958667D01*
X97241083Y-127008646D01*
X97357926Y-127034734D01*
X97566333Y-127040741D01*
X97809596Y-127031353D01*
X97896996Y-127000874D01*
X97862667Y-126958667D01*
G36*
X95179421Y-108327136D02*
X94995267Y-107913549D01*
X94670365Y-107563765D01*
X94191397Y-107257964D01*
X94179667Y-107251910D01*
X93627420Y-107056880D01*
X93008624Y-106986903D01*
X92361095Y-107033682D01*
X91722649Y-107188920D01*
X91131101Y-107444323D01*
X90624269Y-107791595D01*
X90331217Y-108096166D01*
X90075241Y-108530712D01*
X89932959Y-109013470D01*
X89913884Y-109494101D01*
X89998694Y-109856000D01*
X90164119Y-110128999D01*
X90429630Y-110420205D01*
X90741904Y-110676140D01*
X90931619Y-110791603D01*
X91186111Y-110891748D01*
X91523521Y-110985442D01*
X91780652Y-111036805D01*
X92428535Y-111075931D01*
X92458563Y-111072068D01*
X92458563Y-110701459D01*
X92110143Y-110689445D01*
X91747124Y-110643024D01*
X91442174Y-110572032D01*
X90952067Y-110358293D01*
X90589755Y-110056731D01*
X90364489Y-109686014D01*
X90285517Y-109264809D01*
X90362090Y-108811784D01*
X90458090Y-108586000D01*
X90720077Y-108233084D01*
X91114981Y-107908747D01*
X91606435Y-107637502D01*
X92149152Y-107446171D01*
X92601681Y-107348457D01*
X92973526Y-107324403D01*
X93336389Y-107373838D01*
X93592800Y-107442679D01*
X93922808Y-107549427D01*
X94111097Y-107636839D01*
X94180053Y-107727323D01*
X94152064Y-107843290D01*
X94092522Y-107942900D01*
X93986311Y-108091784D01*
X93917343Y-108108913D01*
X93831058Y-108004823D01*
X93823997Y-107994751D01*
X93596284Y-107784319D01*
X93264130Y-107611659D01*
X92892180Y-107505367D01*
X92672356Y-107485333D01*
X92224251Y-107558224D01*
X91807458Y-107757406D01*
X91474588Y-108053644D01*
X91365893Y-108211352D01*
X91229578Y-108574674D01*
X91175551Y-108997056D01*
X91207123Y-109406840D01*
X91297959Y-109680786D01*
X91547728Y-110014273D01*
X91895619Y-110284560D01*
X92291354Y-110463542D01*
X92672629Y-110521289D01*
X92672629Y-110109684D01*
X92256273Y-110038546D01*
X91915808Y-109844511D01*
X91669359Y-109557971D01*
X91535052Y-109209317D01*
X91531011Y-108828940D01*
X91675364Y-108447233D01*
X91678275Y-108442434D01*
X91968733Y-108103561D01*
X92319317Y-107906188D01*
X92698075Y-107850404D01*
X93073057Y-107936296D01*
X93412312Y-108163951D01*
X93629791Y-108437060D01*
X93775506Y-108818632D01*
X93773639Y-109201853D01*
X93642547Y-109554641D01*
X93400590Y-109844916D01*
X93066125Y-110040597D01*
X92672629Y-110109684D01*
X92672629Y-110521289D01*
X92684654Y-110523111D01*
X92789050Y-110514337D01*
X92963468Y-110506527D01*
X93036663Y-110538595D01*
X93036667Y-110538939D01*
X92959781Y-110625418D01*
X92754428Y-110679855D01*
X92458563Y-110701459D01*
X92458563Y-111072068D01*
X93058023Y-110994929D01*
X93647449Y-110807670D01*
X94175145Y-110528030D01*
X94619442Y-110169880D01*
X94958675Y-109747094D01*
X95171174Y-109273546D01*
X95236141Y-108824345D01*
X95179421Y-108327136D01*
X95179421Y-108327136D01*
G37*
X95179421Y-108327136D02*
X94995267Y-107913549D01*
X94670365Y-107563765D01*
X94191397Y-107257964D01*
X94179667Y-107251910D01*
X93627420Y-107056880D01*
X93008624Y-106986903D01*
X92361095Y-107033682D01*
X91722649Y-107188920D01*
X91131101Y-107444323D01*
X90624269Y-107791595D01*
X90331217Y-108096166D01*
X90075241Y-108530712D01*
X89932959Y-109013470D01*
X89913884Y-109494101D01*
X89998694Y-109856000D01*
X90164119Y-110128999D01*
X90429630Y-110420205D01*
X90741904Y-110676140D01*
X90931619Y-110791603D01*
X91186111Y-110891748D01*
X91523521Y-110985442D01*
X91780652Y-111036805D01*
X92428535Y-111075931D01*
X92458563Y-111072068D01*
X92458563Y-110701459D01*
X92110143Y-110689445D01*
X91747124Y-110643024D01*
X91442174Y-110572032D01*
X90952067Y-110358293D01*
X90589755Y-110056731D01*
X90364489Y-109686014D01*
X90285517Y-109264809D01*
X90362090Y-108811784D01*
X90458090Y-108586000D01*
X90720077Y-108233084D01*
X91114981Y-107908747D01*
X91606435Y-107637502D01*
X92149152Y-107446171D01*
X92601681Y-107348457D01*
X92973526Y-107324403D01*
X93336389Y-107373838D01*
X93592800Y-107442679D01*
X93922808Y-107549427D01*
X94111097Y-107636839D01*
X94180053Y-107727323D01*
X94152064Y-107843290D01*
X94092522Y-107942900D01*
X93986311Y-108091784D01*
X93917343Y-108108913D01*
X93831058Y-108004823D01*
X93823997Y-107994751D01*
X93596284Y-107784319D01*
X93264130Y-107611659D01*
X92892180Y-107505367D01*
X92672356Y-107485333D01*
X92224251Y-107558224D01*
X91807458Y-107757406D01*
X91474588Y-108053644D01*
X91365893Y-108211352D01*
X91229578Y-108574674D01*
X91175551Y-108997056D01*
X91207123Y-109406840D01*
X91297959Y-109680786D01*
X91547728Y-110014273D01*
X91895619Y-110284560D01*
X92291354Y-110463542D01*
X92672629Y-110521289D01*
X92672629Y-110109684D01*
X92256273Y-110038546D01*
X91915808Y-109844511D01*
X91669359Y-109557971D01*
X91535052Y-109209317D01*
X91531011Y-108828940D01*
X91675364Y-108447233D01*
X91678275Y-108442434D01*
X91968733Y-108103561D01*
X92319317Y-107906188D01*
X92698075Y-107850404D01*
X93073057Y-107936296D01*
X93412312Y-108163951D01*
X93629791Y-108437060D01*
X93775506Y-108818632D01*
X93773639Y-109201853D01*
X93642547Y-109554641D01*
X93400590Y-109844916D01*
X93066125Y-110040597D01*
X92672629Y-110109684D01*
X92672629Y-110521289D01*
X92684654Y-110523111D01*
X92789050Y-110514337D01*
X92963468Y-110506527D01*
X93036663Y-110538595D01*
X93036667Y-110538939D01*
X92959781Y-110625418D01*
X92754428Y-110679855D01*
X92458563Y-110701459D01*
X92458563Y-111072068D01*
X93058023Y-110994929D01*
X93647449Y-110807670D01*
X94175145Y-110528030D01*
X94619442Y-110169880D01*
X94958675Y-109747094D01*
X95171174Y-109273546D01*
X95236141Y-108824345D01*
X95179421Y-108327136D01*
G36*
X91612777Y-142555085D02*
X91271143Y-142461148D01*
X90818978Y-142371781D01*
X90315044Y-142295210D01*
X89818106Y-142239660D01*
X89386925Y-142213356D01*
X89183568Y-142215068D01*
X88680893Y-142241000D01*
X88541411Y-142622000D01*
X88447600Y-142939750D01*
X88369076Y-143310138D01*
X88344391Y-143475005D01*
X88286854Y-143947011D01*
X89697925Y-144332868D01*
X91108995Y-144718725D01*
X91346732Y-144194408D01*
X91506240Y-143821273D01*
X91665713Y-143414575D01*
X91754511Y-143167212D01*
X91924554Y-142664333D01*
X91612777Y-142555085D01*
X91612777Y-142555085D01*
G37*
X91612777Y-142555085D02*
X91271143Y-142461148D01*
X90818978Y-142371781D01*
X90315044Y-142295210D01*
X89818106Y-142239660D01*
X89386925Y-142213356D01*
X89183568Y-142215068D01*
X88680893Y-142241000D01*
X88541411Y-142622000D01*
X88447600Y-142939750D01*
X88369076Y-143310138D01*
X88344391Y-143475005D01*
X88286854Y-143947011D01*
X89697925Y-144332868D01*
X91108995Y-144718725D01*
X91346732Y-144194408D01*
X91506240Y-143821273D01*
X91665713Y-143414575D01*
X91754511Y-143167212D01*
X91924554Y-142664333D01*
X91612777Y-142555085D01*
G36*
X90517431Y-140582615D02*
X90373515Y-140374485D01*
X90109876Y-140203786D01*
X89836809Y-140175073D01*
X89583020Y-140265350D01*
X89377211Y-140451617D01*
X89248087Y-140710879D01*
X89224351Y-141020136D01*
X89283334Y-141247948D01*
X89412466Y-141388877D01*
X89636992Y-141507993D01*
X89883243Y-141573893D01*
X90037776Y-141569532D01*
X90324862Y-141422095D01*
X90509053Y-141178018D01*
X90577520Y-140882968D01*
X90517431Y-140582615D01*
X90517431Y-140582615D01*
G37*
X90517431Y-140582615D02*
X90373515Y-140374485D01*
X90109876Y-140203786D01*
X89836809Y-140175073D01*
X89583020Y-140265350D01*
X89377211Y-140451617D01*
X89248087Y-140710879D01*
X89224351Y-141020136D01*
X89283334Y-141247948D01*
X89412466Y-141388877D01*
X89636992Y-141507993D01*
X89883243Y-141573893D01*
X90037776Y-141569532D01*
X90324862Y-141422095D01*
X90509053Y-141178018D01*
X90577520Y-140882968D01*
X90517431Y-140582615D01*
G36*
X92125973Y-141197848D02*
X91987455Y-141053858D01*
X91742181Y-140968698D01*
X91496560Y-140998585D01*
X91323463Y-141130578D01*
X91252540Y-141375610D01*
X91310602Y-141634082D01*
X91480090Y-141831845D01*
X91655988Y-141925070D01*
X91800506Y-141913799D01*
X91924590Y-141852322D01*
X92117223Y-141667080D01*
X92185786Y-141430699D01*
X92125973Y-141197848D01*
X92125973Y-141197848D01*
G37*
X92125973Y-141197848D02*
X91987455Y-141053858D01*
X91742181Y-140968698D01*
X91496560Y-140998585D01*
X91323463Y-141130578D01*
X91252540Y-141375610D01*
X91310602Y-141634082D01*
X91480090Y-141831845D01*
X91655988Y-141925070D01*
X91800506Y-141913799D01*
X91924590Y-141852322D01*
X92117223Y-141667080D01*
X92185786Y-141430699D01*
X92125973Y-141197848D01*
G36*
X90484936Y-116849064D02*
X90317239Y-116645410D01*
X90056194Y-116485018D01*
X89773092Y-116403369D01*
X89604510Y-116410894D01*
X89286750Y-116567478D01*
X89052669Y-116830712D01*
X88925883Y-117155651D01*
X88930013Y-117497349D01*
X88969537Y-117619231D01*
X89097226Y-117799939D01*
X89274748Y-117953219D01*
X89605712Y-118087518D01*
X89690539Y-118084964D01*
X89690539Y-117723715D01*
X89462011Y-117613740D01*
X89444381Y-117596953D01*
X89327504Y-117373549D01*
X89338349Y-117116351D01*
X89448978Y-116927118D01*
X89661170Y-116818850D01*
X89899092Y-116845031D01*
X90102921Y-116993980D01*
X90150293Y-117064077D01*
X90227287Y-117241005D01*
X90202740Y-117385274D01*
X90129845Y-117508577D01*
X89930710Y-117686397D01*
X89690539Y-117723715D01*
X89690539Y-118084964D01*
X89925969Y-118077872D01*
X90208551Y-117948887D01*
X90426488Y-117725167D01*
X90552813Y-117431320D01*
X90560556Y-117091950D01*
X90484936Y-116849064D01*
X90484936Y-116849064D01*
G37*
X90484936Y-116849064D02*
X90317239Y-116645410D01*
X90056194Y-116485018D01*
X89773092Y-116403369D01*
X89604510Y-116410894D01*
X89286750Y-116567478D01*
X89052669Y-116830712D01*
X88925883Y-117155651D01*
X88930013Y-117497349D01*
X88969537Y-117619231D01*
X89097226Y-117799939D01*
X89274748Y-117953219D01*
X89605712Y-118087518D01*
X89690539Y-118084964D01*
X89690539Y-117723715D01*
X89462011Y-117613740D01*
X89444381Y-117596953D01*
X89327504Y-117373549D01*
X89338349Y-117116351D01*
X89448978Y-116927118D01*
X89661170Y-116818850D01*
X89899092Y-116845031D01*
X90102921Y-116993980D01*
X90150293Y-117064077D01*
X90227287Y-117241005D01*
X90202740Y-117385274D01*
X90129845Y-117508577D01*
X89930710Y-117686397D01*
X89690539Y-117723715D01*
X89690539Y-118084964D01*
X89925969Y-118077872D01*
X90208551Y-117948887D01*
X90426488Y-117725167D01*
X90552813Y-117431320D01*
X90560556Y-117091950D01*
X90484936Y-116849064D01*
G36*
X92854390Y-116746946D02*
X92749891Y-116560272D01*
X92526998Y-116442530D01*
X92237803Y-116417678D01*
X91954656Y-116481398D01*
X91757628Y-116619471D01*
X91626536Y-116891769D01*
X91607492Y-117200172D01*
X91699835Y-117475991D01*
X91766667Y-117560667D01*
X92006121Y-117696909D01*
X92155755Y-117714602D01*
X92155755Y-117353499D01*
X92048285Y-117258527D01*
X91952872Y-117103957D01*
X91958713Y-116989136D01*
X92010372Y-116897092D01*
X92141446Y-116819727D01*
X92284242Y-116812426D01*
X92452070Y-116900712D01*
X92525066Y-117062600D01*
X92495456Y-117233834D01*
X92355465Y-117350158D01*
X92349541Y-117352108D01*
X92155755Y-117353499D01*
X92155755Y-117714602D01*
X92303223Y-117732040D01*
X92586996Y-117666573D01*
X92746758Y-117553568D01*
X92861035Y-117326069D01*
X92896991Y-117032294D01*
X92854390Y-116746946D01*
X92854390Y-116746946D01*
G37*
X92854390Y-116746946D02*
X92749891Y-116560272D01*
X92526998Y-116442530D01*
X92237803Y-116417678D01*
X91954656Y-116481398D01*
X91757628Y-116619471D01*
X91626536Y-116891769D01*
X91607492Y-117200172D01*
X91699835Y-117475991D01*
X91766667Y-117560667D01*
X92006121Y-117696909D01*
X92155755Y-117714602D01*
X92155755Y-117353499D01*
X92048285Y-117258527D01*
X91952872Y-117103957D01*
X91958713Y-116989136D01*
X92010372Y-116897092D01*
X92141446Y-116819727D01*
X92284242Y-116812426D01*
X92452070Y-116900712D01*
X92525066Y-117062600D01*
X92495456Y-117233834D01*
X92355465Y-117350158D01*
X92349541Y-117352108D01*
X92155755Y-117353499D01*
X92155755Y-117714602D01*
X92303223Y-117732040D01*
X92586996Y-117666573D01*
X92746758Y-117553568D01*
X92861035Y-117326069D01*
X92896991Y-117032294D01*
X92854390Y-116746946D01*
G04 #@! TD*
%LPC*%
D12*
G04 #@! TO.C,J1*
X76150000Y-106500000D03*
X76150000Y-99000000D03*
G04 #@! TD*
G04 #@! TO.C,J1*
X76150000Y-89100000D03*
X76150000Y-81600000D03*
G04 #@! TD*
D13*
G04 #@! TO.C,J3*
G36*
X75061975Y-115850276D02*
X75087699Y-115854092D01*
X75112925Y-115860411D01*
X75137411Y-115869172D01*
X75160920Y-115880291D01*
X75183226Y-115893661D01*
X75204114Y-115909152D01*
X75223383Y-115926617D01*
X75240848Y-115945886D01*
X75256339Y-115966774D01*
X75269709Y-115989080D01*
X75280828Y-116012589D01*
X75289589Y-116037075D01*
X75295908Y-116062301D01*
X75299724Y-116088025D01*
X75301000Y-116114000D01*
X75301000Y-117686000D01*
X75299724Y-117711975D01*
X75295908Y-117737699D01*
X75289589Y-117762925D01*
X75280828Y-117787411D01*
X75269709Y-117810920D01*
X75256339Y-117833226D01*
X75240848Y-117854114D01*
X75223383Y-117873383D01*
X75204114Y-117890848D01*
X75183226Y-117906339D01*
X75160920Y-117919709D01*
X75137411Y-117930828D01*
X75112925Y-117939589D01*
X75087699Y-117945908D01*
X75061975Y-117949724D01*
X75036000Y-117951000D01*
X73764000Y-117951000D01*
X73738025Y-117949724D01*
X73712301Y-117945908D01*
X73687075Y-117939589D01*
X73662589Y-117930828D01*
X73639080Y-117919709D01*
X73616774Y-117906339D01*
X73595886Y-117890848D01*
X73576617Y-117873383D01*
X73559152Y-117854114D01*
X73543661Y-117833226D01*
X73530291Y-117810920D01*
X73519172Y-117787411D01*
X73510411Y-117762925D01*
X73504092Y-117737699D01*
X73500276Y-117711975D01*
X73499000Y-117686000D01*
X73499000Y-116114000D01*
X73500276Y-116088025D01*
X73504092Y-116062301D01*
X73510411Y-116037075D01*
X73519172Y-116012589D01*
X73530291Y-115989080D01*
X73543661Y-115966774D01*
X73559152Y-115945886D01*
X73576617Y-115926617D01*
X73595886Y-115909152D01*
X73616774Y-115893661D01*
X73639080Y-115880291D01*
X73662589Y-115869172D01*
X73687075Y-115860411D01*
X73712301Y-115854092D01*
X73738025Y-115850276D01*
X73764000Y-115849000D01*
X75036000Y-115849000D01*
X75061975Y-115850276D01*
X75061975Y-115850276D01*
G37*
D14*
X74400000Y-116900000D03*
D15*
X76900000Y-116900000D03*
G04 #@! TD*
D16*
G04 #@! TO.C,DC-DC_5V*
X97790000Y-146050000D03*
X95250000Y-146050000D03*
X92710000Y-146050000D03*
D17*
X90170000Y-146050000D03*
G04 #@! TD*
D18*
G04 #@! TO.C,Arduino Nano*
X86360000Y-124460000D03*
D19*
X101600000Y-157480000D03*
X86360000Y-127000000D03*
X101600000Y-154940000D03*
X86360000Y-129540000D03*
X101600000Y-152400000D03*
X86360000Y-132080000D03*
X101600000Y-149860000D03*
X86360000Y-134620000D03*
X101600000Y-147320000D03*
X86360000Y-137160000D03*
X101600000Y-144780000D03*
X86360000Y-139700000D03*
X101600000Y-142240000D03*
X86360000Y-142240000D03*
X101600000Y-139700000D03*
X86360000Y-144780000D03*
X101600000Y-137160000D03*
X86360000Y-147320000D03*
X101600000Y-134620000D03*
X86360000Y-149860000D03*
X101600000Y-132080000D03*
X86360000Y-152400000D03*
X101600000Y-129540000D03*
X86360000Y-154940000D03*
X101600000Y-127000000D03*
X86360000Y-157480000D03*
X101600000Y-124460000D03*
X86360000Y-160020000D03*
X101600000Y-160020000D03*
D20*
X86360000Y-121920000D03*
X101600000Y-121920000D03*
X101600000Y-162560000D03*
X86360000Y-162560000D03*
G04 #@! TD*
D21*
G04 #@! TO.C,C1*
X90170000Y-84455000D03*
D22*
X97670000Y-84455000D03*
G04 #@! TD*
G04 #@! TO.C,C2*
X117355000Y-84455000D03*
D21*
X109855000Y-84455000D03*
G04 #@! TD*
G04 #@! TO.C,C3*
X109855000Y-106045000D03*
D22*
X117355000Y-106045000D03*
G04 #@! TD*
G04 #@! TO.C,C4*
X97670000Y-106045000D03*
D21*
X90170000Y-106045000D03*
G04 #@! TD*
D23*
G04 #@! TO.C,C5*
X105410000Y-116700000D03*
X105410000Y-119200000D03*
G04 #@! TD*
D17*
G04 #@! TO.C,SIG*
X78200000Y-127000000D03*
D16*
X78200000Y-129540000D03*
X78200000Y-132080000D03*
X78200000Y-134620000D03*
X78200000Y-137160000D03*
X78200000Y-139700000D03*
X78200000Y-142240000D03*
X78200000Y-144780000D03*
X78200000Y-147320000D03*
X78200000Y-149860000D03*
X78200000Y-152400000D03*
X78200000Y-154940000D03*
X78200000Y-157480000D03*
X78200000Y-160020000D03*
X78200000Y-162560000D03*
G04 #@! TD*
D17*
G04 #@! TO.C,SIG*
X108585000Y-132080000D03*
D16*
X108585000Y-134620000D03*
X108585000Y-137160000D03*
X108585000Y-139700000D03*
X108585000Y-142240000D03*
X108585000Y-144780000D03*
X108585000Y-147320000D03*
X108585000Y-149860000D03*
X108585000Y-152400000D03*
X108585000Y-154940000D03*
G04 #@! TD*
D17*
G04 #@! TO.C,JA3*
X108585000Y-162560000D03*
D16*
X111125000Y-162560000D03*
X113665000Y-162560000D03*
X116205000Y-162560000D03*
G04 #@! TD*
G04 #@! TO.C,+5V*
X75600000Y-162560000D03*
X75600000Y-160020000D03*
X75600000Y-157480000D03*
X75600000Y-154940000D03*
X75600000Y-152400000D03*
X75600000Y-149860000D03*
X75600000Y-147320000D03*
X75600000Y-144780000D03*
X75600000Y-142240000D03*
X75600000Y-139700000D03*
X75600000Y-137160000D03*
X75600000Y-134620000D03*
X75600000Y-132080000D03*
X75600000Y-129540000D03*
D17*
X75600000Y-127000000D03*
G04 #@! TD*
G04 #@! TO.C,GND*
X73000000Y-127000000D03*
D16*
X73000000Y-129540000D03*
X73000000Y-132080000D03*
X73000000Y-134620000D03*
X73000000Y-137160000D03*
X73000000Y-139700000D03*
X73000000Y-142240000D03*
X73000000Y-144780000D03*
X73000000Y-147320000D03*
X73000000Y-149860000D03*
X73000000Y-152400000D03*
X73000000Y-154940000D03*
X73000000Y-157480000D03*
X73000000Y-160020000D03*
X73000000Y-162560000D03*
G04 #@! TD*
G04 #@! TO.C,GND*
X113800000Y-154960000D03*
X113800000Y-152420000D03*
X113800000Y-149880000D03*
X113800000Y-147340000D03*
X113800000Y-144800000D03*
X113800000Y-142260000D03*
X113800000Y-139720000D03*
X113800000Y-137180000D03*
X113800000Y-134640000D03*
D17*
X113800000Y-132100000D03*
G04 #@! TD*
G04 #@! TO.C,+5V*
X111200000Y-132080000D03*
D16*
X111200000Y-134620000D03*
X111200000Y-137160000D03*
X111200000Y-139700000D03*
X111200000Y-142240000D03*
X111200000Y-144780000D03*
X111200000Y-147320000D03*
X111200000Y-149860000D03*
X111200000Y-152400000D03*
X111200000Y-154940000D03*
G04 #@! TD*
D23*
G04 #@! TO.C,R1*
X109220000Y-120015000D03*
D19*
X119380000Y-120015000D03*
G04 #@! TD*
G04 #@! TO.C,R2*
X109220000Y-124460000D03*
D23*
X119380000Y-124460000D03*
G04 #@! TD*
M02*
