M48
INCH,TZ
T1C0.0157
T2C0.0315
T3C0.0394
T4C0.0472
T5C0.1772
%
G90
G05
T1
X37008Y-35039
X39843Y-46969
X40945Y-61496
X40953Y-52315
X41732Y-50551
X41732Y-61496
X42165Y-43110
X42165Y-62480
X42795Y-62480
T2
X34000Y-49000
X34000Y-50000
X34000Y-51000
X34000Y-52000
X34000Y-53000
X34000Y-54000
X34000Y-55000
X34000Y-56000
X34000Y-57000
X34000Y-58000
X34000Y-59000
X34000Y-60000
X34000Y-61000
X34000Y-62000
X34000Y-63000
X40000Y-49000
X40000Y-50000
X40000Y-51000
X40000Y-52000
X40000Y-53000
X40000Y-54000
X40000Y-55000
X40000Y-56000
X40000Y-57000
X40000Y-58000
X40000Y-59000
X40000Y-60000
X40000Y-61000
X40000Y-62000
X40000Y-63000
X43000Y-49000
X47000Y-49000
X41500Y-45945
X41500Y-46929
X43000Y-47250
X47000Y-47250
T3
X42750Y-64000
X43750Y-64000
X44750Y-64000
X45750Y-64000
X44803Y-52008
X44803Y-53008
X44803Y-54008
X44803Y-55008
X44803Y-56008
X44803Y-57008
X44803Y-58008
X44803Y-59008
X44803Y-60008
X44803Y-61008
X28740Y-50000
X28740Y-51000
X28740Y-52000
X28740Y-53000
X28740Y-54000
X28740Y-55000
X28740Y-56000
X28740Y-57000
X28740Y-58000
X28740Y-59000
X28740Y-60000
X28740Y-61000
X28740Y-62000
X28740Y-63000
X28740Y-64000
X35500Y-57500
X36500Y-57500
X37500Y-57500
X38500Y-57500
X30787Y-50000
X30787Y-51000
X30787Y-52000
X30787Y-53000
X30787Y-54000
X30787Y-55000
X30787Y-56000
X30787Y-57000
X30787Y-58000
X30787Y-59000
X30787Y-60000
X30787Y-61000
X30787Y-62000
X30787Y-63000
X30787Y-64000
X43780Y-52000
X43780Y-53000
X43780Y-54000
X43780Y-55000
X43780Y-56000
X43780Y-57000
X43780Y-58000
X43780Y-59000
X43780Y-60000
X43780Y-61000
X29764Y-50000
X29764Y-51000
X29764Y-52000
X29764Y-53000
X29764Y-54000
X29764Y-55000
X29764Y-56000
X29764Y-57000
X29764Y-58000
X29764Y-59000
X29764Y-60000
X29764Y-61000
X29764Y-62000
X29764Y-63000
X29764Y-64000
X42750Y-52000
X42750Y-53000
X42750Y-54000
X42750Y-55000
X42750Y-56000
X42750Y-57000
X42750Y-58000
X42750Y-59000
X42750Y-60000
X42750Y-61000
X29291Y-46024
X30276Y-46024
T4
X35500Y-41750
X38453Y-41750
X35500Y-33250
X38453Y-33250
X43250Y-33250
X46203Y-33250
X43250Y-41750
X46203Y-41750
T5
X29980Y-32126
X29980Y-35079
X29980Y-38976
X29980Y-41929
T0
M30
